<svg width="302" height="46" viewBox="0 0 302 46" fill="none" xmlns="http://www.w3.org/2000/svg">
<path d="M49.9004 18H43.3184V17.3066C43.5137 17.2936 43.8164 17.2676 44.2266 17.2285C44.6432 17.1829 44.9297 17.1374 45.0859 17.0918C45.2878 17.0267 45.4408 16.9225 45.5449 16.7793C45.6556 16.6296 45.7109 16.4082 45.7109 16.1152V9.25977H43.2793V8.43945H43.8164C44.5195 8.43945 45.1478 8.30924 45.7012 8.04883C46.2611 7.78841 46.6615 7.50846 46.9023 7.20898H47.7129C47.6934 7.63216 47.6738 8.12695 47.6543 8.69336C47.6348 9.25977 47.625 9.76758 47.625 10.2168V16.0078C47.625 16.2357 47.6738 16.4408 47.7715 16.623C47.8757 16.7988 48.0221 16.929 48.2109 17.0137C48.3802 17.0853 48.6569 17.1504 49.041 17.209C49.4251 17.2676 49.7116 17.3001 49.9004 17.3066V18ZM64.8785 18.3223C64.0517 18.3223 63.2574 18.1595 62.4957 17.834C61.7405 17.5085 61.0699 17.0397 60.484 16.4277C59.9046 15.8158 59.4423 15.0703 59.0973 14.1914C58.7522 13.306 58.5797 12.3099 58.5797 11.2031C58.5797 10.0964 58.749 9.09375 59.0875 8.19531C59.426 7.29036 59.8948 6.51237 60.4937 5.86133C61.0862 5.2168 61.7861 4.71875 62.5934 4.36719C63.4007 4.01562 64.2633 3.83984 65.1812 3.83984C65.8648 3.83984 66.4833 3.92448 67.0367 4.09375C67.5901 4.26302 68.1174 4.50065 68.6187 4.80664L69.0191 4.14258H69.8004L69.8883 9.08398H69.0875C68.9833 8.60221 68.8271 8.08138 68.6187 7.52148C68.4104 6.95508 68.1663 6.47656 67.8863 6.08594C67.5738 5.64323 67.2027 5.29818 66.773 5.05078C66.3434 4.79688 65.8518 4.66992 65.2984 4.66992C64.6669 4.66992 64.0777 4.8099 63.5309 5.08984C62.9905 5.36979 62.5217 5.7832 62.1246 6.33008C61.747 6.85742 61.4508 7.52799 61.2359 8.3418C61.0211 9.1556 60.9137 10.0638 60.9137 11.0664C60.9137 11.9518 61.0243 12.7656 61.2457 13.5078C61.4736 14.2435 61.7958 14.8913 62.2125 15.4512C62.6292 16.0046 63.1207 16.4375 63.6871 16.75C64.26 17.0625 64.898 17.2188 65.6012 17.2188C66.1285 17.2188 66.6135 17.1374 67.0562 16.9746C67.499 16.8053 67.8831 16.584 68.2086 16.3105C68.5341 16.0241 68.8206 15.6986 69.068 15.334C69.3154 14.9694 69.5172 14.5723 69.6734 14.1426L70.4059 14.4941C69.846 15.8678 69.1038 16.8509 68.1793 17.4434C67.2548 18.0293 66.1546 18.3223 64.8785 18.3223ZM81.1273 15.7344C80.7237 16.5026 80.1833 17.1146 79.5063 17.5703C78.8292 18.026 78.0512 18.2539 77.1723 18.2539C76.3975 18.2539 75.7172 18.1172 75.1313 17.8438C74.5518 17.5703 74.0733 17.1992 73.6957 16.7305C73.3181 16.2617 73.0349 15.7148 72.8461 15.0898C72.6638 14.4648 72.5727 13.804 72.5727 13.1074C72.5727 12.4824 72.6703 11.8704 72.8656 11.2715C73.0674 10.666 73.3604 10.1224 73.7445 9.64062C74.1156 9.17839 74.5746 8.80729 75.1215 8.52734C75.6749 8.24089 76.2934 8.09766 76.977 8.09766C77.6801 8.09766 78.2823 8.20833 78.7836 8.42969C79.2849 8.65104 79.6918 8.95378 80.0043 9.33789C80.3038 9.70247 80.5251 10.1322 80.6684 10.627C80.8181 11.1217 80.893 11.6589 80.893 12.2383V12.8828H74.516C74.516 13.5143 74.5746 14.0872 74.6918 14.6016C74.8155 15.1159 75.0076 15.5684 75.268 15.959C75.5219 16.3366 75.8539 16.6361 76.2641 16.8574C76.6742 17.0723 77.1625 17.1797 77.7289 17.1797C78.3083 17.1797 78.8064 17.0462 79.223 16.7793C79.6462 16.5059 80.0531 16.0176 80.4438 15.3145L81.1273 15.7344ZM78.9691 12.0625C78.9691 11.6979 78.9366 11.3073 78.8715 10.8906C78.8129 10.474 78.7152 10.1257 78.5785 9.8457C78.4288 9.54622 78.2237 9.30208 77.9633 9.11328C77.7029 8.92448 77.3676 8.83008 76.9574 8.83008C76.2738 8.83008 75.7042 9.11654 75.2484 9.68945C74.7992 10.2559 74.5551 11.0469 74.516 12.0625H78.9691ZM94.0754 18H89.3586V17.3555C89.5083 17.3424 89.6711 17.3294 89.8469 17.3164C90.0292 17.3034 90.1789 17.2773 90.2961 17.2383C90.4784 17.1797 90.6118 17.0788 90.6965 16.9355C90.7876 16.7858 90.8332 16.5938 90.8332 16.3594V11.4082C90.8332 10.7246 90.6704 10.1973 90.3449 9.82617C90.0259 9.45508 89.6353 9.26953 89.173 9.26953C88.828 9.26953 88.5122 9.32487 88.2258 9.43555C87.9393 9.53971 87.6854 9.66992 87.4641 9.82617C87.2492 9.97591 87.0767 10.1387 86.9465 10.3145C86.8228 10.4837 86.7316 10.6204 86.673 10.7246V16.2617C86.673 16.4831 86.7186 16.6654 86.8098 16.8086C86.9009 16.9518 87.0376 17.0625 87.2199 17.1406C87.3566 17.2057 87.5031 17.2546 87.6594 17.2871C87.8221 17.3197 87.9882 17.3424 88.1574 17.3555V18H83.4406V17.3555C83.5904 17.3424 83.7434 17.3294 83.8996 17.3164C84.0624 17.3034 84.2023 17.2773 84.3195 17.2383C84.5018 17.1797 84.6353 17.0788 84.7199 16.9355C84.8111 16.7858 84.8566 16.5938 84.8566 16.3594V10.4121C84.8566 10.1908 84.8078 9.98893 84.7102 9.80664C84.619 9.61784 84.4888 9.46484 84.3195 9.34766C84.1958 9.26953 84.0493 9.21419 83.8801 9.18164C83.7108 9.14258 83.5285 9.11654 83.3332 9.10352V8.46875L86.5363 8.25391L86.673 8.39062V9.74805H86.7219C86.8781 9.5918 87.0734 9.40625 87.3078 9.19141C87.5422 8.97005 87.7635 8.79102 87.9719 8.6543C88.2128 8.49805 88.4992 8.36784 88.8312 8.26367C89.1633 8.15951 89.5376 8.10742 89.9543 8.10742C90.8788 8.10742 91.5624 8.39714 92.0051 8.97656C92.4543 9.54948 92.6789 10.3145 92.6789 11.2715V16.2812C92.6789 16.5091 92.718 16.6947 92.7961 16.8379C92.8742 16.9746 93.0077 17.082 93.1965 17.1602C93.3527 17.2253 93.4862 17.2708 93.5969 17.2969C93.7141 17.3229 93.8736 17.3424 94.0754 17.3555V18ZM102.404 17.5801C101.981 17.7559 101.581 17.9023 101.203 18.0195C100.826 18.1432 100.363 18.2051 99.8164 18.2051C99.0091 18.2051 98.4395 18.0033 98.1074 17.5996C97.7819 17.1895 97.6191 16.6133 97.6191 15.8711V9.34766H95.8809V8.41016H97.6582V5.41211H99.4355V8.41016H102.199V9.34766H99.4551V14.7285C99.4551 15.1322 99.4681 15.4707 99.4941 15.7441C99.5267 16.0111 99.5983 16.2454 99.709 16.4473C99.8132 16.6361 99.9694 16.7793 100.178 16.877C100.386 16.9746 100.666 17.0234 101.018 17.0234C101.18 17.0234 101.418 17.0104 101.73 16.9844C102.049 16.9518 102.274 16.9128 102.404 16.8672V17.5801ZM111.944 9.61133C111.944 9.94336 111.863 10.2396 111.7 10.5C111.537 10.7539 111.287 10.8809 110.948 10.8809C110.583 10.8809 110.304 10.7865 110.108 10.5977C109.919 10.4089 109.825 10.2005 109.825 9.97266C109.825 9.82943 109.835 9.69922 109.854 9.58203C109.88 9.46484 109.903 9.34766 109.923 9.23047C109.617 9.23047 109.259 9.35417 108.848 9.60156C108.438 9.84896 108.09 10.2005 107.804 10.6562V16.2617C107.804 16.4896 107.846 16.6751 107.93 16.8184C108.022 16.9616 108.162 17.069 108.35 17.1406C108.513 17.2057 108.721 17.2546 108.975 17.2871C109.236 17.3197 109.46 17.3424 109.649 17.3555V18H104.571V17.3555C104.721 17.3424 104.874 17.3294 105.03 17.3164C105.193 17.3034 105.333 17.2773 105.45 17.2383C105.632 17.1797 105.766 17.0788 105.85 16.9355C105.942 16.7858 105.987 16.5938 105.987 16.3594V10.4121C105.987 10.2103 105.938 10.0117 105.841 9.81641C105.749 9.62109 105.619 9.46484 105.45 9.34766C105.326 9.26953 105.18 9.21419 105.011 9.18164C104.841 9.14258 104.659 9.11654 104.464 9.10352V8.46875L107.667 8.25391L107.804 8.39062V9.74805H107.852C108.256 9.2207 108.705 8.82031 109.2 8.54688C109.695 8.27344 110.147 8.13672 110.557 8.13672C110.968 8.13672 111.3 8.27018 111.554 8.53711C111.814 8.80404 111.944 9.16211 111.944 9.61133ZM123.095 17.8242C122.789 17.9349 122.519 18.0228 122.285 18.0879C122.057 18.1595 121.796 18.1953 121.504 18.1953C120.996 18.1953 120.589 18.0781 120.283 17.8438C119.983 17.6029 119.791 17.2546 119.707 16.7988H119.648C119.225 17.2676 118.769 17.6257 118.281 17.873C117.799 18.1204 117.216 18.2441 116.533 18.2441C115.81 18.2441 115.214 18.0228 114.746 17.5801C114.283 17.1374 114.052 16.5579 114.052 15.8418C114.052 15.4707 114.104 15.1387 114.209 14.8457C114.313 14.5527 114.469 14.2891 114.677 14.0547C114.84 13.8594 115.055 13.6868 115.322 13.5371C115.589 13.3809 115.839 13.2572 116.074 13.166C116.367 13.0553 116.959 12.8503 117.851 12.5508C118.75 12.2513 119.355 12.0169 119.668 11.8477V10.8809C119.668 10.7962 119.648 10.6335 119.609 10.3926C119.576 10.1517 119.502 9.92383 119.384 9.70898C119.254 9.4681 119.069 9.25977 118.828 9.08398C118.593 8.90169 118.258 8.81055 117.822 8.81055C117.522 8.81055 117.242 8.86263 116.982 8.9668C116.728 9.06445 116.549 9.16862 116.445 9.2793C116.445 9.40951 116.474 9.60156 116.533 9.85547C116.598 10.1094 116.63 10.3438 116.63 10.5586C116.63 10.7865 116.526 10.9948 116.318 11.1836C116.116 11.3724 115.833 11.4668 115.468 11.4668C115.143 11.4668 114.902 11.3529 114.746 11.125C114.596 10.8906 114.521 10.6302 114.521 10.3438C114.521 10.0443 114.625 9.75781 114.834 9.48438C115.048 9.21094 115.325 8.9668 115.664 8.75195C115.957 8.56966 116.311 8.41667 116.728 8.29297C117.145 8.16276 117.552 8.09766 117.949 8.09766C118.496 8.09766 118.971 8.13672 119.375 8.21484C119.785 8.28646 120.156 8.44596 120.488 8.69336C120.82 8.93424 121.071 9.26302 121.24 9.67969C121.416 10.0898 121.504 10.6204 121.504 11.2715C121.504 12.2025 121.494 13.0293 121.474 13.752C121.455 14.4681 121.445 15.2526 121.445 16.1055C121.445 16.3594 121.487 16.5612 121.572 16.7109C121.663 16.8607 121.8 16.9876 121.982 17.0918C122.08 17.1504 122.233 17.1829 122.441 17.1895C122.656 17.196 122.874 17.1992 123.095 17.1992V17.8242ZM119.687 12.668C119.134 12.8307 118.649 12.9902 118.232 13.1465C117.815 13.3027 117.428 13.498 117.07 13.7324C116.744 13.9538 116.487 14.2174 116.298 14.5234C116.11 14.8229 116.015 15.181 116.015 15.5977C116.015 16.138 116.155 16.5352 116.435 16.7891C116.722 17.043 117.083 17.1699 117.519 17.1699C117.981 17.1699 118.388 17.0592 118.74 16.8379C119.091 16.61 119.388 16.3431 119.629 16.0371L119.687 12.668ZM129.764 18H125.067V17.3555C125.217 17.3424 125.376 17.3294 125.545 17.3164C125.715 17.2969 125.855 17.2708 125.965 17.2383C126.148 17.1797 126.284 17.0788 126.375 16.9355C126.467 16.7858 126.512 16.5938 126.512 16.3594V5.20703C126.512 4.97266 126.46 4.75456 126.356 4.55273C126.258 4.3444 126.128 4.18164 125.965 4.06445C125.848 3.98633 125.633 3.91471 125.321 3.84961C125.008 3.78451 124.758 3.74544 124.569 3.73242V3.10742L128.192 2.88281L128.329 3.0293V16.2422C128.329 16.4701 128.371 16.6589 128.455 16.8086C128.54 16.9518 128.677 17.0625 128.866 17.1406C129.009 17.2057 129.149 17.2546 129.286 17.2871C129.429 17.3197 129.588 17.3424 129.764 17.3555V18ZM147.076 11.6426C147.369 11.9681 147.584 12.3262 147.721 12.7168C147.864 13.1009 147.936 13.5501 147.936 14.0645C147.936 15.2884 147.483 16.2975 146.578 17.0918C145.673 17.8861 144.55 18.2832 143.209 18.2832C142.59 18.2832 141.972 18.1888 141.354 18C140.735 17.8047 140.201 17.5703 139.752 17.2969L139.332 18.0098H138.551L138.414 13.2637H139.205C139.368 13.8496 139.557 14.3802 139.771 14.8555C139.993 15.3242 140.283 15.7637 140.641 16.1738C140.979 16.5579 141.373 16.8639 141.822 17.0918C142.278 17.3197 142.805 17.4336 143.404 17.4336C143.854 17.4336 144.244 17.375 144.576 17.2578C144.915 17.1406 145.188 16.9746 145.396 16.7598C145.605 16.5449 145.758 16.2943 145.855 16.0078C145.96 15.7148 146.012 15.3796 146.012 15.002C146.012 14.4486 145.855 13.9342 145.543 13.459C145.23 12.9772 144.765 12.6126 144.146 12.3652C143.723 12.196 143.238 12.0104 142.691 11.8086C142.145 11.6003 141.673 11.4049 141.275 11.2227C140.494 10.8711 139.885 10.4121 139.449 9.8457C139.02 9.27279 138.805 8.52734 138.805 7.60938C138.805 7.08203 138.912 6.59049 139.127 6.13477C139.342 5.67904 139.648 5.27214 140.045 4.91406C140.423 4.57552 140.868 4.31185 141.383 4.12305C141.897 3.92773 142.434 3.83008 142.994 3.83008C143.632 3.83008 144.202 3.92773 144.703 4.12305C145.211 4.31836 145.673 4.54622 146.09 4.80664L146.49 4.14258H147.271L147.35 8.74219H146.559C146.415 8.21484 146.253 7.71029 146.07 7.22852C145.895 6.74674 145.663 6.31055 145.377 5.91992C145.097 5.54232 144.755 5.24284 144.352 5.02148C143.948 4.79362 143.453 4.67969 142.867 4.67969C142.249 4.67969 141.721 4.87826 141.285 5.27539C140.849 5.67253 140.631 6.15755 140.631 6.73047C140.631 7.32943 140.771 7.82747 141.051 8.22461C141.331 8.61523 141.738 8.9375 142.271 9.19141C142.747 9.41927 143.212 9.61784 143.668 9.78711C144.13 9.94987 144.576 10.1257 145.006 10.3145C145.396 10.4837 145.771 10.6758 146.129 10.8906C146.493 11.1055 146.809 11.3561 147.076 11.6426ZM156.577 17.5801C156.154 17.7559 155.753 17.9023 155.376 18.0195C154.998 18.1432 154.536 18.2051 153.989 18.2051C153.182 18.2051 152.612 18.0033 152.28 17.5996C151.955 17.1895 151.792 16.6133 151.792 15.8711V9.34766H150.054V8.41016H151.831V5.41211H153.608V8.41016H156.372V9.34766H153.628V14.7285C153.628 15.1322 153.641 15.4707 153.667 15.7441C153.699 16.0111 153.771 16.2454 153.882 16.4473C153.986 16.6361 154.142 16.7793 154.35 16.877C154.559 16.9746 154.839 17.0234 155.19 17.0234C155.353 17.0234 155.591 17.0104 155.903 16.9844C156.222 16.9518 156.447 16.9128 156.577 16.8672V17.5801ZM166.117 9.61133C166.117 9.94336 166.035 10.2396 165.873 10.5C165.71 10.7539 165.459 10.8809 165.121 10.8809C164.756 10.8809 164.476 10.7865 164.281 10.5977C164.092 10.4089 163.998 10.2005 163.998 9.97266C163.998 9.82943 164.007 9.69922 164.027 9.58203C164.053 9.46484 164.076 9.34766 164.095 9.23047C163.789 9.23047 163.431 9.35417 163.021 9.60156C162.611 9.84896 162.263 10.2005 161.976 10.6562V16.2617C161.976 16.4896 162.018 16.6751 162.103 16.8184C162.194 16.9616 162.334 17.069 162.523 17.1406C162.686 17.2057 162.894 17.2546 163.148 17.2871C163.408 17.3197 163.633 17.3424 163.822 17.3555V18H158.744V17.3555C158.893 17.3424 159.046 17.3294 159.203 17.3164C159.365 17.3034 159.505 17.2773 159.623 17.2383C159.805 17.1797 159.938 17.0788 160.023 16.9355C160.114 16.7858 160.16 16.5938 160.16 16.3594V10.4121C160.16 10.2103 160.111 10.0117 160.013 9.81641C159.922 9.62109 159.792 9.46484 159.623 9.34766C159.499 9.26953 159.352 9.21419 159.183 9.18164C159.014 9.14258 158.832 9.11654 158.636 9.10352V8.46875L161.839 8.25391L161.976 8.39062V9.74805H162.025C162.429 9.2207 162.878 8.82031 163.373 8.54688C163.867 8.27344 164.32 8.13672 164.73 8.13672C165.14 8.13672 165.472 8.27018 165.726 8.53711C165.987 8.80404 166.117 9.16211 166.117 9.61133ZM176.702 15.7344C176.298 16.5026 175.758 17.1146 175.08 17.5703C174.403 18.026 173.625 18.2539 172.746 18.2539C171.972 18.2539 171.291 18.1172 170.705 17.8438C170.126 17.5703 169.648 17.1992 169.27 16.7305C168.892 16.2617 168.609 15.7148 168.42 15.0898C168.238 14.4648 168.147 13.804 168.147 13.1074C168.147 12.4824 168.245 11.8704 168.44 11.2715C168.642 10.666 168.935 10.1224 169.319 9.64062C169.69 9.17839 170.149 8.80729 170.696 8.52734C171.249 8.24089 171.868 8.09766 172.551 8.09766C173.254 8.09766 173.857 8.20833 174.358 8.42969C174.859 8.65104 175.266 8.95378 175.579 9.33789C175.878 9.70247 176.099 10.1322 176.243 10.627C176.392 11.1217 176.467 11.6589 176.467 12.2383V12.8828H170.09C170.09 13.5143 170.149 14.0872 170.266 14.6016C170.39 15.1159 170.582 15.5684 170.842 15.959C171.096 16.3366 171.428 16.6361 171.838 16.8574C172.248 17.0723 172.737 17.1797 173.303 17.1797C173.883 17.1797 174.381 17.0462 174.797 16.7793C175.22 16.5059 175.627 16.0176 176.018 15.3145L176.702 15.7344ZM174.543 12.0625C174.543 11.6979 174.511 11.3073 174.446 10.8906C174.387 10.474 174.289 10.1257 174.153 9.8457C174.003 9.54622 173.798 9.30208 173.537 9.11328C173.277 8.92448 172.942 8.83008 172.532 8.83008C171.848 8.83008 171.278 9.11654 170.823 9.68945C170.373 10.2559 170.129 11.0469 170.09 12.0625H174.543ZM187.57 15.7344C187.166 16.5026 186.626 17.1146 185.948 17.5703C185.271 18.026 184.493 18.2539 183.614 18.2539C182.84 18.2539 182.159 18.1172 181.573 17.8438C180.994 17.5703 180.515 17.1992 180.138 16.7305C179.76 16.2617 179.477 15.7148 179.288 15.0898C179.106 14.4648 179.015 13.804 179.015 13.1074C179.015 12.4824 179.113 11.8704 179.308 11.2715C179.51 10.666 179.803 10.1224 180.187 9.64062C180.558 9.17839 181.017 8.80729 181.564 8.52734C182.117 8.24089 182.736 8.09766 183.419 8.09766C184.122 8.09766 184.724 8.20833 185.226 8.42969C185.727 8.65104 186.134 8.95378 186.446 9.33789C186.746 9.70247 186.967 10.1322 187.111 10.627C187.26 11.1217 187.335 11.6589 187.335 12.2383V12.8828H180.958C180.958 13.5143 181.017 14.0872 181.134 14.6016C181.258 15.1159 181.45 15.5684 181.71 15.959C181.964 16.3366 182.296 16.6361 182.706 16.8574C183.116 17.0723 183.605 17.1797 184.171 17.1797C184.751 17.1797 185.249 17.0462 185.665 16.7793C186.088 16.5059 186.495 16.0176 186.886 15.3145L187.57 15.7344ZM185.411 12.0625C185.411 11.6979 185.379 11.3073 185.314 10.8906C185.255 10.474 185.157 10.1257 185.021 9.8457C184.871 9.54622 184.666 9.30208 184.405 9.11328C184.145 8.92448 183.81 8.83008 183.4 8.83008C182.716 8.83008 182.146 9.11654 181.691 9.68945C181.241 10.2559 180.997 11.0469 180.958 12.0625H185.411ZM195.83 17.5801C195.407 17.7559 195.007 17.9023 194.629 18.0195C194.251 18.1432 193.789 18.2051 193.242 18.2051C192.435 18.2051 191.865 18.0033 191.533 17.5996C191.208 17.1895 191.045 16.6133 191.045 15.8711V9.34766H189.307V8.41016H191.084V5.41211H192.861V8.41016H195.625V9.34766H192.881V14.7285C192.881 15.1322 192.894 15.4707 192.92 15.7441C192.952 16.0111 193.024 16.2454 193.135 16.4473C193.239 16.6361 193.395 16.7793 193.604 16.877C193.812 16.9746 194.092 17.0234 194.443 17.0234C194.606 17.0234 194.844 17.0104 195.156 16.9844C195.475 16.9518 195.7 16.9128 195.83 16.8672V17.5801ZM201.483 17.6582C201.483 18.127 201.376 18.5697 201.161 18.9863C200.953 19.403 200.712 19.7611 200.438 20.0605C200.158 20.373 199.862 20.6497 199.55 20.8906C199.237 21.1315 198.951 21.3203 198.69 21.457L198.241 20.8027C198.554 20.6074 198.833 20.4121 199.081 20.2168C199.328 20.0215 199.53 19.8262 199.686 19.6309C199.882 19.403 200.048 19.1556 200.184 18.8887C200.321 18.6217 200.409 18.319 200.448 17.9805H199.95C199.514 17.9805 199.172 17.8665 198.925 17.6387C198.684 17.4108 198.563 17.1048 198.563 16.7207C198.563 16.4473 198.674 16.1836 198.895 15.9297C199.117 15.6693 199.419 15.5391 199.804 15.5391C200.363 15.5391 200.783 15.7279 201.063 16.1055C201.343 16.4766 201.483 16.9941 201.483 17.6582ZM220.69 11.5449C221.093 11.8184 221.429 12.1764 221.696 12.6191C221.963 13.0618 222.096 13.599 222.096 14.2305C222.096 14.875 221.956 15.4349 221.676 15.9102C221.396 16.3854 221.032 16.776 220.582 17.082C220.146 17.3815 219.651 17.6094 219.098 17.7656C218.551 17.9219 217.985 18 217.399 18H210.836V17.3066C210.993 17.2936 211.22 17.2676 211.52 17.2285C211.819 17.1829 212.034 17.1309 212.164 17.0723C212.366 16.9811 212.51 16.8607 212.594 16.7109C212.679 16.5547 212.721 16.3561 212.721 16.1152V6.1543C212.721 5.93294 212.682 5.73763 212.604 5.56836C212.532 5.39909 212.386 5.26237 212.164 5.1582C211.969 5.06055 211.751 4.98568 211.51 4.93359C211.269 4.88151 211.067 4.84896 210.905 4.83594V4.14258H217.301C217.796 4.14258 218.268 4.19141 218.717 4.28906C219.173 4.38672 219.606 4.55924 220.016 4.80664C220.4 5.03451 220.716 5.34375 220.963 5.73438C221.211 6.125 221.334 6.60026 221.334 7.16016C221.334 7.64844 221.246 8.08464 221.071 8.46875C220.895 8.84635 220.648 9.17188 220.329 9.44531C220.029 9.70573 219.684 9.92708 219.293 10.1094C218.909 10.2852 218.493 10.4219 218.043 10.5195V10.6074C218.441 10.653 218.883 10.7539 219.371 10.9102C219.866 11.0599 220.306 11.2715 220.69 11.5449ZM218.336 9.45508C218.577 9.17513 218.743 8.86914 218.834 8.53711C218.932 8.20508 218.981 7.8112 218.981 7.35547C218.981 6.59375 218.773 5.99805 218.356 5.56836C217.939 5.13216 217.282 4.91406 216.383 4.91406C216.175 4.91406 215.911 4.92057 215.592 4.93359C215.28 4.9401 215.016 4.94661 214.801 4.95312V10.2754H216.041C216.575 10.2754 217.031 10.207 217.409 10.0703C217.793 9.93359 218.102 9.72852 218.336 9.45508ZM219.684 13.8789C219.684 13.0586 219.407 12.3848 218.854 11.8574C218.307 11.3301 217.523 11.0664 216.5 11.0664C216.084 11.0664 215.732 11.0729 215.446 11.0859C215.159 11.0924 214.944 11.099 214.801 11.1055V15.9883C214.801 16.3984 214.967 16.7077 215.299 16.916C215.631 17.1243 216.093 17.2285 216.686 17.2285C217.656 17.2285 218.398 16.9453 218.913 16.3789C219.427 15.8125 219.684 14.9792 219.684 13.8789ZM234.282 13.0879C234.282 13.765 234.175 14.4323 233.96 15.0898C233.745 15.7409 233.439 16.2943 233.042 16.75C232.593 17.2708 232.072 17.6582 231.48 17.9121C230.887 18.166 230.223 18.293 229.488 18.293C228.876 18.293 228.293 18.179 227.739 17.9512C227.186 17.7168 226.695 17.3783 226.265 16.9355C225.842 16.4993 225.503 15.9688 225.249 15.3438C225.002 14.7122 224.878 14.0059 224.878 13.2246C224.878 11.7207 225.314 10.4902 226.187 9.5332C227.066 8.57617 228.215 8.09766 229.634 8.09766C230.982 8.09766 232.092 8.55339 232.964 9.46484C233.843 10.3698 234.282 11.5775 234.282 13.0879ZM232.261 13.1074C232.261 12.6191 232.212 12.1048 232.114 11.5645C232.017 11.0176 231.87 10.5553 231.675 10.1777C231.467 9.77409 231.193 9.45182 230.855 9.21094C230.516 8.96354 230.103 8.83984 229.614 8.83984C229.113 8.83984 228.683 8.96354 228.325 9.21094C227.974 9.45833 227.687 9.79688 227.466 10.2266C227.258 10.6237 227.111 11.0762 227.027 11.584C226.942 12.0918 226.9 12.5833 226.9 13.0586C226.9 13.6836 226.948 14.263 227.046 14.7969C227.15 15.3242 227.313 15.7962 227.534 16.2129C227.756 16.6296 228.032 16.9583 228.364 17.1992C228.703 17.4336 229.12 17.5508 229.614 17.5508C230.428 17.5508 231.073 17.1569 231.548 16.3691C232.023 15.5814 232.261 14.4941 232.261 13.1074ZM243.236 13.2832C243.503 13.5176 243.708 13.7878 243.852 14.0938C243.995 14.3997 244.066 14.7741 244.066 15.2168C244.066 16.1087 243.731 16.8379 243.061 17.4043C242.396 17.9707 241.534 18.2539 240.473 18.2539C239.913 18.2539 239.395 18.153 238.92 17.9512C238.451 17.7493 238.116 17.5638 237.914 17.3945L237.719 18.0293H236.986L236.889 14.6797H237.562C237.615 14.9336 237.725 15.2298 237.895 15.5684C238.064 15.9069 238.269 16.2129 238.51 16.4863C238.764 16.7728 239.066 17.0137 239.418 17.209C239.776 17.4043 240.176 17.502 240.619 17.502C241.244 17.502 241.726 17.362 242.064 17.082C242.403 16.7956 242.572 16.3887 242.572 15.8613C242.572 15.5879 242.517 15.3535 242.406 15.1582C242.302 14.9564 242.146 14.7806 241.938 14.6309C241.723 14.4811 241.459 14.3477 241.146 14.2305C240.834 14.1068 240.486 13.9863 240.102 13.8691C239.796 13.778 239.454 13.6543 239.076 13.498C238.705 13.3353 238.386 13.1465 238.119 12.9316C237.833 12.7038 237.598 12.4238 237.416 12.0918C237.234 11.7598 237.143 11.3691 237.143 10.9199C237.143 10.1322 237.436 9.46484 238.021 8.91797C238.607 8.37109 239.392 8.09766 240.375 8.09766C240.753 8.09766 241.137 8.14648 241.527 8.24414C241.924 8.3418 242.247 8.45898 242.494 8.5957L242.719 8.08789H243.422L243.568 11.1836H242.895C242.758 10.4935 242.462 9.93359 242.006 9.50391C241.557 9.06771 241.007 8.84961 240.355 8.84961C239.822 8.84961 239.402 8.98307 239.096 9.25C238.79 9.51693 238.637 9.83919 238.637 10.2168C238.637 10.5098 238.686 10.7539 238.783 10.9492C238.887 11.1445 239.04 11.3105 239.242 11.4473C239.438 11.5775 239.682 11.7012 239.975 11.8184C240.274 11.929 240.642 12.056 241.078 12.1992C241.508 12.3359 241.911 12.4954 242.289 12.6777C242.673 12.86 242.989 13.0618 243.236 13.2832ZM252.679 17.5801C252.255 17.7559 251.855 17.9023 251.477 18.0195C251.1 18.1432 250.637 18.2051 250.091 18.2051C249.283 18.2051 248.714 18.0033 248.382 17.5996C248.056 17.1895 247.893 16.6133 247.893 15.8711V9.34766H246.155V8.41016H247.932V5.41211H249.71V8.41016H252.473V9.34766H249.729V14.7285C249.729 15.1322 249.742 15.4707 249.768 15.7441C249.801 16.0111 249.873 16.2454 249.983 16.4473C250.087 16.6361 250.244 16.7793 250.452 16.877C250.66 16.9746 250.94 17.0234 251.292 17.0234C251.455 17.0234 251.692 17.0104 252.005 16.9844C252.324 16.9518 252.548 16.9128 252.679 16.8672V17.5801ZM264.23 13.0879C264.23 13.765 264.123 14.4323 263.908 15.0898C263.693 15.7409 263.387 16.2943 262.99 16.75C262.541 17.2708 262.02 17.6582 261.427 17.9121C260.835 18.166 260.171 18.293 259.435 18.293C258.823 18.293 258.24 18.179 257.687 17.9512C257.134 17.7168 256.642 17.3783 256.212 16.9355C255.789 16.4993 255.451 15.9688 255.197 15.3438C254.949 14.7122 254.826 14.0059 254.826 13.2246C254.826 11.7207 255.262 10.4902 256.134 9.5332C257.013 8.57617 258.162 8.09766 259.582 8.09766C260.929 8.09766 262.039 8.55339 262.912 9.46484C263.791 10.3698 264.23 11.5775 264.23 13.0879ZM262.209 13.1074C262.209 12.6191 262.16 12.1048 262.062 11.5645C261.964 11.0176 261.818 10.5553 261.623 10.1777C261.414 9.77409 261.141 9.45182 260.802 9.21094C260.464 8.96354 260.05 8.83984 259.562 8.83984C259.061 8.83984 258.631 8.96354 258.273 9.21094C257.921 9.45833 257.635 9.79688 257.414 10.2266C257.205 10.6237 257.059 11.0762 256.974 11.584C256.89 12.0918 256.847 12.5833 256.847 13.0586C256.847 13.6836 256.896 14.263 256.994 14.7969C257.098 15.3242 257.261 15.7962 257.482 16.2129C257.703 16.6296 257.98 16.9583 258.312 17.1992C258.651 17.4336 259.067 17.5508 259.562 17.5508C260.376 17.5508 261.02 17.1569 261.496 16.3691C261.971 15.5814 262.209 14.4941 262.209 13.1074ZM277.461 18H272.745V17.3555C272.894 17.3424 273.057 17.3294 273.233 17.3164C273.415 17.3034 273.565 17.2773 273.682 17.2383C273.864 17.1797 273.998 17.0788 274.082 16.9355C274.174 16.7858 274.219 16.5938 274.219 16.3594V11.4082C274.219 10.7246 274.056 10.1973 273.731 9.82617C273.412 9.45508 273.021 9.26953 272.559 9.26953C272.214 9.26953 271.898 9.32487 271.612 9.43555C271.325 9.53971 271.071 9.66992 270.85 9.82617C270.635 9.97591 270.463 10.1387 270.332 10.3145C270.209 10.4837 270.118 10.6204 270.059 10.7246V16.2617C270.059 16.4831 270.105 16.6654 270.196 16.8086C270.287 16.9518 270.424 17.0625 270.606 17.1406C270.743 17.2057 270.889 17.2546 271.045 17.2871C271.208 17.3197 271.374 17.3424 271.543 17.3555V18H266.827V17.3555C266.976 17.3424 267.129 17.3294 267.286 17.3164C267.448 17.3034 267.588 17.2773 267.705 17.2383C267.888 17.1797 268.021 17.0788 268.106 16.9355C268.197 16.7858 268.243 16.5938 268.243 16.3594V10.4121C268.243 10.1908 268.194 9.98893 268.096 9.80664C268.005 9.61784 267.875 9.46484 267.705 9.34766C267.582 9.26953 267.435 9.21419 267.266 9.18164C267.097 9.14258 266.914 9.11654 266.719 9.10352V8.46875L269.922 8.25391L270.059 8.39062V9.74805H270.108C270.264 9.5918 270.459 9.40625 270.694 9.19141C270.928 8.97005 271.149 8.79102 271.358 8.6543C271.599 8.49805 271.885 8.36784 272.217 8.26367C272.549 8.15951 272.924 8.10742 273.34 8.10742C274.265 8.10742 274.948 8.39714 275.391 8.97656C275.84 9.54948 276.065 10.3145 276.065 11.2715V16.2812C276.065 16.5091 276.104 16.6947 276.182 16.8379C276.26 16.9746 276.394 17.082 276.582 17.1602C276.739 17.2253 276.872 17.2708 276.983 17.2969C277.1 17.3229 277.26 17.3424 277.461 17.3555V18ZM48.8457 44.2031C47.0684 43.9818 45.6719 43.0866 44.6562 41.5176C43.6471 39.9486 43.1426 37.8359 43.1426 35.1797C43.1426 32.4779 43.6471 30.3392 44.6562 28.7637C45.6719 27.1816 47.0684 26.2734 48.8457 26.0391V26.8496C47.5957 27.0775 46.6452 27.875 45.9941 29.2422C45.3431 30.6094 45.0176 32.5951 45.0176 35.1992C45.0176 37.6797 45.3366 39.61 45.9746 40.9902C46.6126 42.3639 47.5697 43.168 48.8457 43.4023V44.2031ZM59.9578 38.7344C59.5542 39.5026 59.0138 40.1146 58.3367 40.5703C57.6596 41.026 56.8816 41.2539 56.0027 41.2539C55.228 41.2539 54.5477 41.1172 53.9617 40.8438C53.3823 40.5703 52.9038 40.1992 52.5262 39.7305C52.1486 39.2617 51.8654 38.7148 51.6766 38.0898C51.4943 37.4648 51.4031 36.804 51.4031 36.1074C51.4031 35.4824 51.5008 34.8704 51.6961 34.2715C51.8979 33.666 52.1909 33.1224 52.575 32.6406C52.9461 32.1784 53.4051 31.8073 53.952 31.5273C54.5053 31.2409 55.1238 31.0977 55.8074 31.0977C56.5105 31.0977 57.1128 31.2083 57.6141 31.4297C58.1154 31.651 58.5223 31.9538 58.8348 32.3379C59.1342 32.7025 59.3556 33.1322 59.4988 33.627C59.6486 34.1217 59.7234 34.6589 59.7234 35.2383V35.8828H53.3465C53.3465 36.5143 53.4051 37.0872 53.5223 37.6016C53.646 38.1159 53.838 38.5684 54.0984 38.959C54.3523 39.3366 54.6844 39.6361 55.0945 39.8574C55.5047 40.0723 55.993 40.1797 56.5594 40.1797C57.1388 40.1797 57.6368 40.0462 58.0535 39.7793C58.4767 39.5059 58.8836 39.0176 59.2742 38.3145L59.9578 38.7344ZM57.7996 35.0625C57.7996 34.6979 57.7671 34.3073 57.702 33.8906C57.6434 33.474 57.5457 33.1257 57.409 32.8457C57.2592 32.5462 57.0542 32.3021 56.7937 32.1133C56.5333 31.9245 56.198 31.8301 55.7879 31.8301C55.1043 31.8301 54.5346 32.1165 54.0789 32.6895C53.6297 33.2559 53.3855 34.0469 53.3465 35.0625H57.7996ZM72.9059 41H68.1891V40.3555C68.3388 40.3424 68.5016 40.3294 68.6773 40.3164C68.8596 40.3034 69.0094 40.2773 69.1266 40.2383C69.3089 40.1797 69.4423 40.0788 69.527 39.9355C69.6181 39.7858 69.6637 39.5938 69.6637 39.3594V34.4082C69.6637 33.7246 69.5009 33.1973 69.1754 32.8262C68.8564 32.4551 68.4658 32.2695 68.0035 32.2695C67.6585 32.2695 67.3427 32.3249 67.0562 32.4355C66.7698 32.5397 66.5159 32.6699 66.2945 32.8262C66.0797 32.9759 65.9072 33.1387 65.777 33.3145C65.6533 33.4837 65.5621 33.6204 65.5035 33.7246V39.2617C65.5035 39.4831 65.5491 39.6654 65.6402 39.8086C65.7314 39.9518 65.8681 40.0625 66.0504 40.1406C66.1871 40.2057 66.3336 40.2546 66.4898 40.2871C66.6526 40.3197 66.8186 40.3424 66.9879 40.3555V41H62.2711V40.3555C62.4208 40.3424 62.5738 40.3294 62.7301 40.3164C62.8928 40.3034 63.0328 40.2773 63.15 40.2383C63.3323 40.1797 63.4658 40.0788 63.5504 39.9355C63.6415 39.7858 63.6871 39.5938 63.6871 39.3594V33.4121C63.6871 33.1908 63.6383 32.9889 63.5406 32.8066C63.4495 32.6178 63.3193 32.4648 63.15 32.3477C63.0263 32.2695 62.8798 32.2142 62.7105 32.1816C62.5413 32.1426 62.359 32.1165 62.1637 32.1035V31.4688L65.3668 31.2539L65.5035 31.3906V32.748H65.5523C65.7086 32.5918 65.9039 32.4062 66.1383 32.1914C66.3727 31.9701 66.594 31.791 66.8023 31.6543C67.0432 31.498 67.3297 31.3678 67.6617 31.2637C67.9937 31.1595 68.3681 31.1074 68.7848 31.1074C69.7092 31.1074 70.3928 31.3971 70.8355 31.9766C71.2848 32.5495 71.5094 33.3145 71.5094 34.2715V39.2812C71.5094 39.5091 71.5484 39.6947 71.6266 39.8379C71.7047 39.9746 71.8382 40.082 72.027 40.1602C72.1832 40.2253 72.3167 40.2708 72.4273 40.2969C72.5445 40.3229 72.704 40.3424 72.9059 40.3555V41ZM81.2348 40.5801C80.8116 40.7559 80.4112 40.9023 80.0336 41.0195C79.656 41.1432 79.1937 41.2051 78.6469 41.2051C77.8396 41.2051 77.2699 41.0033 76.9379 40.5996C76.6124 40.1895 76.4496 39.6133 76.4496 38.8711V32.3477H74.7113V31.4102H76.4887V28.4121H78.266V31.4102H81.0297V32.3477H78.2855V37.7285C78.2855 38.1322 78.2986 38.4707 78.3246 38.7441C78.3572 39.0111 78.4288 39.2454 78.5395 39.4473C78.6436 39.6361 78.7999 39.7793 79.0082 39.877C79.2165 39.9746 79.4965 40.0234 79.848 40.0234C80.0108 40.0234 80.2484 40.0104 80.5609 39.9844C80.8799 39.9518 81.1046 39.9128 81.2348 39.8672V40.5801ZM90.7746 32.6113C90.7746 32.9434 90.6932 33.2396 90.5305 33.5C90.3677 33.7539 90.1171 33.8809 89.7785 33.8809C89.4139 33.8809 89.134 33.7865 88.9387 33.5977C88.7499 33.4089 88.6555 33.2005 88.6555 32.9727C88.6555 32.8294 88.6652 32.6992 88.6848 32.582C88.7108 32.4648 88.7336 32.3477 88.7531 32.2305C88.4471 32.2305 88.0891 32.3542 87.6789 32.6016C87.2687 32.849 86.9204 33.2005 86.634 33.6562V39.2617C86.634 39.4896 86.6763 39.6751 86.7609 39.8184C86.8521 39.9616 86.9921 40.069 87.1809 40.1406C87.3436 40.2057 87.552 40.2546 87.8059 40.2871C88.0663 40.3197 88.2909 40.3424 88.4797 40.3555V41H83.4016V40.3555C83.5513 40.3424 83.7043 40.3294 83.8605 40.3164C84.0233 40.3034 84.1633 40.2773 84.2805 40.2383C84.4628 40.1797 84.5962 40.0788 84.6809 39.9355C84.772 39.7858 84.8176 39.5938 84.8176 39.3594V33.4121C84.8176 33.2103 84.7687 33.0117 84.6711 32.8164C84.5799 32.6211 84.4497 32.4648 84.2805 32.3477C84.1568 32.2695 84.0103 32.2142 83.841 32.1816C83.6717 32.1426 83.4895 32.1165 83.2941 32.1035V31.4688L86.4973 31.2539L86.634 31.3906V32.748H86.6828C87.0865 32.2207 87.5357 31.8203 88.0305 31.5469C88.5253 31.2734 88.9777 31.1367 89.3879 31.1367C89.798 31.1367 90.1301 31.2702 90.384 31.5371C90.6444 31.804 90.7746 32.1621 90.7746 32.6113ZM101.926 40.8242C101.62 40.9349 101.35 41.0228 101.115 41.0879C100.887 41.1595 100.627 41.1953 100.334 41.1953C99.8262 41.1953 99.4193 41.0781 99.1133 40.8438C98.8138 40.6029 98.6217 40.2546 98.5371 39.7988H98.4785C98.0553 40.2676 97.5996 40.6257 97.1113 40.873C96.6296 41.1204 96.0469 41.2441 95.3633 41.2441C94.6406 41.2441 94.0449 41.0228 93.5762 40.5801C93.1139 40.1374 92.8828 39.5579 92.8828 38.8418C92.8828 38.4707 92.9349 38.1387 93.0391 37.8457C93.1432 37.5527 93.2995 37.2891 93.5078 37.0547C93.6706 36.8594 93.8854 36.6868 94.1523 36.5371C94.4193 36.3809 94.6699 36.2572 94.9043 36.166C95.1973 36.0553 95.7897 35.8503 96.6816 35.5508C97.5801 35.2513 98.1855 35.0169 98.498 34.8477V33.8809C98.498 33.7962 98.4785 33.6335 98.4395 33.3926C98.4069 33.1517 98.332 32.9238 98.2148 32.709C98.0846 32.4681 97.8991 32.2598 97.6582 32.084C97.4238 31.9017 97.0885 31.8105 96.6523 31.8105C96.3529 31.8105 96.0729 31.8626 95.8125 31.9668C95.5586 32.0645 95.3796 32.1686 95.2754 32.2793C95.2754 32.4095 95.3047 32.6016 95.3633 32.8555C95.4284 33.1094 95.4609 33.3438 95.4609 33.5586C95.4609 33.7865 95.3568 33.9948 95.1484 34.1836C94.9466 34.3724 94.6634 34.4668 94.2988 34.4668C93.9733 34.4668 93.7324 34.3529 93.5762 34.125C93.4264 33.8906 93.3516 33.6302 93.3516 33.3438C93.3516 33.0443 93.4557 32.7578 93.6641 32.4844C93.8789 32.2109 94.1556 31.9668 94.4941 31.752C94.7871 31.5697 95.1419 31.4167 95.5586 31.293C95.9753 31.1628 96.3822 31.0977 96.7793 31.0977C97.3262 31.0977 97.8014 31.1367 98.2051 31.2148C98.6152 31.2865 98.9863 31.446 99.3184 31.6934C99.6504 31.9342 99.901 32.263 100.07 32.6797C100.246 33.0898 100.334 33.6204 100.334 34.2715C100.334 35.2025 100.324 36.0293 100.305 36.752C100.285 37.4681 100.275 38.2526 100.275 39.1055C100.275 39.3594 100.318 39.5612 100.402 39.7109C100.493 39.8607 100.63 39.9876 100.812 40.0918C100.91 40.1504 101.063 40.1829 101.271 40.1895C101.486 40.196 101.704 40.1992 101.926 40.1992V40.8242ZM98.5176 35.668C97.9642 35.8307 97.4792 35.9902 97.0625 36.1465C96.6458 36.3027 96.2585 36.498 95.9004 36.7324C95.5749 36.9538 95.3177 37.2174 95.1289 37.5234C94.9401 37.8229 94.8457 38.181 94.8457 38.5977C94.8457 39.138 94.9857 39.5352 95.2656 39.7891C95.5521 40.043 95.9134 40.1699 96.3496 40.1699C96.8118 40.1699 97.2188 40.0592 97.5703 39.8379C97.9219 39.61 98.2181 39.3431 98.459 39.0371L98.5176 35.668ZM114.718 41H110.001V40.3555C110.151 40.3424 110.313 40.3294 110.489 40.3164C110.671 40.3034 110.821 40.2773 110.938 40.2383C111.121 40.1797 111.254 40.0788 111.339 39.9355C111.43 39.7858 111.475 39.5938 111.475 39.3594V34.4082C111.475 33.7246 111.313 33.1973 110.987 32.8262C110.668 32.4551 110.277 32.2695 109.815 32.2695C109.47 32.2695 109.154 32.3249 108.868 32.4355C108.582 32.5397 108.328 32.6699 108.106 32.8262C107.891 32.9759 107.719 33.1387 107.589 33.3145C107.465 33.4837 107.374 33.6204 107.315 33.7246V39.2617C107.315 39.4831 107.361 39.6654 107.452 39.8086C107.543 39.9518 107.68 40.0625 107.862 40.1406C107.999 40.2057 108.145 40.2546 108.302 40.2871C108.464 40.3197 108.63 40.3424 108.8 40.3555V41H104.083V40.3555C104.233 40.3424 104.386 40.3294 104.542 40.3164C104.705 40.3034 104.845 40.2773 104.962 40.2383C105.144 40.1797 105.277 40.0788 105.362 39.9355C105.453 39.7858 105.499 39.5938 105.499 39.3594V33.4121C105.499 33.1908 105.45 32.9889 105.352 32.8066C105.261 32.6178 105.131 32.4648 104.962 32.3477C104.838 32.2695 104.692 32.2142 104.522 32.1816C104.353 32.1426 104.171 32.1165 103.975 32.1035V31.4688L107.179 31.2539L107.315 31.3906V32.748H107.364C107.52 32.5918 107.716 32.4062 107.95 32.1914C108.184 31.9701 108.406 31.791 108.614 31.6543C108.855 31.498 109.141 31.3678 109.473 31.2637C109.805 31.1595 110.18 31.1074 110.596 31.1074C111.521 31.1074 112.205 31.3971 112.647 31.9766C113.096 32.5495 113.321 33.3145 113.321 34.2715V39.2812C113.321 39.5091 113.36 39.6947 113.438 39.8379C113.516 39.9746 113.65 40.082 113.839 40.1602C113.995 40.2253 114.128 40.2708 114.239 40.2969C114.356 40.3229 114.516 40.3424 114.718 40.3555V41ZM121.552 41.2539C120.159 41.2539 119.069 40.7917 118.281 39.8672C117.493 38.9427 117.099 37.7025 117.099 36.1465C117.099 35.4694 117.203 34.8379 117.412 34.252C117.627 33.6595 117.936 33.1224 118.339 32.6406C118.724 32.1784 119.205 31.8073 119.785 31.5273C120.364 31.2409 120.996 31.0977 121.679 31.0977C122.623 31.0977 123.392 31.3255 123.984 31.7812C124.576 32.2305 124.873 32.8457 124.873 33.627C124.873 33.9525 124.795 34.2422 124.638 34.4961C124.482 34.7435 124.225 34.8672 123.867 34.8672C123.483 34.8672 123.183 34.7695 122.968 34.5742C122.76 34.3789 122.656 34.1608 122.656 33.9199C122.656 33.627 122.695 33.3275 122.773 33.0215C122.851 32.709 122.897 32.4811 122.91 32.3379C122.793 32.1361 122.617 32.0026 122.382 31.9375C122.155 31.8659 121.907 31.8301 121.64 31.8301C121.328 31.8301 121.028 31.8984 120.742 32.0352C120.462 32.1654 120.188 32.4095 119.921 32.7676C119.681 33.0931 119.485 33.5326 119.336 34.0859C119.186 34.6393 119.111 35.3001 119.111 36.0684C119.111 37.2793 119.378 38.2689 119.912 39.0371C120.452 39.7988 121.158 40.1797 122.031 40.1797C122.662 40.1797 123.19 40.0267 123.613 39.7207C124.043 39.4147 124.44 38.9557 124.804 38.3438L125.429 38.7539C125 39.5221 124.433 40.1309 123.73 40.5801C123.027 41.0293 122.301 41.2539 121.552 41.2539ZM135.936 38.7344C135.532 39.5026 134.992 40.1146 134.315 40.5703C133.638 41.026 132.86 41.2539 131.981 41.2539C131.206 41.2539 130.526 41.1172 129.94 40.8438C129.36 40.5703 128.882 40.1992 128.504 39.7305C128.127 39.2617 127.843 38.7148 127.655 38.0898C127.472 37.4648 127.381 36.804 127.381 36.1074C127.381 35.4824 127.479 34.8704 127.674 34.2715C127.876 33.666 128.169 33.1224 128.553 32.6406C128.924 32.1784 129.383 31.8073 129.93 31.5273C130.483 31.2409 131.102 31.0977 131.786 31.0977C132.489 31.0977 133.091 31.2083 133.592 31.4297C134.093 31.651 134.5 31.9538 134.813 32.3379C135.112 32.7025 135.334 33.1322 135.477 33.627C135.627 34.1217 135.702 34.6589 135.702 35.2383V35.8828H129.325C129.325 36.5143 129.383 37.0872 129.5 37.6016C129.624 38.1159 129.816 38.5684 130.077 38.959C130.33 39.3366 130.662 39.6361 131.073 39.8574C131.483 40.0723 131.971 40.1797 132.537 40.1797C133.117 40.1797 133.615 40.0462 134.032 39.7793C134.455 39.5059 134.862 39.0176 135.252 38.3145L135.936 38.7344ZM133.778 35.0625C133.778 34.6979 133.745 34.3073 133.68 33.8906C133.621 33.474 133.524 33.1257 133.387 32.8457C133.237 32.5462 133.032 32.3021 132.772 32.1133C132.511 31.9245 132.176 31.8301 131.766 31.8301C131.082 31.8301 130.513 32.1165 130.057 32.6895C129.608 33.2559 129.364 34.0469 129.325 35.0625H133.778ZM151.441 27.0449C151.441 27.3379 151.363 27.5853 151.207 27.7871C151.051 27.9889 150.813 28.0898 150.494 28.0898C150.292 28.0898 150.113 28.0475 149.957 27.9629C149.807 27.8783 149.667 27.7643 149.537 27.6211C149.407 27.4779 149.286 27.3151 149.176 27.1328C149.065 26.9505 148.971 26.804 148.893 26.6934C148.456 26.7129 148.118 27.0189 147.877 27.6113C147.643 28.1973 147.525 29.1348 147.525 30.4238V31.4102H150.006V32.3477H147.525V39.2617C147.525 39.4896 147.568 39.6751 147.652 39.8184C147.743 39.9616 147.883 40.069 148.072 40.1406C148.229 40.1992 148.437 40.248 148.697 40.2871C148.958 40.3197 149.182 40.3424 149.371 40.3555V41H144.293V40.3555C144.443 40.3424 144.596 40.3294 144.752 40.3164C144.915 40.3034 145.055 40.2773 145.172 40.2383C145.354 40.1797 145.488 40.0788 145.572 39.9355C145.663 39.7858 145.709 39.5938 145.709 39.3594V32.3477H143.805V31.4102H145.709V30.7949C145.709 29.3301 146.087 28.1452 146.842 27.2402C147.604 26.3288 148.554 25.873 149.693 25.873C150.273 25.873 150.709 25.987 151.002 26.2148C151.295 26.4427 151.441 26.7194 151.441 27.0449ZM159.35 32.6113C159.35 32.9434 159.269 33.2396 159.106 33.5C158.943 33.7539 158.693 33.8809 158.354 33.8809C157.99 33.8809 157.71 33.7865 157.514 33.5977C157.326 33.4089 157.231 33.2005 157.231 32.9727C157.231 32.8294 157.241 32.6992 157.261 32.582C157.287 32.4648 157.309 32.3477 157.329 32.2305C157.023 32.2305 156.665 32.3542 156.255 32.6016C155.845 32.849 155.496 33.2005 155.21 33.6562V39.2617C155.21 39.4896 155.252 39.6751 155.337 39.8184C155.428 39.9616 155.568 40.069 155.757 40.1406C155.919 40.2057 156.128 40.2546 156.382 40.2871C156.642 40.3197 156.867 40.3424 157.055 40.3555V41H151.977V40.3555C152.127 40.3424 152.28 40.3294 152.436 40.3164C152.599 40.3034 152.739 40.2773 152.856 40.2383C153.039 40.1797 153.172 40.0788 153.257 39.9355C153.348 39.7858 153.393 39.5938 153.393 39.3594V33.4121C153.393 33.2103 153.345 33.0117 153.247 32.8164C153.156 32.6211 153.026 32.4648 152.856 32.3477C152.733 32.2695 152.586 32.2142 152.417 32.1816C152.248 32.1426 152.065 32.1165 151.87 32.1035V31.4688L155.073 31.2539L155.21 31.3906V32.748H155.259C155.662 32.2207 156.111 31.8203 156.606 31.5469C157.101 31.2734 157.554 31.1367 157.964 31.1367C158.374 31.1367 158.706 31.2702 158.96 31.5371C159.22 31.804 159.35 32.1621 159.35 32.6113ZM170.765 36.0879C170.765 36.765 170.658 37.4323 170.443 38.0898C170.228 38.7409 169.922 39.2943 169.525 39.75C169.076 40.2708 168.555 40.6582 167.963 40.9121C167.37 41.166 166.706 41.293 165.97 41.293C165.358 41.293 164.776 41.179 164.222 40.9512C163.669 40.7168 163.177 40.3783 162.748 39.9355C162.324 39.4993 161.986 38.9688 161.732 38.3438C161.485 37.7122 161.361 37.0059 161.361 36.2246C161.361 34.7207 161.797 33.4902 162.67 32.5332C163.548 31.5762 164.698 31.0977 166.117 31.0977C167.464 31.0977 168.574 31.5534 169.447 32.4648C170.326 33.3698 170.765 34.5775 170.765 36.0879ZM168.744 36.1074C168.744 35.6191 168.695 35.1048 168.597 34.5645C168.5 34.0176 168.353 33.5553 168.158 33.1777C167.949 32.7741 167.676 32.4518 167.338 32.2109C166.999 31.9635 166.586 31.8398 166.097 31.8398C165.596 31.8398 165.166 31.9635 164.808 32.2109C164.457 32.4583 164.17 32.7969 163.949 33.2266C163.74 33.6237 163.594 34.0762 163.509 34.584C163.425 35.0918 163.382 35.5833 163.382 36.0586C163.382 36.6836 163.431 37.263 163.529 37.7969C163.633 38.3242 163.796 38.7962 164.017 39.2129C164.239 39.6296 164.515 39.9583 164.847 40.1992C165.186 40.4336 165.602 40.5508 166.097 40.5508C166.911 40.5508 167.556 40.1569 168.031 39.3691C168.506 38.5814 168.744 37.4941 168.744 36.1074ZM189.856 41H185.159V40.3555C185.308 40.3424 185.458 40.3294 185.608 40.3164C185.764 40.3034 185.901 40.2773 186.018 40.2383C186.2 40.1797 186.334 40.0788 186.418 39.9355C186.51 39.7858 186.555 39.5938 186.555 39.3594V34.3887C186.555 33.7116 186.399 33.1908 186.086 32.8262C185.78 32.4551 185.396 32.2695 184.934 32.2695C184.615 32.2695 184.316 32.3184 184.036 32.416C183.756 32.5137 183.498 32.6504 183.264 32.8262C183.075 32.9694 182.916 33.1257 182.786 33.2949C182.662 33.4577 182.567 33.5944 182.502 33.7051V39.2617C182.502 39.4896 182.541 39.6784 182.62 39.8281C182.698 39.9714 182.831 40.082 183.02 40.1602C183.17 40.2188 183.303 40.2643 183.42 40.2969C183.544 40.3229 183.704 40.3424 183.899 40.3555V41H179.299V40.3555C179.449 40.3424 179.592 40.3294 179.729 40.3164C179.872 40.3034 180.002 40.2773 180.12 40.2383C180.302 40.1797 180.435 40.0788 180.52 39.9355C180.611 39.7858 180.657 39.5938 180.657 39.3594V34.3887C180.657 33.7116 180.5 33.1908 180.188 32.8262C179.882 32.4551 179.498 32.2695 179.036 32.2695C178.717 32.2695 178.417 32.3216 178.137 32.4258C177.857 32.5234 177.6 32.6602 177.366 32.8359C177.177 32.9792 177.017 33.1419 176.887 33.3242C176.757 33.5 176.659 33.6335 176.594 33.7246V39.2422C176.594 39.4635 176.64 39.6491 176.731 39.7988C176.822 39.9486 176.959 40.0625 177.141 40.1406C177.278 40.2057 177.418 40.2546 177.561 40.2871C177.704 40.3197 177.864 40.3424 178.039 40.3555V41H173.362V40.3555C173.511 40.3424 173.664 40.3294 173.821 40.3164C173.983 40.3034 174.123 40.2773 174.241 40.2383C174.423 40.1797 174.556 40.0788 174.641 39.9355C174.732 39.7858 174.778 39.5938 174.778 39.3594V33.373C174.778 33.1647 174.729 32.9792 174.631 32.8164C174.54 32.6471 174.41 32.5039 174.241 32.3867C174.117 32.3086 173.964 32.2467 173.782 32.2012C173.599 32.1491 173.411 32.1165 173.215 32.1035V31.4688L176.438 31.2539L176.575 31.3906V32.7676H176.643C176.806 32.6048 177.004 32.4128 177.239 32.1914C177.473 31.9701 177.691 31.791 177.893 31.6543C178.121 31.498 178.404 31.3678 178.743 31.2637C179.088 31.1595 179.459 31.1074 179.856 31.1074C180.481 31.1074 181.018 31.2767 181.467 31.6152C181.916 31.9473 182.239 32.3509 182.434 32.8262C182.668 32.5983 182.873 32.3997 183.049 32.2305C183.232 32.0547 183.469 31.8691 183.762 31.6738C184.01 31.5046 184.299 31.3678 184.631 31.2637C184.97 31.1595 185.344 31.1074 185.754 31.1074C186.568 31.1074 187.213 31.3743 187.688 31.9082C188.163 32.4421 188.401 33.2624 188.401 34.3691V39.2617C188.401 39.4896 188.44 39.6784 188.518 39.8281C188.596 39.9714 188.73 40.082 188.918 40.1602C189.068 40.2188 189.215 40.2643 189.358 40.2969C189.508 40.3229 189.674 40.3424 189.856 40.3555V41ZM204.15 40.5801C203.727 40.7559 203.327 40.9023 202.949 41.0195C202.572 41.1432 202.109 41.2051 201.562 41.2051C200.755 41.2051 200.186 41.0033 199.854 40.5996C199.528 40.1895 199.365 39.6133 199.365 38.8711V32.3477H197.627V31.4102H199.404V28.4121H201.182V31.4102H203.945V32.3477H201.201V37.7285C201.201 38.1322 201.214 38.4707 201.24 38.7441C201.273 39.0111 201.344 39.2454 201.455 39.4473C201.559 39.6361 201.715 39.7793 201.924 39.877C202.132 39.9746 202.412 40.0234 202.764 40.0234C202.926 40.0234 203.164 40.0104 203.477 39.9844C203.796 39.9518 204.02 39.9128 204.15 39.8672V40.5801ZM216.776 41H212.05V40.3555C212.199 40.3424 212.365 40.3294 212.548 40.3164C212.73 40.3034 212.88 40.2773 212.997 40.2383C213.179 40.1797 213.313 40.0788 213.397 39.9355C213.488 39.7858 213.534 39.5938 213.534 39.3594V34.4082C213.534 33.7246 213.371 33.1973 213.046 32.8262C212.727 32.4551 212.336 32.2695 211.874 32.2695C211.535 32.2695 211.22 32.3249 210.927 32.4355C210.64 32.5397 210.383 32.6699 210.155 32.8262C209.934 32.9889 209.764 33.1517 209.647 33.3145C209.53 33.4772 209.439 33.6139 209.374 33.7246V39.2617C209.374 39.4831 209.416 39.6654 209.501 39.8086C209.592 39.9518 209.729 40.0625 209.911 40.1406C210.054 40.2057 210.201 40.2546 210.35 40.2871C210.507 40.3197 210.676 40.3424 210.858 40.3555V41H206.132V40.3555C206.281 40.3424 206.438 40.3294 206.6 40.3164C206.763 40.2969 206.9 40.2708 207.011 40.2383C207.193 40.1797 207.33 40.0788 207.421 39.9355C207.512 39.7858 207.557 39.5938 207.557 39.3594V28.1484C207.557 27.9271 207.505 27.7057 207.401 27.4844C207.304 27.263 207.173 27.097 207.011 26.9863C206.893 26.9017 206.685 26.8431 206.386 26.8105C206.093 26.7715 205.855 26.7454 205.673 26.7324V26.1074L209.237 25.8828L209.374 26.0293V32.748H209.413C209.628 32.5332 209.823 32.3444 209.999 32.1816C210.175 32.0124 210.406 31.8366 210.692 31.6543C210.94 31.498 211.229 31.3678 211.561 31.2637C211.9 31.1595 212.277 31.1074 212.694 31.1074C213.554 31.1074 214.214 31.3809 214.677 31.9277C215.139 32.4681 215.37 33.2493 215.37 34.2715V39.2812C215.37 39.5091 215.409 39.6947 215.487 39.8379C215.572 39.9746 215.708 40.082 215.897 40.1602C216.047 40.2188 216.18 40.2643 216.298 40.2969C216.421 40.3229 216.581 40.3424 216.776 40.3555V41ZM227.712 38.7344C227.309 39.5026 226.768 40.1146 226.091 40.5703C225.414 41.026 224.636 41.2539 223.757 41.2539C222.983 41.2539 222.302 41.1172 221.716 40.8438C221.137 40.5703 220.658 40.1992 220.281 39.7305C219.903 39.2617 219.62 38.7148 219.431 38.0898C219.249 37.4648 219.158 36.804 219.158 36.1074C219.158 35.4824 219.255 34.8704 219.451 34.2715C219.653 33.666 219.946 33.1224 220.33 32.6406C220.701 32.1784 221.16 31.8073 221.707 31.5273C222.26 31.2409 222.879 31.0977 223.562 31.0977C224.265 31.0977 224.867 31.2083 225.369 31.4297C225.87 31.651 226.277 31.9538 226.589 32.3379C226.889 32.7025 227.11 33.1322 227.254 33.627C227.403 34.1217 227.478 34.6589 227.478 35.2383V35.8828H221.101C221.101 36.5143 221.16 37.0872 221.277 37.6016C221.401 38.1159 221.593 38.5684 221.853 38.959C222.107 39.3366 222.439 39.6361 222.849 39.8574C223.259 40.0723 223.748 40.1797 224.314 40.1797C224.893 40.1797 225.392 40.0462 225.808 39.7793C226.231 39.5059 226.638 39.0176 227.029 38.3145L227.712 38.7344ZM225.554 35.0625C225.554 34.6979 225.522 34.3073 225.457 33.8906C225.398 33.474 225.3 33.1257 225.164 32.8457C225.014 32.5462 224.809 32.3021 224.548 32.1133C224.288 31.9245 223.953 31.8301 223.543 31.8301C222.859 31.8301 222.289 32.1165 221.834 32.6895C221.384 33.2559 221.14 34.0469 221.101 35.0625H225.554ZM242.407 36.2832C242.674 36.5176 242.879 36.7878 243.023 37.0938C243.166 37.3997 243.238 37.7741 243.238 38.2168C243.238 39.1087 242.902 39.8379 242.232 40.4043C241.568 40.9707 240.705 41.2539 239.644 41.2539C239.084 41.2539 238.566 41.153 238.091 40.9512C237.622 40.7493 237.287 40.5638 237.085 40.3945L236.89 41.0293H236.157L236.06 37.6797H236.734C236.786 37.9336 236.896 38.2298 237.066 38.5684C237.235 38.9069 237.44 39.2129 237.681 39.4863C237.935 39.7728 238.238 40.0137 238.589 40.209C238.947 40.4043 239.348 40.502 239.79 40.502C240.415 40.502 240.897 40.362 241.236 40.082C241.574 39.7956 241.743 39.3887 241.743 38.8613C241.743 38.5879 241.688 38.3535 241.577 38.1582C241.473 37.9564 241.317 37.7806 241.109 37.6309C240.894 37.4811 240.63 37.3477 240.318 37.2305C240.005 37.1068 239.657 36.9863 239.273 36.8691C238.967 36.778 238.625 36.6543 238.247 36.498C237.876 36.3353 237.557 36.1465 237.29 35.9316C237.004 35.7038 236.769 35.4238 236.587 35.0918C236.405 34.7598 236.314 34.3691 236.314 33.9199C236.314 33.1322 236.607 32.4648 237.193 31.918C237.779 31.3711 238.563 31.0977 239.546 31.0977C239.924 31.0977 240.308 31.1465 240.698 31.2441C241.096 31.3418 241.418 31.459 241.665 31.5957L241.89 31.0879H242.593L242.739 34.1836H242.066C241.929 33.4935 241.633 32.9336 241.177 32.5039C240.728 32.0677 240.178 31.8496 239.527 31.8496C238.993 31.8496 238.573 31.9831 238.267 32.25C237.961 32.5169 237.808 32.8392 237.808 33.2168C237.808 33.5098 237.857 33.7539 237.954 33.9492C238.058 34.1445 238.211 34.3105 238.413 34.4473C238.609 34.5775 238.853 34.7012 239.146 34.8184C239.445 34.929 239.813 35.056 240.249 35.1992C240.679 35.3359 241.083 35.4954 241.46 35.6777C241.844 35.86 242.16 36.0618 242.407 36.2832ZM251.85 40.5801C251.426 40.7559 251.026 40.9023 250.648 41.0195C250.271 41.1432 249.809 41.2051 249.262 41.2051C248.454 41.2051 247.885 41.0033 247.553 40.5996C247.227 40.1895 247.064 39.6133 247.064 38.8711V32.3477H245.326V31.4102H247.104V28.4121H248.881V31.4102H251.645V32.3477H248.9V37.7285C248.9 38.1322 248.913 38.4707 248.939 38.7441C248.972 39.0111 249.044 39.2454 249.154 39.4473C249.258 39.6361 249.415 39.7793 249.623 39.877C249.831 39.9746 250.111 40.0234 250.463 40.0234C250.626 40.0234 250.863 40.0104 251.176 39.9844C251.495 39.9518 251.719 39.9128 251.85 39.8672V40.5801ZM263.401 36.0879C263.401 36.765 263.294 37.4323 263.079 38.0898C262.864 38.7409 262.558 39.2943 262.161 39.75C261.712 40.2708 261.191 40.6582 260.598 40.9121C260.006 41.166 259.342 41.293 258.606 41.293C257.994 41.293 257.412 41.179 256.858 40.9512C256.305 40.7168 255.813 40.3783 255.384 39.9355C254.96 39.4993 254.622 38.9688 254.368 38.3438C254.121 37.7122 253.997 37.0059 253.997 36.2246C253.997 34.7207 254.433 33.4902 255.305 32.5332C256.184 31.5762 257.333 31.0977 258.753 31.0977C260.1 31.0977 261.21 31.5534 262.083 32.4648C262.962 33.3698 263.401 34.5775 263.401 36.0879ZM261.38 36.1074C261.38 35.6191 261.331 35.1048 261.233 34.5645C261.136 34.0176 260.989 33.5553 260.794 33.1777C260.585 32.7741 260.312 32.4518 259.973 32.2109C259.635 31.9635 259.221 31.8398 258.733 31.8398C258.232 31.8398 257.802 31.9635 257.444 32.2109C257.093 32.4583 256.806 32.7969 256.585 33.2266C256.376 33.6237 256.23 34.0762 256.145 34.584C256.061 35.0918 256.018 35.5833 256.018 36.0586C256.018 36.6836 256.067 37.263 256.165 37.7969C256.269 38.3242 256.432 38.7962 256.653 39.2129C256.874 39.6296 257.151 39.9583 257.483 40.1992C257.822 40.4336 258.238 40.5508 258.733 40.5508C259.547 40.5508 260.192 40.1569 260.667 39.3691C261.142 38.5814 261.38 37.4941 261.38 36.1074ZM273.371 32.6113C273.371 32.9434 273.289 33.2396 273.127 33.5C272.964 33.7539 272.713 33.8809 272.375 33.8809C272.01 33.8809 271.73 33.7865 271.535 33.5977C271.346 33.4089 271.252 33.2005 271.252 32.9727C271.252 32.8294 271.261 32.6992 271.281 32.582C271.307 32.4648 271.33 32.3477 271.349 32.2305C271.043 32.2305 270.685 32.3542 270.275 32.6016C269.865 32.849 269.517 33.2005 269.23 33.6562V39.2617C269.23 39.4896 269.272 39.6751 269.357 39.8184C269.448 39.9616 269.588 40.069 269.777 40.1406C269.94 40.2057 270.148 40.2546 270.402 40.2871C270.662 40.3197 270.887 40.3424 271.076 40.3555V41H265.998V40.3555C266.147 40.3424 266.3 40.3294 266.457 40.3164C266.619 40.3034 266.759 40.2773 266.877 40.2383C267.059 40.1797 267.192 40.0788 267.277 39.9355C267.368 39.7858 267.414 39.5938 267.414 39.3594V33.4121C267.414 33.2103 267.365 33.0117 267.267 32.8164C267.176 32.6211 267.046 32.4648 266.877 32.3477C266.753 32.2695 266.606 32.2142 266.437 32.1816C266.268 32.1426 266.086 32.1165 265.89 32.1035V31.4688L269.093 31.2539L269.23 31.3906V32.748H269.279C269.683 32.2207 270.132 31.8203 270.627 31.5469C271.121 31.2734 271.574 31.1367 271.984 31.1367C272.394 31.1367 272.726 31.2702 272.98 31.5371C273.24 31.804 273.371 32.1621 273.371 32.6113ZM283.955 38.7344C283.552 39.5026 283.011 40.1146 282.334 40.5703C281.657 41.026 280.879 41.2539 280 41.2539C279.226 41.2539 278.545 41.1172 277.959 40.8438C277.38 40.5703 276.901 40.1992 276.524 39.7305C276.146 39.2617 275.863 38.7148 275.674 38.0898C275.492 37.4648 275.401 36.804 275.401 36.1074C275.401 35.4824 275.498 34.8704 275.694 34.2715C275.896 33.666 276.189 33.1224 276.573 32.6406C276.944 32.1784 277.403 31.8073 277.95 31.5273C278.503 31.2409 279.121 31.0977 279.805 31.0977C280.508 31.0977 281.11 31.2083 281.612 31.4297C282.113 31.651 282.52 31.9538 282.832 32.3379C283.132 32.7025 283.353 33.1322 283.496 33.627C283.646 34.1217 283.721 34.6589 283.721 35.2383V35.8828H277.344C277.344 36.5143 277.403 37.0872 277.52 37.6016C277.644 38.1159 277.836 38.5684 278.096 38.959C278.35 39.3366 278.682 39.6361 279.092 39.8574C279.502 40.0723 279.991 40.1797 280.557 40.1797C281.136 40.1797 281.635 40.0462 282.051 39.7793C282.474 39.5059 282.881 39.0176 283.272 38.3145L283.955 38.7344ZM281.797 35.0625C281.797 34.6979 281.765 34.3073 281.7 33.8906C281.641 33.474 281.543 33.1257 281.407 32.8457C281.257 32.5462 281.052 32.3021 280.791 32.1133C280.531 31.9245 280.196 31.8301 279.786 31.8301C279.102 31.8301 278.532 32.1165 278.077 32.6895C277.627 33.2559 277.383 34.0469 277.344 35.0625H281.797ZM291.923 35.1797C291.923 37.8359 291.415 39.9486 290.4 41.5176C289.39 43.0866 287.997 43.9818 286.22 44.2031V43.4023C287.496 43.168 288.453 42.3639 289.091 40.9902C289.729 39.61 290.048 37.6797 290.048 35.1992C290.048 32.5951 289.723 30.6094 289.071 29.2422C288.42 27.875 287.47 27.0775 286.22 26.8496V26.0391C287.997 26.2734 289.39 27.1816 290.4 28.7637C291.415 30.3392 291.923 32.4779 291.923 35.1797Z" fill="#F1CDB3"/>
<path d="M11 6C4.93475 6 3.05176e-05 10.7852 3.05176e-05 16.6667C3.05176e-05 18.4323 0.455262 20.1829 1.32067 21.7357L10.3985 37.6562C10.5193 37.8685 10.7496 38 11 38C11.2504 38 11.4807 37.8685 11.6016 37.6562L20.6827 21.7304C21.5448 20.1829 22 18.4323 22 16.6666C22 10.7852 17.0653 6 11 6ZM19.4762 21.0905L11 35.9557L2.52717 21.0964C1.7732 19.7435 1.37507 18.2116 1.37507 16.6667C1.37507 11.5202 5.69278 7.33337 11 7.33337C16.3073 7.33337 20.625 11.5203 20.625 16.6667C20.625 18.2116 20.2269 19.7435 19.4762 21.0905Z" fill="#F1CDB3"/>
<path d="M11 11.3333C7.9674 11.3333 5.50008 13.7259 5.50008 16.6666C5.50008 19.6074 7.9674 22 11 22C14.0327 22 16.5 19.6074 16.5 16.6667C16.5 13.7259 14.0327 11.3333 11 11.3333ZM11 20.6667C8.72537 20.6667 6.87505 18.8724 6.87505 16.6667C6.87505 14.4609 8.72537 12.6667 11 12.6667C13.2747 12.6667 15.125 14.4609 15.125 16.6667C15.125 18.8724 13.2747 20.6667 11 20.6667Z" fill="#F1CDB3"/>
</svg>
