<svg width="349" height="43" viewBox="0 0 349 43" fill="none" xmlns="http://www.w3.org/2000/svg">
<rect width="349" height="43" rx="9" fill="#F1CDB3"/>
<path d="M70.9082 24.3281C70.9082 25.4219 70.4362 26.3626 69.4922 27.1504C68.5482 27.9382 67.3079 28.332 65.7715 28.332C64.3327 28.332 63.1803 27.9707 62.3145 27.248C61.4486 26.5254 61.0156 25.5944 61.0156 24.4551C61.0156 23.6152 61.2695 22.9154 61.7773 22.3555C62.2917 21.7891 63.0501 21.3105 64.0527 20.9199C63.2259 20.4577 62.6074 19.9499 62.1973 19.3965C61.7871 18.8431 61.582 18.2181 61.582 17.5215C61.582 16.4603 62.0312 15.5716 62.9297 14.8555C63.8346 14.1393 64.9154 13.7812 66.1719 13.7812C67.4284 13.7812 68.444 14.1198 69.2188 14.7969C70 15.474 70.3906 16.3236 70.3906 17.3457C70.3906 18.0033 70.1758 18.6283 69.7461 19.2207C69.3164 19.8066 68.6849 20.2884 67.8516 20.666C68.9323 21.1283 69.7103 21.6393 70.1855 22.1992C70.6673 22.7591 70.9082 23.4688 70.9082 24.3281ZM68.5449 17.2383C68.5449 16.444 68.3073 15.7995 67.832 15.3047C67.3633 14.8034 66.7611 14.5527 66.0254 14.5527C65.2897 14.5527 64.6875 14.7936 64.2188 15.2754C63.75 15.7507 63.5156 16.3431 63.5156 17.0527C63.5156 17.7363 63.7826 18.3158 64.3164 18.791C64.8503 19.2663 65.8008 19.7741 67.168 20.3145C67.6562 20.002 68.0078 19.5885 68.2227 19.0742C68.4375 18.5599 68.5449 17.9479 68.5449 17.2383ZM68.9551 24.7871C68.9551 24.377 68.8672 24.0189 68.6914 23.7129C68.5156 23.4004 68.2617 23.1172 67.9297 22.8633C67.6107 22.6159 67.1647 22.3587 66.5918 22.0918C66.0254 21.8184 65.4102 21.5417 64.7461 21.2617C64.1211 21.6003 63.6621 22.0332 63.3691 22.5605C63.0762 23.0814 62.9297 23.6771 62.9297 24.3477C62.9297 25.3047 63.2096 26.0794 63.7695 26.6719C64.3359 27.2578 65.0879 27.5508 66.0254 27.5508C66.9238 27.5508 67.6367 27.2904 68.1641 26.7695C68.6914 26.2487 68.9551 25.5879 68.9551 24.7871ZM77.8895 31.5645C77.2775 31.5645 76.7176 31.4863 76.2098 31.3301C75.702 31.1803 75.2658 30.9753 74.9012 30.7148C74.5366 30.4544 74.2534 30.1549 74.0516 29.8164C73.8562 29.4779 73.7586 29.1296 73.7586 28.7715C73.7586 28.4525 73.8367 28.166 73.993 27.9121C74.1492 27.6517 74.3999 27.5215 74.7449 27.5215C75.1355 27.5215 75.4318 27.6191 75.6336 27.8145C75.8419 28.0033 75.9461 28.2214 75.9461 28.4688C75.9461 28.6771 75.9103 28.9408 75.8387 29.2598C75.7736 29.5788 75.7215 29.8066 75.6824 29.9434C75.728 30.002 75.8094 30.0801 75.9266 30.1777C76.0503 30.2754 76.2 30.3633 76.3758 30.4414C76.5841 30.5391 76.8022 30.6172 77.0301 30.6758C77.2579 30.7344 77.5802 30.7637 77.9969 30.7637C78.3875 30.7637 78.7618 30.6986 79.1199 30.5684C79.4845 30.4382 79.8035 30.2298 80.077 29.9434C80.3634 29.6439 80.5848 29.2923 80.741 28.8887C80.9038 28.4915 80.9852 27.9674 80.9852 27.3164C80.9852 26.9648 80.9461 26.6165 80.868 26.2715C80.7964 25.9264 80.6596 25.627 80.4578 25.373C80.256 25.1191 79.9793 24.9238 79.6277 24.7871C79.2827 24.6439 78.8432 24.5723 78.3094 24.5723H77.0301V23.4492H77.8797C78.7781 23.4492 79.4259 23.2018 79.823 22.707C80.2202 22.2122 80.4187 21.4668 80.4187 20.4707C80.4187 19.6569 80.2267 19.0449 79.8426 18.6348C79.4585 18.2181 78.9148 18.0098 78.2117 18.0098C77.8732 18.0098 77.5932 18.0521 77.3719 18.1367C77.157 18.2148 76.9812 18.293 76.8445 18.3711C76.6818 18.4622 76.5483 18.5632 76.4441 18.6738C76.34 18.7845 76.2618 18.8659 76.2098 18.918C76.2553 19.1263 76.3107 19.3835 76.3758 19.6895C76.4409 19.9889 76.4734 20.2754 76.4734 20.5488C76.4734 20.7897 76.3693 21.0078 76.1609 21.2031C75.9591 21.3919 75.6596 21.4863 75.2625 21.4863C74.9174 21.4863 74.6635 21.3626 74.5008 21.1152C74.3445 20.8678 74.2664 20.5814 74.2664 20.2559C74.2664 19.9173 74.3608 19.5723 74.5496 19.2207C74.7384 18.8691 75.0184 18.5404 75.3895 18.2344C75.7605 17.9284 76.213 17.681 76.7469 17.4922C77.2807 17.3034 77.896 17.209 78.5926 17.209C79.3934 17.209 80.0542 17.3294 80.575 17.5703C81.1023 17.8047 81.5158 18.0911 81.8152 18.4297C82.1082 18.7617 82.31 19.11 82.4207 19.4746C82.5314 19.8392 82.5867 20.1517 82.5867 20.4121C82.5867 20.7376 82.5411 21.0664 82.45 21.3984C82.3589 21.724 82.2091 22.0267 82.0008 22.3066C81.7729 22.6126 81.4702 22.8926 81.0926 23.1465C80.7215 23.3939 80.2527 23.5957 79.6863 23.752V23.9082C80.0509 23.9408 80.4383 24.0221 80.8484 24.1523C81.2651 24.2826 81.6395 24.4746 81.9715 24.7285C82.3165 24.9954 82.5997 25.3405 82.8211 25.7637C83.0424 26.1803 83.1531 26.7109 83.1531 27.3555C83.1531 28.6055 82.6518 29.6178 81.6492 30.3926C80.6466 31.1738 79.3934 31.5645 77.8895 31.5645ZM96.277 24.3281C96.277 25.4219 95.8049 26.3626 94.8609 27.1504C93.9169 27.9382 92.6767 28.332 91.1402 28.332C89.7014 28.332 88.5491 27.9707 87.6832 27.248C86.8173 26.5254 86.3844 25.5944 86.3844 24.4551C86.3844 23.6152 86.6383 22.9154 87.1461 22.3555C87.6604 21.7891 88.4189 21.3105 89.4215 20.9199C88.5947 20.4577 87.9762 19.9499 87.566 19.3965C87.1559 18.8431 86.9508 18.2181 86.9508 17.5215C86.9508 16.4603 87.4 15.5716 88.2984 14.8555C89.2034 14.1393 90.2841 13.7812 91.5406 13.7812C92.7971 13.7812 93.8128 14.1198 94.5875 14.7969C95.3687 15.474 95.7594 16.3236 95.7594 17.3457C95.7594 18.0033 95.5445 18.6283 95.1148 19.2207C94.6852 19.8066 94.0536 20.2884 93.2203 20.666C94.301 21.1283 95.079 21.6393 95.5543 22.1992C96.0361 22.7591 96.277 23.4688 96.277 24.3281ZM93.9137 17.2383C93.9137 16.444 93.676 15.7995 93.2008 15.3047C92.732 14.8034 92.1298 14.5527 91.3941 14.5527C90.6585 14.5527 90.0562 14.7936 89.5875 15.2754C89.1187 15.7507 88.8844 16.3431 88.8844 17.0527C88.8844 17.7363 89.1513 18.3158 89.6852 18.791C90.219 19.2663 91.1695 19.7741 92.5367 20.3145C93.025 20.002 93.3766 19.5885 93.5914 19.0742C93.8062 18.5599 93.9137 17.9479 93.9137 17.2383ZM94.3238 24.7871C94.3238 24.377 94.2359 24.0189 94.0602 23.7129C93.8844 23.4004 93.6305 23.1172 93.2984 22.8633C92.9794 22.6159 92.5335 22.3587 91.9605 22.0918C91.3941 21.8184 90.7789 21.5417 90.1148 21.2617C89.4898 21.6003 89.0309 22.0332 88.7379 22.5605C88.4449 23.0814 88.2984 23.6771 88.2984 24.3477C88.2984 25.3047 88.5784 26.0794 89.1383 26.6719C89.7047 27.2578 90.4566 27.5508 91.3941 27.5508C92.2926 27.5508 93.0055 27.2904 93.5328 26.7695C94.0602 26.2487 94.3238 25.5879 94.3238 24.7871ZM108.532 18.8789C108.948 19.3802 109.258 19.9694 109.459 20.6465C109.668 21.3171 109.772 22.0202 109.772 22.7559C109.772 23.6413 109.645 24.4355 109.391 25.1387C109.137 25.8353 108.789 26.4147 108.346 26.877C107.89 27.3522 107.35 27.7103 106.725 27.9512C106.1 28.1921 105.403 28.3125 104.635 28.3125C103.795 28.3125 103.047 28.1725 102.389 27.8926C101.732 27.6126 101.198 27.2285 100.787 26.7402C100.358 26.2324 100.036 25.64 99.8207 24.9629C99.6124 24.2793 99.5082 23.5436 99.5082 22.7559C99.5082 21.9811 99.6091 21.2682 99.8109 20.6172C100.019 19.9661 100.342 19.377 100.778 18.8496C101.194 18.3418 101.732 17.9414 102.389 17.6484C103.047 17.3555 103.799 17.209 104.645 17.209C105.537 17.209 106.302 17.3587 106.94 17.6582C107.578 17.9577 108.108 18.3646 108.532 18.8789ZM107.614 22.7559C107.614 21.2064 107.347 20.0052 106.813 19.1523C106.286 18.2995 105.566 17.873 104.655 17.873C103.73 17.873 103.001 18.2995 102.467 19.1523C101.933 20.0052 101.666 21.2064 101.666 22.7559C101.666 24.2272 101.92 25.4121 102.428 26.3105C102.942 27.2025 103.678 27.6484 104.635 27.6484C105.592 27.6484 106.328 27.2025 106.842 26.3105C107.357 25.4121 107.614 24.2272 107.614 22.7559ZM128.236 28H119.086V26.6719C119.262 26.4701 119.506 26.2454 119.818 25.998C120.131 25.7441 120.502 25.4707 120.932 25.1777C121.192 25.002 121.505 24.8099 121.869 24.6016C122.234 24.3932 122.647 24.1654 123.109 23.918C123.624 23.6445 124.018 23.4036 124.291 23.1953C124.571 22.987 124.825 22.7298 125.053 22.4238C125.202 22.222 125.323 21.9714 125.414 21.6719C125.505 21.3659 125.551 20.9329 125.551 20.373C125.551 19.5592 125.333 18.9635 124.896 18.5859C124.46 18.2018 123.9 18.0098 123.217 18.0098C122.794 18.0098 122.393 18.0944 122.016 18.2637C121.638 18.4264 121.355 18.6543 121.166 18.9473C121.212 19.1556 121.267 19.403 121.332 19.6895C121.404 19.9759 121.439 20.2559 121.439 20.5293C121.439 20.7767 121.335 20.998 121.127 21.1934C120.925 21.3822 120.622 21.4766 120.219 21.4766C119.893 21.4766 119.643 21.3659 119.467 21.1445C119.291 20.9167 119.203 20.6139 119.203 20.2363C119.203 19.8848 119.301 19.5332 119.496 19.1816C119.691 18.8236 119.971 18.4948 120.336 18.1953C120.694 17.9023 121.137 17.6647 121.664 17.4824C122.191 17.3001 122.761 17.209 123.373 17.209C124.708 17.209 125.766 17.5085 126.547 18.1074C127.335 18.6999 127.729 19.4941 127.729 20.4902C127.729 20.9655 127.657 21.3984 127.514 21.7891C127.377 22.1797 127.152 22.5247 126.84 22.8242C126.495 23.1562 126.091 23.4427 125.629 23.6836C125.167 23.918 124.46 24.2467 123.51 24.6699C122.943 24.9238 122.416 25.1908 121.928 25.4707C121.439 25.7441 121.039 26.0111 120.727 26.2715H128.236V28ZM141.292 24.3281C141.292 25.4219 140.82 26.3626 139.876 27.1504C138.932 27.9382 137.692 28.332 136.155 28.332C134.716 28.332 133.564 27.9707 132.698 27.248C131.832 26.5254 131.399 25.5944 131.399 24.4551C131.399 23.6152 131.653 22.9154 132.161 22.3555C132.675 21.7891 133.434 21.3105 134.436 20.9199C133.61 20.4577 132.991 19.9499 132.581 19.3965C132.171 18.8431 131.966 18.2181 131.966 17.5215C131.966 16.4603 132.415 15.5716 133.313 14.8555C134.218 14.1393 135.299 13.7812 136.555 13.7812C137.812 13.7812 138.828 14.1198 139.602 14.7969C140.384 15.474 140.774 16.3236 140.774 17.3457C140.774 18.0033 140.559 18.6283 140.13 19.2207C139.7 19.8066 139.068 20.2884 138.235 20.666C139.316 21.1283 140.094 21.6393 140.569 22.1992C141.051 22.7591 141.292 23.4688 141.292 24.3281ZM138.929 17.2383C138.929 16.444 138.691 15.7995 138.216 15.3047C137.747 14.8034 137.145 14.5527 136.409 14.5527C135.673 14.5527 135.071 14.7936 134.602 15.2754C134.134 15.7507 133.899 16.3431 133.899 17.0527C133.899 17.7363 134.166 18.3158 134.7 18.791C135.234 19.2663 136.184 19.7741 137.552 20.3145C138.04 20.002 138.391 19.5885 138.606 19.0742C138.821 18.5599 138.929 17.9479 138.929 17.2383ZM139.339 24.7871C139.339 24.377 139.251 24.0189 139.075 23.7129C138.899 23.4004 138.645 23.1172 138.313 22.8633C137.994 22.6159 137.548 22.3587 136.975 22.0918C136.409 21.8184 135.794 21.5417 135.13 21.2617C134.505 21.6003 134.046 22.0332 133.753 22.5605C133.46 23.0814 133.313 23.6771 133.313 24.3477C133.313 25.3047 133.593 26.0794 134.153 26.6719C134.72 27.2578 135.471 27.5508 136.409 27.5508C137.307 27.5508 138.02 27.2904 138.548 26.7695C139.075 26.2487 139.339 25.5879 139.339 24.7871ZM154.425 24.3281C154.425 25.4219 153.953 26.3626 153.009 27.1504C152.065 27.9382 150.825 28.332 149.289 28.332C147.85 28.332 146.698 27.9707 145.832 27.248C144.966 26.5254 144.533 25.5944 144.533 24.4551C144.533 23.6152 144.787 22.9154 145.295 22.3555C145.809 21.7891 146.567 21.3105 147.57 20.9199C146.743 20.4577 146.125 19.9499 145.714 19.3965C145.304 18.8431 145.099 18.2181 145.099 17.5215C145.099 16.4603 145.548 15.5716 146.447 14.8555C147.352 14.1393 148.433 13.7812 149.689 13.7812C150.946 13.7812 151.961 14.1198 152.736 14.7969C153.517 15.474 153.908 16.3236 153.908 17.3457C153.908 18.0033 153.693 18.6283 153.263 19.2207C152.834 19.8066 152.202 20.2884 151.369 20.666C152.449 21.1283 153.227 21.6393 153.703 22.1992C154.185 22.7591 154.425 23.4688 154.425 24.3281ZM152.062 17.2383C152.062 16.444 151.824 15.7995 151.349 15.3047C150.88 14.8034 150.278 14.5527 149.543 14.5527C148.807 14.5527 148.205 14.7936 147.736 15.2754C147.267 15.7507 147.033 16.3431 147.033 17.0527C147.033 17.7363 147.3 18.3158 147.834 18.791C148.367 19.2663 149.318 19.7741 150.685 20.3145C151.173 20.002 151.525 19.5885 151.74 19.0742C151.955 18.5599 152.062 17.9479 152.062 17.2383ZM152.472 24.7871C152.472 24.377 152.384 24.0189 152.209 23.7129C152.033 23.4004 151.779 23.1172 151.447 22.8633C151.128 22.6159 150.682 22.3587 150.109 22.0918C149.543 21.8184 148.927 21.5417 148.263 21.2617C147.638 21.6003 147.179 22.0332 146.886 22.5605C146.593 23.0814 146.447 23.6771 146.447 24.3477C146.447 25.3047 146.727 26.0794 147.287 26.6719C147.853 27.2578 148.605 27.5508 149.543 27.5508C150.441 27.5508 151.154 27.2904 151.681 26.7695C152.209 26.2487 152.472 25.5879 152.472 24.7871ZM166.68 18.8789C167.097 19.3802 167.406 19.9694 167.608 20.6465C167.816 21.3171 167.92 22.0202 167.92 22.7559C167.92 23.6413 167.793 24.4355 167.539 25.1387C167.286 25.8353 166.937 26.4147 166.495 26.877C166.039 27.3522 165.498 27.7103 164.873 27.9512C164.248 28.1921 163.552 28.3125 162.784 28.3125C161.944 28.3125 161.195 28.1725 160.537 27.8926C159.88 27.6126 159.346 27.2285 158.936 26.7402C158.506 26.2324 158.184 25.64 157.969 24.9629C157.761 24.2793 157.657 23.5436 157.657 22.7559C157.657 21.9811 157.758 21.2682 157.959 20.6172C158.168 19.9661 158.49 19.377 158.926 18.8496C159.343 18.3418 159.88 17.9414 160.537 17.6484C161.195 17.3555 161.947 17.209 162.793 17.209C163.685 17.209 164.45 17.3587 165.088 17.6582C165.726 17.9577 166.257 18.3646 166.68 18.8789ZM165.762 22.7559C165.762 21.2064 165.495 20.0052 164.961 19.1523C164.434 18.2995 163.715 17.873 162.803 17.873C161.879 17.873 161.149 18.2995 160.616 19.1523C160.082 20.0052 159.815 21.2064 159.815 22.7559C159.815 24.2272 160.069 25.4121 160.577 26.3105C161.091 27.2025 161.827 27.6484 162.784 27.6484C163.741 27.6484 164.476 27.2025 164.991 26.3105C165.505 25.4121 165.762 24.2272 165.762 22.7559ZM187.068 24.3281C187.068 25.4219 186.596 26.3626 185.652 27.1504C184.708 27.9382 183.468 28.332 181.932 28.332C180.493 28.332 179.34 27.9707 178.475 27.248C177.609 26.5254 177.176 25.5944 177.176 24.4551C177.176 23.6152 177.43 22.9154 177.938 22.3555C178.452 21.7891 179.21 21.3105 180.213 20.9199C179.386 20.4577 178.768 19.9499 178.357 19.3965C177.947 18.8431 177.742 18.2181 177.742 17.5215C177.742 16.4603 178.191 15.5716 179.09 14.8555C179.995 14.1393 181.076 13.7812 182.332 13.7812C183.589 13.7812 184.604 14.1198 185.379 14.7969C186.16 15.474 186.551 16.3236 186.551 17.3457C186.551 18.0033 186.336 18.6283 185.906 19.2207C185.477 19.8066 184.845 20.2884 184.012 20.666C185.092 21.1283 185.87 21.6393 186.346 22.1992C186.827 22.7591 187.068 23.4688 187.068 24.3281ZM184.705 17.2383C184.705 16.444 184.467 15.7995 183.992 15.3047C183.523 14.8034 182.921 14.5527 182.186 14.5527C181.45 14.5527 180.848 14.7936 180.379 15.2754C179.91 15.7507 179.676 16.3431 179.676 17.0527C179.676 17.7363 179.943 18.3158 180.477 18.791C181.01 19.2663 181.961 19.7741 183.328 20.3145C183.816 20.002 184.168 19.5885 184.383 19.0742C184.598 18.5599 184.705 17.9479 184.705 17.2383ZM185.115 24.7871C185.115 24.377 185.027 24.0189 184.852 23.7129C184.676 23.4004 184.422 23.1172 184.09 22.8633C183.771 22.6159 183.325 22.3587 182.752 22.0918C182.186 21.8184 181.57 21.5417 180.906 21.2617C180.281 21.6003 179.822 22.0332 179.529 22.5605C179.236 23.0814 179.09 23.6771 179.09 24.3477C179.09 25.3047 179.37 26.0794 179.93 26.6719C180.496 27.2578 181.248 27.5508 182.186 27.5508C183.084 27.5508 183.797 27.2904 184.324 26.7695C184.852 26.2487 185.115 25.5879 185.115 24.7871ZM199.323 18.8789C199.74 19.3802 200.049 19.9694 200.251 20.6465C200.459 21.3171 200.563 22.0202 200.563 22.7559C200.563 23.6413 200.436 24.4355 200.182 25.1387C199.929 25.8353 199.58 26.4147 199.137 26.877C198.682 27.3522 198.141 27.7103 197.516 27.9512C196.891 28.1921 196.195 28.3125 195.427 28.3125C194.587 28.3125 193.838 28.1725 193.18 27.8926C192.523 27.6126 191.989 27.2285 191.579 26.7402C191.149 26.2324 190.827 25.64 190.612 24.9629C190.404 24.2793 190.3 23.5436 190.3 22.7559C190.3 21.9811 190.401 21.2682 190.602 20.6172C190.811 19.9661 191.133 19.377 191.569 18.8496C191.986 18.3418 192.523 17.9414 193.18 17.6484C193.838 17.3555 194.59 17.209 195.436 17.209C196.328 17.209 197.093 17.3587 197.731 17.6582C198.369 17.9577 198.9 18.3646 199.323 18.8789ZM198.405 22.7559C198.405 21.2064 198.138 20.0052 197.604 19.1523C197.077 18.2995 196.358 17.873 195.446 17.873C194.522 17.873 193.792 18.2995 193.259 19.1523C192.725 20.0052 192.458 21.2064 192.458 22.7559C192.458 24.2272 192.712 25.4121 193.22 26.3105C193.734 27.2025 194.47 27.6484 195.427 27.6484C196.384 27.6484 197.119 27.2025 197.634 26.3105C198.148 25.4121 198.405 24.2272 198.405 22.7559ZM213.004 28H203.853V26.6719C204.029 26.4701 204.273 26.2454 204.586 25.998C204.898 25.7441 205.269 25.4707 205.699 25.1777C205.959 25.002 206.272 24.8099 206.636 24.6016C207.001 24.3932 207.414 24.1654 207.877 23.918C208.391 23.6445 208.785 23.4036 209.058 23.1953C209.338 22.987 209.592 22.7298 209.82 22.4238C209.97 22.222 210.09 21.9714 210.181 21.6719C210.272 21.3659 210.318 20.9329 210.318 20.373C210.318 19.5592 210.1 18.9635 209.664 18.5859C209.227 18.2018 208.668 18.0098 207.984 18.0098C207.561 18.0098 207.16 18.0944 206.783 18.2637C206.405 18.4264 206.122 18.6543 205.933 18.9473C205.979 19.1556 206.034 19.403 206.099 19.6895C206.171 19.9759 206.207 20.2559 206.207 20.5293C206.207 20.7767 206.102 20.998 205.894 21.1934C205.692 21.3822 205.39 21.4766 204.986 21.4766C204.66 21.4766 204.41 21.3659 204.234 21.1445C204.058 20.9167 203.97 20.6139 203.97 20.2363C203.97 19.8848 204.068 19.5332 204.263 19.1816C204.459 18.8236 204.739 18.4948 205.103 18.1953C205.461 17.9023 205.904 17.6647 206.431 17.4824C206.959 17.3001 207.528 17.209 208.14 17.209C209.475 17.209 210.533 17.5085 211.314 18.1074C212.102 18.6999 212.496 19.4941 212.496 20.4902C212.496 20.9655 212.424 21.3984 212.281 21.7891C212.144 22.1797 211.92 22.5247 211.607 22.8242C211.262 23.1562 210.858 23.4427 210.396 23.6836C209.934 23.918 209.227 24.2467 208.277 24.6699C207.711 24.9238 207.183 25.1908 206.695 25.4707C206.207 25.7441 205.806 26.0111 205.494 26.2715H213.004V28ZM226.059 24.3281C226.059 25.4219 225.587 26.3626 224.643 27.1504C223.699 27.9382 222.459 28.332 220.922 28.332C219.483 28.332 218.331 27.9707 217.465 27.248C216.599 26.5254 216.166 25.5944 216.166 24.4551C216.166 23.6152 216.42 22.9154 216.928 22.3555C217.442 21.7891 218.201 21.3105 219.204 20.9199C218.377 20.4577 217.758 19.9499 217.348 19.3965C216.938 18.8431 216.733 18.2181 216.733 17.5215C216.733 16.4603 217.182 15.5716 218.08 14.8555C218.985 14.1393 220.066 13.7812 221.323 13.7812C222.579 13.7812 223.595 14.1198 224.37 14.7969C225.151 15.474 225.541 16.3236 225.541 17.3457C225.541 18.0033 225.327 18.6283 224.897 19.2207C224.467 19.8066 223.836 20.2884 223.002 20.666C224.083 21.1283 224.861 21.6393 225.336 22.1992C225.818 22.7591 226.059 23.4688 226.059 24.3281ZM223.696 17.2383C223.696 16.444 223.458 15.7995 222.983 15.3047C222.514 14.8034 221.912 14.5527 221.176 14.5527C220.441 14.5527 219.838 14.7936 219.37 15.2754C218.901 15.7507 218.666 16.3431 218.666 17.0527C218.666 17.7363 218.933 18.3158 219.467 18.791C220.001 19.2663 220.952 19.7741 222.319 20.3145C222.807 20.002 223.159 19.5885 223.373 19.0742C223.588 18.5599 223.696 17.9479 223.696 17.2383ZM224.106 24.7871C224.106 24.377 224.018 24.0189 223.842 23.7129C223.666 23.4004 223.413 23.1172 223.08 22.8633C222.761 22.6159 222.316 22.3587 221.743 22.0918C221.176 21.8184 220.561 21.5417 219.897 21.2617C219.272 21.6003 218.813 22.0332 218.52 22.5605C218.227 23.0814 218.08 23.6771 218.08 24.3477C218.08 25.3047 218.36 26.0794 218.92 26.6719C219.487 27.2578 220.239 27.5508 221.176 27.5508C222.075 27.5508 222.788 27.2904 223.315 26.7695C223.842 26.2487 224.106 25.5879 224.106 24.7871ZM245.217 24.3281C245.217 25.4219 244.745 26.3626 243.801 27.1504C242.857 27.9382 241.617 28.332 240.08 28.332C238.641 28.332 237.489 27.9707 236.623 27.248C235.757 26.5254 235.324 25.5944 235.324 24.4551C235.324 23.6152 235.578 22.9154 236.086 22.3555C236.6 21.7891 237.359 21.3105 238.361 20.9199C237.535 20.4577 236.916 19.9499 236.506 19.3965C236.096 18.8431 235.891 18.2181 235.891 17.5215C235.891 16.4603 236.34 15.5716 237.238 14.8555C238.143 14.1393 239.224 13.7812 240.48 13.7812C241.737 13.7812 242.753 14.1198 243.527 14.7969C244.309 15.474 244.699 16.3236 244.699 17.3457C244.699 18.0033 244.484 18.6283 244.055 19.2207C243.625 19.8066 242.993 20.2884 242.16 20.666C243.241 21.1283 244.019 21.6393 244.494 22.1992C244.976 22.7591 245.217 23.4688 245.217 24.3281ZM242.854 17.2383C242.854 16.444 242.616 15.7995 242.141 15.3047C241.672 14.8034 241.07 14.5527 240.334 14.5527C239.598 14.5527 238.996 14.7936 238.527 15.2754C238.059 15.7507 237.824 16.3431 237.824 17.0527C237.824 17.7363 238.091 18.3158 238.625 18.791C239.159 19.2663 240.109 19.7741 241.477 20.3145C241.965 20.002 242.316 19.5885 242.531 19.0742C242.746 18.5599 242.854 17.9479 242.854 17.2383ZM243.264 24.7871C243.264 24.377 243.176 24.0189 243 23.7129C242.824 23.4004 242.57 23.1172 242.238 22.8633C241.919 22.6159 241.473 22.3587 240.9 22.0918C240.334 21.8184 239.719 21.5417 239.055 21.2617C238.43 21.6003 237.971 22.0332 237.678 22.5605C237.385 23.0814 237.238 23.6771 237.238 24.3477C237.238 25.3047 237.518 26.0794 238.078 26.6719C238.645 27.2578 239.396 27.5508 240.334 27.5508C241.232 27.5508 241.945 27.2904 242.473 26.7695C243 26.2487 243.264 25.5879 243.264 24.7871ZM257.491 18.1562L250.528 31.5645H249.307L255.86 19.1621H252.022C251.456 19.1621 251.013 19.1686 250.694 19.1816C250.375 19.1947 250.082 19.2565 249.815 19.3672C249.613 19.4518 249.431 19.6699 249.268 20.0215C249.112 20.3665 248.992 20.8092 248.907 21.3496H248.311V17.5215H257.491V18.1562ZM269.013 22.9609C269.013 24.0938 268.834 25.1615 268.476 26.1641C268.118 27.1602 267.604 28.0358 266.933 28.791C266.276 29.5332 265.472 30.1484 264.521 30.6367C263.577 31.1315 262.519 31.457 261.347 31.6133L261.171 30.7344L262.05 30.5781C263.45 30.1354 264.544 29.4551 265.332 28.5371C266.119 27.6191 266.627 26.4538 266.855 25.041C266.321 25.4967 265.787 25.832 265.254 26.0469C264.726 26.2552 264.13 26.3594 263.466 26.3594C262.405 26.3594 261.481 25.946 260.693 25.1191C259.912 24.2923 259.521 23.2507 259.521 21.9941C259.521 20.6465 259.974 19.5104 260.879 18.5859C261.79 17.6615 262.913 17.1992 264.248 17.1992C265.699 17.1992 266.855 17.7168 267.714 18.752C268.58 19.7871 269.013 21.1901 269.013 22.9609ZM266.943 22.8438C266.943 21.3203 266.692 20.1289 266.191 19.2695C265.696 18.4036 265.042 17.9707 264.228 17.9707C263.453 17.9707 262.828 18.306 262.353 18.9766C261.878 19.6406 261.64 20.5586 261.64 21.7305C261.64 22.7852 261.881 23.6315 262.363 24.2695C262.851 24.9076 263.502 25.2266 264.316 25.2266C264.824 25.2266 265.289 25.1354 265.712 24.9531C266.136 24.7643 266.53 24.4648 266.894 24.0547C266.894 24.0286 266.897 23.9766 266.904 23.8984C266.917 23.8203 266.923 23.7096 266.923 23.5664C266.923 23.4753 266.927 23.3646 266.933 23.2344C266.94 23.1042 266.943 22.974 266.943 22.8438ZM279.129 28H272.547V27.3066C272.743 27.2936 273.045 27.2676 273.455 27.2285C273.872 27.1829 274.159 27.1374 274.315 27.0918C274.517 27.0267 274.67 26.9225 274.774 26.7793C274.885 26.6296 274.94 26.4082 274.94 26.1152V19.2598H272.508V18.4395H273.045C273.748 18.4395 274.377 18.3092 274.93 18.0488C275.49 17.7884 275.89 17.5085 276.131 17.209H276.942C276.922 17.6322 276.903 18.127 276.883 18.6934C276.864 19.2598 276.854 19.7676 276.854 20.2168V26.0078C276.854 26.2357 276.903 26.4408 277 26.623C277.105 26.7988 277.251 26.929 277.44 27.0137C277.609 27.0853 277.886 27.1504 278.27 27.209C278.654 27.2676 278.941 27.3001 279.129 27.3066V28ZM297.096 18.1562L290.133 31.5645H288.912L295.465 19.1621H291.627C291.061 19.1621 290.618 19.1686 290.299 19.1816C289.98 19.1947 289.687 19.2565 289.42 19.3672C289.218 19.4518 289.036 19.6699 288.873 20.0215C288.717 20.3665 288.596 20.8092 288.512 21.3496H287.916V17.5215H297.096V18.1562ZM308.891 27.1211H306.909V31.5645H305.034V27.1211H298.784V25.6172L305.63 17.2676H306.909V25.8418H308.891V27.1211ZM305.034 25.8418V19.4453L299.761 25.8418H305.034ZM315.57 31.5645C314.958 31.5645 314.398 31.4863 313.89 31.3301C313.382 31.1803 312.946 30.9753 312.582 30.7148C312.217 30.4544 311.934 30.1549 311.732 29.8164C311.537 29.4779 311.439 29.1296 311.439 28.7715C311.439 28.4525 311.517 28.166 311.673 27.9121C311.83 27.6517 312.08 27.5215 312.425 27.5215C312.816 27.5215 313.112 27.6191 313.314 27.8145C313.522 28.0033 313.627 28.2214 313.627 28.4688C313.627 28.6771 313.591 28.9408 313.519 29.2598C313.454 29.5788 313.402 29.8066 313.363 29.9434C313.408 30.002 313.49 30.0801 313.607 30.1777C313.731 30.2754 313.88 30.3633 314.056 30.4414C314.265 30.5391 314.483 30.6172 314.711 30.6758C314.938 30.7344 315.261 30.7637 315.677 30.7637C316.068 30.7637 316.442 30.6986 316.8 30.5684C317.165 30.4382 317.484 30.2298 317.757 29.9434C318.044 29.6439 318.265 29.2923 318.421 28.8887C318.584 28.4915 318.666 27.9674 318.666 27.3164C318.666 26.9648 318.627 26.6165 318.548 26.2715C318.477 25.9264 318.34 25.627 318.138 25.373C317.936 25.1191 317.66 24.9238 317.308 24.7871C316.963 24.6439 316.524 24.5723 315.99 24.5723H314.711V23.4492H315.56C316.459 23.4492 317.106 23.2018 317.504 22.707C317.901 22.2122 318.099 21.4668 318.099 20.4707C318.099 19.6569 317.907 19.0449 317.523 18.6348C317.139 18.2181 316.595 18.0098 315.892 18.0098C315.554 18.0098 315.274 18.0521 315.052 18.1367C314.837 18.2148 314.662 18.293 314.525 18.3711C314.362 18.4622 314.229 18.5632 314.125 18.6738C314.02 18.7845 313.942 18.8659 313.89 18.918C313.936 19.1263 313.991 19.3835 314.056 19.6895C314.121 19.9889 314.154 20.2754 314.154 20.5488C314.154 20.7897 314.05 21.0078 313.841 21.2031C313.64 21.3919 313.34 21.4863 312.943 21.4863C312.598 21.4863 312.344 21.3626 312.181 21.1152C312.025 20.8678 311.947 20.5814 311.947 20.2559C311.947 19.9173 312.041 19.5723 312.23 19.2207C312.419 18.8691 312.699 18.5404 313.07 18.2344C313.441 17.9284 313.893 17.681 314.427 17.4922C314.961 17.3034 315.576 17.209 316.273 17.209C317.074 17.209 317.735 17.3294 318.255 17.5703C318.783 17.8047 319.196 18.0911 319.496 18.4297C319.789 18.7617 319.99 19.11 320.101 19.4746C320.212 19.8392 320.267 20.1517 320.267 20.4121C320.267 20.7376 320.222 21.0664 320.13 21.3984C320.039 21.724 319.89 22.0267 319.681 22.3066C319.453 22.6126 319.151 22.8926 318.773 23.1465C318.402 23.3939 317.933 23.5957 317.367 23.752V23.9082C317.731 23.9408 318.119 24.0221 318.529 24.1523C318.946 24.2826 319.32 24.4746 319.652 24.7285C319.997 24.9954 320.28 25.3405 320.502 25.7637C320.723 26.1803 320.834 26.7109 320.834 27.3555C320.834 28.6055 320.332 29.6178 319.33 30.3926C318.327 31.1738 317.074 31.5645 315.57 31.5645ZM331.282 23.4199C331.711 23.7585 332.066 24.1947 332.346 24.7285C332.633 25.2624 332.776 25.9297 332.776 26.7305C332.776 28.1302 332.297 29.2858 331.34 30.1973C330.383 31.1087 329.169 31.5645 327.698 31.5645C326.558 31.5645 325.595 31.2943 324.807 30.7539C324.019 30.2135 323.625 29.5853 323.625 28.8691C323.625 28.5371 323.707 28.2474 323.87 28C324.032 27.7526 324.283 27.6289 324.621 27.6289C325.012 27.6289 325.308 27.7331 325.51 27.9414C325.718 28.1432 325.823 28.3646 325.823 28.6055C325.823 28.8138 325.787 29.0742 325.715 29.3867C325.644 29.6992 325.588 29.9303 325.549 30.0801C325.601 30.1257 325.686 30.1875 325.803 30.2656C325.92 30.3438 326.06 30.4186 326.223 30.4902C326.392 30.5618 326.597 30.6237 326.838 30.6758C327.086 30.7344 327.372 30.7637 327.698 30.7637C328.114 30.7637 328.508 30.679 328.879 30.5098C329.25 30.3405 329.563 30.0898 329.817 29.7578C330.097 29.3932 330.305 28.9766 330.442 28.5078C330.585 28.0456 330.657 27.4564 330.657 26.7402C330.657 25.8223 330.399 25.0638 329.885 24.4648C329.377 23.8594 328.707 23.5566 327.873 23.5566C327.353 23.5566 326.864 23.6543 326.409 23.8496C325.959 24.0449 325.556 24.3704 325.198 24.8262L324.543 24.5723L325.373 17.5215H332.366V19.2598H326.164L325.657 23.4004C325.95 23.1921 326.334 22.987 326.809 22.7852C327.291 22.5768 327.818 22.4727 328.391 22.4727C328.866 22.4727 329.358 22.5475 329.866 22.6973C330.38 22.8405 330.852 23.0814 331.282 23.4199Z" fill="#545454"/>
<path d="M40.9815 33H19.0192C16.8028 33 15 31.2046 15 29.0001V13.9999C15 11.7942 16.8028 10 19.0192 10H40.9808C43.196 10 45 11.7942 45 13.9999V29.0001C45.0006 31.2052 43.1972 33 40.9815 33ZM19.0192 11.1429C17.4356 11.1429 16.1484 12.424 16.1484 13.9999V29.0001C16.1484 30.5755 17.4356 31.8571 19.0192 31.8571H40.9808C42.5638 31.8571 43.8516 30.5755 43.8516 29.0001V13.9999C43.8516 12.424 42.5638 11.1429 40.9808 11.1429H19.0192ZM35.7037 13.3599C37.1363 13.3599 38.2977 14.5153 38.2977 15.9415C38.2977 17.3677 37.1368 18.5238 35.7037 18.5238C34.2706 18.5238 33.1097 17.3678 33.1097 15.9415C33.1097 14.5152 34.2712 13.3599 35.7037 13.3599ZM39.3204 13.3599C40.7529 13.3599 41.9151 14.5153 41.9151 15.9415C41.9151 17.3677 40.7536 18.5238 39.3204 18.5238C37.8873 18.5238 36.7264 17.3678 36.7264 15.9415C36.7264 14.5152 37.8879 13.3599 39.3204 13.3599ZM18.0861 26.3339H22.8683V28.0481H18.0861V26.3339ZM24.4347 26.3339H29.2175V28.0481H24.4347V26.3339ZM30.782 26.3339H35.5659V28.0481H30.782V26.3339ZM37.1305 26.3339H41.9144V28.0481H37.1305V26.3339ZM18.0861 13.3605H27.1263V15.0747H18.0861V13.3605ZM18.0861 16.7621H22.8695V18.4764H18.0861V16.7621Z" fill="#292929"/>
</svg>
