<svg width="302" height="32" viewBox="0 0 302 32" fill="none" xmlns="http://www.w3.org/2000/svg">
<path d="M49.9004 23H43.3184V22.3066C43.5137 22.2936 43.8164 22.2676 44.2266 22.2285C44.6432 22.1829 44.9297 22.1374 45.0859 22.0918C45.2878 22.0267 45.4408 21.9225 45.5449 21.7793C45.6556 21.6296 45.7109 21.4082 45.7109 21.1152V14.2598H43.2793V13.4395H43.8164C44.5195 13.4395 45.1478 13.3092 45.7012 13.0488C46.2611 12.7884 46.6615 12.5085 46.9023 12.209H47.7129C47.6934 12.6322 47.6738 13.127 47.6543 13.6934C47.6348 14.2598 47.625 14.7676 47.625 15.2168V21.0078C47.625 21.2357 47.6738 21.4408 47.7715 21.623C47.8757 21.7988 48.0221 21.929 48.2109 22.0137C48.3802 22.0853 48.6569 22.1504 49.041 22.209C49.4251 22.2676 49.7116 22.3001 49.9004 22.3066V23ZM62.702 19.3281C62.702 20.4219 62.2299 21.3626 61.2859 22.1504C60.3419 22.9382 59.1017 23.332 57.5652 23.332C56.1264 23.332 54.9741 22.9707 54.1082 22.248C53.2423 21.5254 52.8094 20.5944 52.8094 19.4551C52.8094 18.6152 53.0633 17.9154 53.5711 17.3555C54.0854 16.7891 54.8439 16.3105 55.8465 15.9199C55.0197 15.4577 54.4012 14.9499 53.991 14.3965C53.5809 13.8431 53.3758 13.2181 53.3758 12.5215C53.3758 11.4603 53.825 10.5716 54.7234 9.85547C55.6284 9.13932 56.7091 8.78125 57.9656 8.78125C59.2221 8.78125 60.2378 9.11979 61.0125 9.79688C61.7937 10.474 62.1844 11.3236 62.1844 12.3457C62.1844 13.0033 61.9695 13.6283 61.5398 14.2207C61.1102 14.8066 60.4786 15.2884 59.6453 15.666C60.726 16.1283 61.504 16.6393 61.9793 17.1992C62.4611 17.7591 62.702 18.4688 62.702 19.3281ZM60.3387 12.2383C60.3387 11.444 60.101 10.7995 59.6258 10.3047C59.157 9.80339 58.5548 9.55273 57.8191 9.55273C57.0835 9.55273 56.4812 9.79362 56.0125 10.2754C55.5437 10.7507 55.3094 11.3431 55.3094 12.0527C55.3094 12.7363 55.5763 13.3158 56.1102 13.791C56.644 14.2663 57.5945 14.7741 58.9617 15.3145C59.45 15.002 59.8016 14.5885 60.0164 14.0742C60.2312 13.5599 60.3387 12.9479 60.3387 12.2383ZM60.7488 19.7871C60.7488 19.377 60.6609 19.0189 60.4852 18.7129C60.3094 18.4004 60.0555 18.1172 59.7234 17.8633C59.4044 17.6159 58.9585 17.3587 58.3855 17.0918C57.8191 16.8184 57.2039 16.5417 56.5398 16.2617C55.9148 16.6003 55.4559 17.0332 55.1629 17.5605C54.8699 18.0814 54.7234 18.6771 54.7234 19.3477C54.7234 20.3047 55.0034 21.0794 55.5633 21.6719C56.1297 22.2578 56.8816 22.5508 57.8191 22.5508C58.7176 22.5508 59.4305 22.2904 59.9578 21.7695C60.4852 21.2487 60.7488 20.5879 60.7488 19.7871ZM80.5316 16.6426C80.8246 16.9681 81.0395 17.3262 81.1762 17.7168C81.3194 18.1009 81.391 18.5501 81.391 19.0645C81.391 20.2884 80.9385 21.2975 80.0336 22.0918C79.1286 22.8861 78.0056 23.2832 76.6645 23.2832C76.046 23.2832 75.4275 23.1888 74.809 23C74.1905 22.8047 73.6566 22.5703 73.2074 22.2969L72.7875 23.0098H72.0063L71.8695 18.2637H72.6605C72.8233 18.8496 73.0121 19.3802 73.227 19.8555C73.4483 20.3242 73.738 20.7637 74.0961 21.1738C74.4346 21.5579 74.8285 21.8639 75.2777 22.0918C75.7335 22.3197 76.2608 22.4336 76.8598 22.4336C77.309 22.4336 77.6996 22.375 78.0316 22.2578C78.3702 22.1406 78.6436 21.9746 78.852 21.7598C79.0603 21.5449 79.2133 21.2943 79.3109 21.0078C79.4151 20.7148 79.4672 20.3796 79.4672 20.002C79.4672 19.4486 79.3109 18.9342 78.9984 18.459C78.6859 17.9772 78.2204 17.6126 77.602 17.3652C77.1788 17.196 76.6938 17.0104 76.1469 16.8086C75.6 16.6003 75.128 16.4049 74.7309 16.2227C73.9496 15.8711 73.3409 15.4121 72.9047 14.8457C72.475 14.2728 72.2602 13.5273 72.2602 12.6094C72.2602 12.082 72.3676 11.5905 72.5824 11.1348C72.7973 10.679 73.1033 10.2721 73.5004 9.91406C73.878 9.57552 74.324 9.31185 74.8383 9.12305C75.3526 8.92773 75.8897 8.83008 76.4496 8.83008C77.0876 8.83008 77.6573 8.92773 78.1586 9.12305C78.6664 9.31836 79.1286 9.54622 79.5453 9.80664L79.9457 9.14258H80.727L80.8051 13.7422H80.0141C79.8708 13.2148 79.7081 12.7103 79.5258 12.2285C79.35 11.7467 79.1189 11.3105 78.8324 10.9199C78.5525 10.5423 78.2107 10.2428 77.807 10.0215C77.4034 9.79362 76.9086 9.67969 76.3227 9.67969C75.7042 9.67969 75.1768 9.87826 74.7406 10.2754C74.3044 10.6725 74.0863 11.1576 74.0863 11.7305C74.0863 12.3294 74.2263 12.8275 74.5063 13.2246C74.7862 13.6152 75.1931 13.9375 75.727 14.1914C76.2022 14.4193 76.6677 14.6178 77.1234 14.7871C77.5857 14.9499 78.0316 15.1257 78.4613 15.3145C78.852 15.4837 79.2263 15.6758 79.5844 15.8906C79.949 16.1055 80.2647 16.3561 80.5316 16.6426ZM93.4699 18.0879C93.4699 18.765 93.3625 19.4323 93.1477 20.0898C92.9328 20.7409 92.6268 21.2943 92.2297 21.75C91.7805 22.2708 91.2596 22.6582 90.6672 22.9121C90.0747 23.166 89.4107 23.293 88.675 23.293C88.063 23.293 87.4803 23.179 86.927 22.9512C86.3736 22.7168 85.882 22.3783 85.4523 21.9355C85.0292 21.4993 84.6906 20.9688 84.4367 20.3438C84.1893 19.7122 84.0656 19.0059 84.0656 18.2246C84.0656 16.7207 84.5018 15.4902 85.3742 14.5332C86.2531 13.5762 87.4022 13.0977 88.8215 13.0977C90.1691 13.0977 91.2792 13.5534 92.1516 14.4648C93.0305 15.3698 93.4699 16.5775 93.4699 18.0879ZM91.4484 18.1074C91.4484 17.6191 91.3996 17.1048 91.302 16.5645C91.2043 16.0176 91.0578 15.5553 90.8625 15.1777C90.6542 14.7741 90.3807 14.4518 90.0422 14.2109C89.7036 13.9635 89.2902 13.8398 88.802 13.8398C88.3007 13.8398 87.871 13.9635 87.5129 14.2109C87.1613 14.4583 86.8749 14.7969 86.6535 15.2266C86.4452 15.6237 86.2987 16.0762 86.2141 16.584C86.1294 17.0918 86.0871 17.5833 86.0871 18.0586C86.0871 18.6836 86.1359 19.263 86.2336 19.7969C86.3378 20.3242 86.5005 20.7962 86.7219 21.2129C86.9432 21.6296 87.2199 21.9583 87.552 22.1992C87.8905 22.4336 88.3072 22.5508 88.802 22.5508C89.6158 22.5508 90.2603 22.1569 90.7355 21.3691C91.2108 20.5814 91.4484 19.4941 91.4484 18.1074ZM106.389 22.8242L103.254 23.0391L103.107 22.9023V21.6816H103.049C102.893 21.8444 102.717 22.0202 102.521 22.209C102.326 22.3913 102.102 22.5573 101.848 22.707C101.555 22.8828 101.271 23.0163 100.998 23.1074C100.725 23.1986 100.337 23.2441 99.8359 23.2441C98.9831 23.2441 98.332 22.9674 97.8828 22.4141C97.4401 21.8542 97.2188 21.0436 97.2188 19.9824V15.373C97.2188 15.1387 97.1732 14.9434 97.082 14.7871C96.9974 14.6243 96.8704 14.4844 96.7012 14.3672C96.584 14.2891 96.4375 14.2337 96.2617 14.2012C96.0859 14.1621 95.9004 14.1361 95.7051 14.123V13.4883L98.918 13.2539L99.0645 13.3906V20.0801C99.0645 20.7767 99.2207 21.3008 99.5332 21.6523C99.8457 22.0039 100.22 22.1797 100.656 22.1797C101.014 22.1797 101.333 22.1243 101.613 22.0137C101.893 21.903 102.128 21.7728 102.316 21.623C102.492 21.4863 102.645 21.3431 102.775 21.1934C102.912 21.0371 103.016 20.8939 103.088 20.7637V15.3047C103.088 15.0898 103.042 14.901 102.951 14.7383C102.86 14.569 102.733 14.4258 102.57 14.3086C102.453 14.2305 102.277 14.1849 102.043 14.1719C101.815 14.1523 101.558 14.1361 101.271 14.123V13.4883L104.768 13.2539L104.914 13.3906V21.0371C104.914 21.2585 104.96 21.4473 105.051 21.6035C105.142 21.7598 105.269 21.8932 105.432 22.0039C105.549 22.0755 105.689 22.1243 105.852 22.1504C106.014 22.1699 106.193 22.1829 106.389 22.1895V22.8242ZM114.718 22.5801C114.294 22.7559 113.894 22.9023 113.516 23.0195C113.139 23.1432 112.677 23.2051 112.13 23.2051C111.322 23.2051 110.753 23.0033 110.421 22.5996C110.095 22.1895 109.932 21.6133 109.932 20.8711V14.3477H108.194V13.4102H109.971V10.4121H111.749V13.4102H114.512V14.3477H111.768V19.7285C111.768 20.1322 111.781 20.4707 111.807 20.7441C111.84 21.0111 111.912 21.2454 112.022 21.4473C112.126 21.6361 112.283 21.7793 112.491 21.877C112.699 21.9746 112.979 22.0234 113.331 22.0234C113.494 22.0234 113.731 22.0104 114.044 21.9844C114.363 21.9518 114.587 21.9128 114.718 21.8672V22.5801ZM127.343 23H122.617V22.3555C122.767 22.3424 122.933 22.3294 123.115 22.3164C123.297 22.3034 123.447 22.2773 123.564 22.2383C123.746 22.1797 123.88 22.0788 123.964 21.9355C124.056 21.7858 124.101 21.5938 124.101 21.3594V16.4082C124.101 15.7246 123.938 15.1973 123.613 14.8262C123.294 14.4551 122.903 14.2695 122.441 14.2695C122.102 14.2695 121.787 14.3249 121.494 14.4355C121.207 14.5397 120.95 14.6699 120.722 14.8262C120.501 14.9889 120.332 15.1517 120.214 15.3145C120.097 15.4772 120.006 15.6139 119.941 15.7246V21.2617C119.941 21.4831 119.983 21.6654 120.068 21.8086C120.159 21.9518 120.296 22.0625 120.478 22.1406C120.621 22.2057 120.768 22.2546 120.918 22.2871C121.074 22.3197 121.243 22.3424 121.425 22.3555V23H116.699V22.3555C116.849 22.3424 117.005 22.3294 117.168 22.3164C117.33 22.2969 117.467 22.2708 117.578 22.2383C117.76 22.1797 117.897 22.0788 117.988 21.9355C118.079 21.7858 118.125 21.5938 118.125 21.3594V10.1484C118.125 9.92708 118.073 9.70573 117.968 9.48438C117.871 9.26302 117.74 9.09701 117.578 8.98633C117.461 8.90169 117.252 8.8431 116.953 8.81055C116.66 8.77148 116.422 8.74544 116.24 8.73242V8.10742L119.804 7.88281L119.941 8.0293V14.748H119.98C120.195 14.5332 120.39 14.3444 120.566 14.1816C120.742 14.0124 120.973 13.8366 121.259 13.6543C121.507 13.498 121.796 13.3678 122.129 13.2637C122.467 13.1595 122.845 13.1074 123.261 13.1074C124.121 13.1074 124.782 13.3809 125.244 13.9277C125.706 14.4681 125.937 15.2493 125.937 16.2715V21.2812C125.937 21.5091 125.976 21.6947 126.054 21.8379C126.139 21.9746 126.276 22.082 126.464 22.1602C126.614 22.2188 126.748 22.2643 126.865 22.2969C126.989 22.3229 127.148 22.3424 127.343 22.3555V23ZM146.609 12.5605C146.609 13.2832 146.465 13.9245 146.179 14.4844C145.899 15.0378 145.508 15.4967 145.007 15.8613C144.512 16.2259 143.969 16.4928 143.376 16.6621C142.784 16.8314 142.155 16.916 141.491 16.916H139.939V21.1152C139.939 21.3431 139.974 21.5449 140.046 21.7207C140.124 21.89 140.28 22.0202 140.515 22.1113C140.632 22.1569 140.837 22.1992 141.13 22.2383C141.43 22.2773 141.703 22.3001 141.95 22.3066V23H136.003V22.3066C136.159 22.2936 136.384 22.2708 136.677 22.2383C136.976 22.2057 137.185 22.1634 137.302 22.1113C137.497 22.0267 137.637 21.903 137.722 21.7402C137.813 21.5775 137.859 21.3691 137.859 21.1152V11.1152C137.859 10.8874 137.826 10.6823 137.761 10.5C137.696 10.3177 137.543 10.181 137.302 10.0898C137.055 10.0052 136.807 9.94661 136.56 9.91406C136.319 9.875 136.111 9.84896 135.935 9.83594V9.14258H142.263C143.552 9.14258 144.597 9.45508 145.398 10.0801C146.205 10.6986 146.609 11.5254 146.609 12.5605ZM143.64 14.9238C143.861 14.6113 144.008 14.2891 144.079 13.957C144.151 13.6185 144.187 13.3158 144.187 13.0488C144.187 12.6777 144.141 12.3001 144.05 11.916C143.965 11.5319 143.816 11.1966 143.601 10.9102C143.373 10.6042 143.073 10.3665 142.702 10.1973C142.331 10.028 141.869 9.94336 141.316 9.94336H139.939V16.0664H140.935C141.638 16.0664 142.208 15.959 142.644 15.7441C143.086 15.5228 143.418 15.2493 143.64 14.9238ZM158.277 22.8242C157.971 22.9349 157.701 23.0228 157.467 23.0879C157.239 23.1595 156.979 23.1953 156.686 23.1953C156.178 23.1953 155.771 23.0781 155.465 22.8438C155.165 22.6029 154.973 22.2546 154.889 21.7988H154.83C154.407 22.2676 153.951 22.6257 153.463 22.873C152.981 23.1204 152.398 23.2441 151.715 23.2441C150.992 23.2441 150.396 23.0228 149.928 22.5801C149.465 22.1374 149.234 21.5579 149.234 20.8418C149.234 20.4707 149.286 20.1387 149.391 19.8457C149.495 19.5527 149.651 19.2891 149.859 19.0547C150.022 18.8594 150.237 18.6868 150.504 18.5371C150.771 18.3809 151.021 18.2572 151.256 18.166C151.549 18.0553 152.141 17.8503 153.033 17.5508C153.932 17.2513 154.537 17.0169 154.85 16.8477V15.8809C154.85 15.7962 154.83 15.6335 154.791 15.3926C154.758 15.1517 154.684 14.9238 154.566 14.709C154.436 14.4681 154.251 14.2598 154.01 14.084C153.775 13.9017 153.44 13.8105 153.004 13.8105C152.704 13.8105 152.424 13.8626 152.164 13.9668C151.91 14.0645 151.731 14.1686 151.627 14.2793C151.627 14.4095 151.656 14.6016 151.715 14.8555C151.78 15.1094 151.812 15.3438 151.812 15.5586C151.812 15.7865 151.708 15.9948 151.5 16.1836C151.298 16.3724 151.015 16.4668 150.65 16.4668C150.325 16.4668 150.084 16.3529 149.928 16.125C149.778 15.8906 149.703 15.6302 149.703 15.3438C149.703 15.0443 149.807 14.7578 150.016 14.4844C150.23 14.2109 150.507 13.9668 150.846 13.752C151.139 13.5697 151.493 13.4167 151.91 13.293C152.327 13.1628 152.734 13.0977 153.131 13.0977C153.678 13.0977 154.153 13.1367 154.557 13.2148C154.967 13.2865 155.338 13.446 155.67 13.6934C156.002 13.9342 156.253 14.263 156.422 14.6797C156.598 15.0898 156.686 15.6204 156.686 16.2715C156.686 17.2025 156.676 18.0293 156.656 18.752C156.637 19.4681 156.627 20.2526 156.627 21.1055C156.627 21.3594 156.669 21.5612 156.754 21.7109C156.845 21.8607 156.982 21.9876 157.164 22.0918C157.262 22.1504 157.415 22.1829 157.623 22.1895C157.838 22.196 158.056 22.1992 158.277 22.1992V22.8242ZM154.869 17.668C154.316 17.8307 153.831 17.9902 153.414 18.1465C152.997 18.3027 152.61 18.498 152.252 18.7324C151.926 18.9538 151.669 19.2174 151.48 19.5234C151.292 19.8229 151.197 20.181 151.197 20.5977C151.197 21.138 151.337 21.5352 151.617 21.7891C151.904 22.043 152.265 22.1699 152.701 22.1699C153.163 22.1699 153.57 22.0592 153.922 21.8379C154.273 21.61 154.57 21.3431 154.811 21.0371L154.869 17.668ZM167.807 14.6113C167.807 14.9434 167.726 15.2396 167.563 15.5C167.401 15.7539 167.15 15.8809 166.811 15.8809C166.447 15.8809 166.167 15.7865 165.971 15.5977C165.783 15.4089 165.688 15.2005 165.688 14.9727C165.688 14.8294 165.698 14.6992 165.718 14.582C165.744 14.4648 165.766 14.3477 165.786 14.2305C165.48 14.2305 165.122 14.3542 164.712 14.6016C164.302 14.849 163.953 15.2005 163.667 15.6562V21.2617C163.667 21.4896 163.709 21.6751 163.794 21.8184C163.885 21.9616 164.025 22.069 164.214 22.1406C164.376 22.2057 164.585 22.2546 164.839 22.2871C165.099 22.3197 165.324 22.3424 165.512 22.3555V23H160.434V22.3555C160.584 22.3424 160.737 22.3294 160.893 22.3164C161.056 22.3034 161.196 22.2773 161.313 22.2383C161.496 22.1797 161.629 22.0788 161.714 21.9355C161.805 21.7858 161.85 21.5938 161.85 21.3594V15.4121C161.85 15.2103 161.802 15.0117 161.704 14.8164C161.613 14.6211 161.483 14.4648 161.313 14.3477C161.19 14.2695 161.043 14.2142 160.874 14.1816C160.705 14.1426 160.522 14.1165 160.327 14.1035V13.4688L163.53 13.2539L163.667 13.3906V14.748H163.716C164.119 14.2207 164.568 13.8203 165.063 13.5469C165.558 13.2734 166.011 13.1367 166.421 13.1367C166.831 13.1367 167.163 13.2702 167.417 13.5371C167.677 13.804 167.807 14.1621 167.807 14.6113ZM180.043 23H177.132C176.625 22.2643 176.081 21.4766 175.502 20.6367C174.922 19.7969 174.32 18.9798 173.695 18.1855L172.894 18.9375V21.2227C172.894 21.457 172.936 21.6523 173.021 21.8086C173.106 21.9583 173.242 22.069 173.431 22.1406C173.588 22.2057 173.737 22.2546 173.88 22.2871C174.024 22.3197 174.19 22.3424 174.379 22.3555V23H169.652V22.3555C169.802 22.3424 169.958 22.3294 170.121 22.3164C170.283 22.2969 170.42 22.2708 170.531 22.2383C170.713 22.1797 170.85 22.0788 170.941 21.9355C171.032 21.7858 171.078 21.5938 171.078 21.3594V10.168C171.078 9.92708 171.026 9.70247 170.921 9.49414C170.824 9.2793 170.694 9.11654 170.531 9.00586C170.394 8.90169 170.179 8.83333 169.886 8.80078C169.6 8.76823 169.369 8.74544 169.193 8.73242V8.10742L172.757 7.88281L172.894 8.0293V18.2148C173.402 17.707 173.949 17.1634 174.535 16.584C175.127 15.998 175.625 15.4772 176.029 15.0215C176.081 14.9629 176.136 14.888 176.195 14.7969C176.26 14.6992 176.293 14.6211 176.293 14.5625C176.293 14.3867 176.149 14.2565 175.863 14.1719C175.583 14.0872 175.313 14.0286 175.052 13.9961V13.3711H179.291V13.9766C178.744 14.1393 178.259 14.3444 177.836 14.5918C177.419 14.8327 177.1 15.0508 176.879 15.2461C176.722 15.3763 176.501 15.5879 176.214 15.8809C175.928 16.1738 175.528 16.5579 175.013 17.0332C175.547 17.6908 176.146 18.4785 176.81 19.3965C177.481 20.3145 177.969 20.9785 178.275 21.3887C178.561 21.7728 178.819 22.0234 179.046 22.1406C179.274 22.2578 179.606 22.3294 180.043 22.3555V23ZM185.246 22.6582C185.246 23.127 185.139 23.5697 184.924 23.9863C184.716 24.403 184.475 24.7611 184.202 25.0605C183.922 25.373 183.625 25.6497 183.313 25.8906C183 26.1315 182.714 26.3203 182.454 26.457L182.004 25.8027C182.317 25.6074 182.597 25.4121 182.844 25.2168C183.092 25.0215 183.293 24.8262 183.45 24.6309C183.645 24.403 183.811 24.1556 183.948 23.8887C184.084 23.6217 184.172 23.319 184.211 22.9805H183.713C183.277 22.9805 182.935 22.8665 182.688 22.6387C182.447 22.4108 182.327 22.1048 182.327 21.7207C182.327 21.4473 182.437 21.1836 182.659 20.9297C182.88 20.6693 183.183 20.5391 183.567 20.5391C184.127 20.5391 184.547 20.7279 184.827 21.1055C185.107 21.4766 185.246 21.9941 185.246 22.6582ZM205.752 18.8789L205.459 23H194.629V22.3066C194.785 22.2936 195.01 22.2708 195.303 22.2383C195.602 22.2057 195.811 22.1634 195.928 22.1113C196.123 22.0267 196.263 21.903 196.348 21.7402C196.439 21.5775 196.484 21.3691 196.484 21.1152V11.1934C196.484 10.972 196.445 10.7767 196.367 10.6074C196.296 10.4382 196.149 10.3014 195.928 10.1973C195.778 10.1191 195.566 10.0443 195.293 9.97266C195.026 9.89453 194.805 9.84896 194.629 9.83594V9.14258H200.479V9.83594C200.296 9.84245 200.059 9.875 199.766 9.93359C199.479 9.99219 199.271 10.0443 199.141 10.0898C198.919 10.168 198.766 10.3014 198.682 10.4902C198.604 10.679 198.564 10.8809 198.564 11.0957V20.4023C198.564 20.832 198.584 21.1673 198.623 21.4082C198.669 21.6426 198.77 21.8249 198.926 21.9551C199.076 22.0723 199.297 22.1504 199.59 22.1895C199.889 22.222 200.306 22.2383 200.84 22.2383C201.081 22.2383 201.331 22.2318 201.592 22.2188C201.852 22.2057 202.1 22.1797 202.334 22.1406C202.562 22.1016 202.77 22.0495 202.959 21.9844C203.154 21.9128 203.298 21.8249 203.389 21.7207C203.656 21.4212 203.965 20.9688 204.316 20.3633C204.674 19.7513 204.922 19.2565 205.059 18.8789H205.752ZM217.03 18.0879C217.03 18.765 216.923 19.4323 216.708 20.0898C216.493 20.7409 216.187 21.2943 215.79 21.75C215.341 22.2708 214.82 22.6582 214.227 22.9121C213.635 23.166 212.971 23.293 212.235 23.293C211.623 23.293 211.04 23.179 210.487 22.9512C209.934 22.7168 209.442 22.3783 209.012 21.9355C208.589 21.4993 208.251 20.9688 207.997 20.3438C207.749 19.7122 207.626 19.0059 207.626 18.2246C207.626 16.7207 208.062 15.4902 208.934 14.5332C209.813 13.5762 210.962 13.0977 212.382 13.0977C213.729 13.0977 214.839 13.5534 215.712 14.4648C216.591 15.3698 217.03 16.5775 217.03 18.0879ZM215.009 18.1074C215.009 17.6191 214.96 17.1048 214.862 16.5645C214.764 16.0176 214.618 15.5553 214.423 15.1777C214.214 14.7741 213.941 14.4518 213.602 14.2109C213.264 13.9635 212.85 13.8398 212.362 13.8398C211.861 13.8398 211.431 13.9635 211.073 14.2109C210.721 14.4583 210.435 14.7969 210.214 15.2266C210.005 15.6237 209.859 16.0762 209.774 16.584C209.69 17.0918 209.647 17.5833 209.647 18.0586C209.647 18.6836 209.696 19.263 209.794 19.7969C209.898 20.3242 210.061 20.7962 210.282 21.2129C210.503 21.6296 210.78 21.9583 211.112 22.1992C211.451 22.4336 211.867 22.5508 212.362 22.5508C213.176 22.5508 213.82 22.1569 214.296 21.3691C214.771 20.5814 215.009 19.4941 215.009 18.1074ZM230.261 23H225.545V22.3555C225.694 22.3424 225.857 22.3294 226.033 22.3164C226.215 22.3034 226.365 22.2773 226.482 22.2383C226.664 22.1797 226.798 22.0788 226.882 21.9355C226.974 21.7858 227.019 21.5938 227.019 21.3594V16.4082C227.019 15.7246 226.856 15.1973 226.531 14.8262C226.212 14.4551 225.821 14.2695 225.359 14.2695C225.014 14.2695 224.698 14.3249 224.412 14.4355C224.125 14.5397 223.871 14.6699 223.65 14.8262C223.435 14.9759 223.263 15.1387 223.132 15.3145C223.009 15.4837 222.918 15.6204 222.859 15.7246V21.2617C222.859 21.4831 222.905 21.6654 222.996 21.8086C223.087 21.9518 223.224 22.0625 223.406 22.1406C223.543 22.2057 223.689 22.2546 223.845 22.2871C224.008 22.3197 224.174 22.3424 224.343 22.3555V23H219.627V22.3555C219.776 22.3424 219.929 22.3294 220.086 22.3164C220.248 22.3034 220.388 22.2773 220.505 22.2383C220.688 22.1797 220.821 22.0788 220.906 21.9355C220.997 21.7858 221.043 21.5938 221.043 21.3594V15.4121C221.043 15.1908 220.994 14.9889 220.896 14.8066C220.805 14.6178 220.675 14.4648 220.505 14.3477C220.382 14.2695 220.235 14.2142 220.066 14.1816C219.897 14.1426 219.714 14.1165 219.519 14.1035V13.4688L222.722 13.2539L222.859 13.3906V14.748H222.908C223.064 14.5918 223.259 14.4062 223.494 14.1914C223.728 13.9701 223.949 13.791 224.158 13.6543C224.399 13.498 224.685 13.3678 225.017 13.2637C225.349 13.1595 225.724 13.1074 226.14 13.1074C227.065 13.1074 227.748 13.3971 228.191 13.9766C228.64 14.5495 228.865 15.3145 228.865 16.2715V21.2812C228.865 21.5091 228.904 21.6947 228.982 21.8379C229.06 21.9746 229.194 22.082 229.382 22.1602C229.539 22.2253 229.672 22.2708 229.783 22.2969C229.9 22.3229 230.059 22.3424 230.261 22.3555V23ZM243.19 22.8242L239.83 23.0391L239.684 22.9023V22.0039L239.606 21.9844C239.267 22.362 238.847 22.6712 238.346 22.9121C237.851 23.153 237.34 23.2734 236.813 23.2734C236.266 23.2734 235.735 23.153 235.221 22.9121C234.713 22.6647 234.271 22.3197 233.893 21.877C233.509 21.4277 233.203 20.8874 232.975 20.2559C232.754 19.6243 232.643 18.9277 232.643 18.166C232.643 17.4694 232.763 16.8086 233.004 16.1836C233.245 15.5586 233.577 15.0117 234 14.543C234.398 14.1068 234.883 13.7585 235.455 13.498C236.035 13.2376 236.624 13.1074 237.223 13.1074C237.672 13.1074 238.112 13.166 238.541 13.2832C238.978 13.3939 239.352 13.5371 239.664 13.7129V10.3633C239.664 10.0898 239.619 9.84245 239.528 9.62109C239.437 9.39323 239.31 9.2207 239.147 9.10352C238.965 8.97982 238.717 8.89193 238.405 8.83984C238.099 8.78125 237.767 8.73893 237.409 8.71289V8.10742L241.344 7.88281L241.491 8.0293V21.0176C241.491 21.2454 241.533 21.4408 241.618 21.6035C241.709 21.7598 241.839 21.8932 242.008 22.0039C242.132 22.082 242.311 22.1309 242.545 22.1504C242.78 22.1699 242.995 22.1829 243.19 22.1895V22.8242ZM239.664 21.1348V15.5C239.612 15.3307 239.528 15.1484 239.411 14.9531C239.293 14.7578 239.147 14.5788 238.971 14.416C238.782 14.2533 238.561 14.1198 238.307 14.0156C238.053 13.9049 237.757 13.8496 237.418 13.8496C237.028 13.8496 236.666 13.9505 236.334 14.1523C236.009 14.3542 235.719 14.6439 235.465 15.0215C235.224 15.3861 235.032 15.8516 234.889 16.418C234.752 16.9779 234.684 17.5996 234.684 18.2832C234.684 18.8301 234.736 19.3281 234.84 19.7773C234.944 20.2201 235.12 20.6335 235.368 21.0176C235.595 21.3822 235.885 21.6751 236.237 21.8965C236.595 22.1178 237.018 22.2285 237.506 22.2285C238.027 22.2285 238.457 22.1146 238.795 21.8867C239.14 21.6589 239.43 21.4082 239.664 21.1348ZM254.712 18.0879C254.712 18.765 254.605 19.4323 254.39 20.0898C254.175 20.7409 253.869 21.2943 253.472 21.75C253.023 22.2708 252.502 22.6582 251.909 22.9121C251.317 23.166 250.653 23.293 249.917 23.293C249.305 23.293 248.723 23.179 248.169 22.9512C247.616 22.7168 247.124 22.3783 246.695 21.9355C246.271 21.4993 245.933 20.9688 245.679 20.3438C245.432 19.7122 245.308 19.0059 245.308 18.2246C245.308 16.7207 245.744 15.4902 246.616 14.5332C247.495 13.5762 248.644 13.0977 250.064 13.0977C251.411 13.0977 252.521 13.5534 253.394 14.4648C254.273 15.3698 254.712 16.5775 254.712 18.0879ZM252.691 18.1074C252.691 17.6191 252.642 17.1048 252.544 16.5645C252.446 16.0176 252.3 15.5553 252.105 15.1777C251.896 14.7741 251.623 14.4518 251.284 14.2109C250.946 13.9635 250.532 13.8398 250.044 13.8398C249.543 13.8398 249.113 13.9635 248.755 14.2109C248.404 14.4583 248.117 14.7969 247.896 15.2266C247.687 15.6237 247.541 16.0762 247.456 16.584C247.372 17.0918 247.329 17.5833 247.329 18.0586C247.329 18.6836 247.378 19.263 247.476 19.7969C247.58 20.3242 247.743 20.7962 247.964 21.2129C248.185 21.6296 248.462 21.9583 248.794 22.1992C249.133 22.4336 249.549 22.5508 250.044 22.5508C250.858 22.5508 251.502 22.1569 251.978 21.3691C252.453 20.5814 252.691 19.4941 252.691 18.1074ZM267.943 23H263.227V22.3555C263.376 22.3424 263.539 22.3294 263.715 22.3164C263.897 22.3034 264.047 22.2773 264.164 22.2383C264.346 22.1797 264.48 22.0788 264.564 21.9355C264.656 21.7858 264.701 21.5938 264.701 21.3594V16.4082C264.701 15.7246 264.538 15.1973 264.213 14.8262C263.894 14.4551 263.503 14.2695 263.041 14.2695C262.696 14.2695 262.38 14.3249 262.094 14.4355C261.807 14.5397 261.553 14.6699 261.332 14.8262C261.117 14.9759 260.945 15.1387 260.814 15.3145C260.691 15.4837 260.6 15.6204 260.541 15.7246V21.2617C260.541 21.4831 260.587 21.6654 260.678 21.8086C260.769 21.9518 260.906 22.0625 261.088 22.1406C261.225 22.2057 261.371 22.2546 261.527 22.2871C261.69 22.3197 261.856 22.3424 262.025 22.3555V23H257.309V22.3555C257.458 22.3424 257.611 22.3294 257.768 22.3164C257.93 22.3034 258.07 22.2773 258.188 22.2383C258.37 22.1797 258.503 22.0788 258.588 21.9355C258.679 21.7858 258.725 21.5938 258.725 21.3594V15.4121C258.725 15.1908 258.676 14.9889 258.578 14.8066C258.487 14.6178 258.357 14.4648 258.188 14.3477C258.064 14.2695 257.917 14.2142 257.748 14.1816C257.579 14.1426 257.396 14.1165 257.201 14.1035V13.4688L260.404 13.2539L260.541 13.3906V14.748H260.59C260.746 14.5918 260.941 14.4062 261.176 14.1914C261.41 13.9701 261.632 13.791 261.84 13.6543C262.081 13.498 262.367 13.3678 262.699 13.2637C263.031 13.1595 263.406 13.1074 263.822 13.1074C264.747 13.1074 265.43 13.3971 265.873 13.9766C266.322 14.5495 266.547 15.3145 266.547 16.2715V21.2812C266.547 21.5091 266.586 21.6947 266.664 21.8379C266.742 21.9746 266.876 22.082 267.064 22.1602C267.221 22.2253 267.354 22.2708 267.465 22.2969C267.582 22.3229 267.742 22.3424 267.943 22.3555V23Z" fill="#F1CDB3"/>
<path d="M11 0C4.93475 0 3.05176e-05 4.78519 3.05176e-05 10.6667C3.05176e-05 12.4323 0.455262 14.1829 1.32067 15.7357L10.3985 31.6562C10.5193 31.8685 10.7496 32 11 32C11.2504 32 11.4807 31.8685 11.6016 31.6562L20.6827 15.7304C21.5448 14.1829 22 12.4323 22 10.6666C22 4.78519 17.0653 0 11 0ZM19.4762 15.0905L11 29.9557L2.52717 15.0964C1.7732 13.7435 1.37507 12.2116 1.37507 10.6667C1.37507 5.52019 5.69278 1.33337 11 1.33337C16.3073 1.33337 20.625 5.52025 20.625 10.6667C20.625 12.2116 20.2269 13.7435 19.4762 15.0905Z" fill="#F1CDB3"/>
<path d="M11 5.33329C7.9674 5.33329 5.50008 7.72585 5.50008 10.6666C5.50008 13.6074 7.9674 16 11 16C14.0327 16 16.5 13.6074 16.5 10.6667C16.5 7.72592 14.0327 5.33329 11 5.33329ZM11 14.6667C8.72537 14.6667 6.87505 12.8724 6.87505 10.6667C6.87505 8.46092 8.72537 6.66667 11 6.66667C13.2747 6.66667 15.125 8.46092 15.125 10.6667C15.125 12.8724 13.2747 14.6667 11 14.6667Z" fill="#F1CDB3"/>
</svg>
