<svg width="251" height="32" viewBox="0 0 251 32" fill="none" xmlns="http://www.w3.org/2000/svg">
<path d="M69.2578 20.7344C68.8542 21.5026 68.3138 22.1146 67.6367 22.5703C66.9596 23.026 66.1816 23.2539 65.3027 23.2539C64.528 23.2539 63.8477 23.1172 63.2617 22.8438C62.6823 22.5703 62.2038 22.1992 61.8262 21.7305C61.4486 21.2617 61.1654 20.7148 60.9766 20.0898C60.7943 19.4648 60.7031 18.804 60.7031 18.1074C60.7031 17.4824 60.8008 16.8704 60.9961 16.2715C61.1979 15.666 61.4909 15.1224 61.875 14.6406C62.2461 14.1784 62.7051 13.8073 63.252 13.5273C63.8053 13.2409 64.4238 13.0977 65.1074 13.0977C65.8105 13.0977 66.4128 13.2083 66.9141 13.4297C67.4154 13.651 67.8223 13.9538 68.1348 14.3379C68.4342 14.7025 68.6556 15.1322 68.7988 15.627C68.9486 16.1217 69.0234 16.6589 69.0234 17.2383V17.8828H62.6465C62.6465 18.5143 62.7051 19.0872 62.8223 19.6016C62.946 20.1159 63.138 20.5684 63.3984 20.959C63.6523 21.3366 63.9844 21.6361 64.3945 21.8574C64.8047 22.0723 65.293 22.1797 65.8594 22.1797C66.4388 22.1797 66.9368 22.0462 67.3535 21.7793C67.7767 21.5059 68.1836 21.0176 68.5742 20.3145L69.2578 20.7344ZM67.0996 17.0625C67.0996 16.6979 67.0671 16.3073 67.002 15.8906C66.9434 15.474 66.8457 15.1257 66.709 14.8457C66.5592 14.5462 66.3542 14.3021 66.0938 14.1133C65.8333 13.9245 65.498 13.8301 65.0879 13.8301C64.4043 13.8301 63.8346 14.1165 63.3789 14.6895C62.9297 15.2559 62.6855 16.0469 62.6465 17.0625H67.0996ZM88.0652 23H83.368V22.3555C83.5177 22.3424 83.6674 22.3294 83.8172 22.3164C83.9734 22.3034 84.1102 22.2773 84.2273 22.2383C84.4096 22.1797 84.5431 22.0788 84.6277 21.9355C84.7189 21.7858 84.7645 21.5938 84.7645 21.3594V16.3887C84.7645 15.7116 84.6082 15.1908 84.2957 14.8262C83.9897 14.4551 83.6056 14.2695 83.1434 14.2695C82.8243 14.2695 82.5249 14.3184 82.2449 14.416C81.965 14.5137 81.7078 14.6504 81.4734 14.8262C81.2846 14.9694 81.1251 15.1257 80.9949 15.2949C80.8712 15.4577 80.7768 15.5944 80.7117 15.7051V21.2617C80.7117 21.4896 80.7508 21.6784 80.8289 21.8281C80.907 21.9714 81.0405 22.082 81.2293 22.1602C81.379 22.2188 81.5125 22.2643 81.6297 22.2969C81.7534 22.3229 81.9129 22.3424 82.1082 22.3555V23H77.5086V22.3555C77.6583 22.3424 77.8016 22.3294 77.9383 22.3164C78.0815 22.3034 78.2117 22.2773 78.3289 22.2383C78.5112 22.1797 78.6447 22.0788 78.7293 21.9355C78.8204 21.7858 78.866 21.5938 78.866 21.3594V16.3887C78.866 15.7116 78.7098 15.1908 78.3973 14.8262C78.0913 14.4551 77.7072 14.2695 77.2449 14.2695C76.9259 14.2695 76.6264 14.3216 76.3465 14.4258C76.0665 14.5234 75.8094 14.6602 75.575 14.8359C75.3862 14.9792 75.2267 15.1419 75.0965 15.3242C74.9663 15.5 74.8686 15.6335 74.8035 15.7246V21.2422C74.8035 21.4635 74.8491 21.6491 74.9402 21.7988C75.0314 21.9486 75.1681 22.0625 75.3504 22.1406C75.4871 22.2057 75.6271 22.2546 75.7703 22.2871C75.9135 22.3197 76.073 22.3424 76.2488 22.3555V23H71.5711V22.3555C71.7208 22.3424 71.8738 22.3294 72.0301 22.3164C72.1928 22.3034 72.3328 22.2773 72.45 22.2383C72.6323 22.1797 72.7658 22.0788 72.8504 21.9355C72.9415 21.7858 72.9871 21.5938 72.9871 21.3594V15.373C72.9871 15.1647 72.9383 14.9792 72.8406 14.8164C72.7495 14.6471 72.6193 14.5039 72.45 14.3867C72.3263 14.3086 72.1733 14.2467 71.991 14.2012C71.8087 14.1491 71.6199 14.1165 71.4246 14.1035V13.4688L74.6473 13.2539L74.784 13.3906V14.7676H74.8523C75.0151 14.6048 75.2137 14.4128 75.448 14.1914C75.6824 13.9701 75.9005 13.791 76.1023 13.6543C76.3302 13.498 76.6134 13.3678 76.952 13.2637C77.297 13.1595 77.6681 13.1074 78.0652 13.1074C78.6902 13.1074 79.2273 13.2767 79.6766 13.6152C80.1258 13.9473 80.448 14.3509 80.6434 14.8262C80.8777 14.5983 81.0828 14.3997 81.2586 14.2305C81.4409 14.0547 81.6785 13.8691 81.9715 13.6738C82.2189 13.5046 82.5086 13.3678 82.8406 13.2637C83.1792 13.1595 83.5535 13.1074 83.9637 13.1074C84.7775 13.1074 85.422 13.3743 85.8973 13.9082C86.3725 14.4421 86.6102 15.2624 86.6102 16.3691V21.2617C86.6102 21.4896 86.6492 21.6784 86.7273 21.8281C86.8055 21.9714 86.9389 22.082 87.1277 22.1602C87.2775 22.2188 87.424 22.2643 87.5672 22.2969C87.7169 22.3229 87.8829 22.3424 88.0652 22.3555V23ZM99.5094 22.8242C99.2034 22.9349 98.9332 23.0228 98.6988 23.0879C98.471 23.1595 98.2105 23.1953 97.9176 23.1953C97.4098 23.1953 97.0029 23.0781 96.6969 22.8438C96.3974 22.6029 96.2053 22.2546 96.1207 21.7988H96.0621C95.6389 22.2676 95.1832 22.6257 94.6949 22.873C94.2132 23.1204 93.6305 23.2441 92.9469 23.2441C92.2242 23.2441 91.6285 23.0228 91.1598 22.5801C90.6975 22.1374 90.4664 21.5579 90.4664 20.8418C90.4664 20.4707 90.5185 20.1387 90.6227 19.8457C90.7268 19.5527 90.8831 19.2891 91.0914 19.0547C91.2542 18.8594 91.469 18.6868 91.7359 18.5371C92.0029 18.3809 92.2535 18.2572 92.4879 18.166C92.7809 18.0553 93.3733 17.8503 94.2652 17.5508C95.1637 17.2513 95.7691 17.0169 96.0816 16.8477V15.8809C96.0816 15.7962 96.0621 15.6335 96.023 15.3926C95.9905 15.1517 95.9156 14.9238 95.7984 14.709C95.6682 14.4681 95.4827 14.2598 95.2418 14.084C95.0074 13.9017 94.6721 13.8105 94.2359 13.8105C93.9365 13.8105 93.6565 13.8626 93.3961 13.9668C93.1422 14.0645 92.9632 14.1686 92.859 14.2793C92.859 14.4095 92.8883 14.6016 92.9469 14.8555C93.012 15.1094 93.0445 15.3438 93.0445 15.5586C93.0445 15.7865 92.9404 15.9948 92.732 16.1836C92.5302 16.3724 92.247 16.4668 91.8824 16.4668C91.5569 16.4668 91.316 16.3529 91.1598 16.125C91.01 15.8906 90.9352 15.6302 90.9352 15.3438C90.9352 15.0443 91.0393 14.7578 91.2477 14.4844C91.4625 14.2109 91.7392 13.9668 92.0777 13.752C92.3707 13.5697 92.7255 13.4167 93.1422 13.293C93.5589 13.1628 93.9658 13.0977 94.3629 13.0977C94.9098 13.0977 95.385 13.1367 95.7887 13.2148C96.1988 13.2865 96.5699 13.446 96.902 13.6934C97.234 13.9342 97.4846 14.263 97.6539 14.6797C97.8297 15.0898 97.9176 15.6204 97.9176 16.2715C97.9176 17.2025 97.9078 18.0293 97.8883 18.752C97.8687 19.4681 97.859 20.2526 97.859 21.1055C97.859 21.3594 97.9013 21.5612 97.9859 21.7109C98.0771 21.8607 98.2138 21.9876 98.3961 22.0918C98.4937 22.1504 98.6467 22.1829 98.8551 22.1895C99.0699 22.196 99.288 22.1992 99.5094 22.1992V22.8242ZM96.1012 17.668C95.5478 17.8307 95.0628 17.9902 94.6461 18.1465C94.2294 18.3027 93.8421 18.498 93.484 18.7324C93.1585 18.9538 92.9013 19.2174 92.7125 19.5234C92.5237 19.8229 92.4293 20.181 92.4293 20.5977C92.4293 21.138 92.5693 21.5352 92.8492 21.7891C93.1357 22.043 93.497 22.1699 93.9332 22.1699C94.3954 22.1699 94.8023 22.0592 95.1539 21.8379C95.5055 21.61 95.8017 21.3431 96.0426 21.0371L96.1012 17.668ZM106.344 23H101.686V22.3555C101.836 22.3424 101.989 22.3294 102.145 22.3164C102.308 22.3034 102.448 22.2773 102.565 22.2383C102.747 22.1797 102.881 22.0788 102.965 21.9355C103.056 21.7858 103.102 21.5938 103.102 21.3594V15.4121C103.102 15.2038 103.053 15.015 102.955 14.8457C102.864 14.6699 102.734 14.5234 102.565 14.4062C102.441 14.3281 102.262 14.263 102.028 14.2109C101.793 14.1523 101.579 14.1165 101.383 14.1035V13.4688L104.782 13.2539L104.918 13.3906V21.2422C104.918 21.4701 104.961 21.6589 105.045 21.8086C105.136 21.9583 105.276 22.069 105.465 22.1406C105.608 22.1992 105.748 22.248 105.885 22.2871C106.022 22.3197 106.175 22.3424 106.344 22.3555V23ZM105.114 9.45508C105.114 9.82617 104.99 10.1517 104.743 10.4316C104.502 10.7051 104.202 10.8418 103.844 10.8418C103.512 10.8418 103.222 10.7116 102.975 10.4512C102.734 10.1842 102.614 9.88151 102.614 9.54297C102.614 9.1849 102.734 8.8724 102.975 8.60547C103.222 8.33854 103.512 8.20508 103.844 8.20508C104.215 8.20508 104.518 8.33203 104.752 8.58594C104.993 8.83333 105.114 9.12305 105.114 9.45508ZM113.237 23H108.54V22.3555C108.69 22.3424 108.849 22.3294 109.019 22.3164C109.188 22.2969 109.328 22.2708 109.439 22.2383C109.621 22.1797 109.758 22.0788 109.849 21.9355C109.94 21.7858 109.986 21.5938 109.986 21.3594V10.207C109.986 9.97266 109.933 9.75456 109.829 9.55273C109.732 9.3444 109.601 9.18164 109.439 9.06445C109.321 8.98633 109.107 8.91471 108.794 8.84961C108.482 8.78451 108.231 8.74544 108.042 8.73242V8.10742L111.665 7.88281L111.802 8.0293V21.2422C111.802 21.4701 111.844 21.6589 111.929 21.8086C112.014 21.9518 112.15 22.0625 112.339 22.1406C112.482 22.2057 112.622 22.2546 112.759 22.2871C112.902 22.3197 113.062 22.3424 113.237 22.3555V23ZM129.887 24.1621C129.236 24.7285 128.461 25.1842 127.562 25.5293C126.671 25.8809 125.674 26.0566 124.574 26.0566C123.591 26.0566 122.624 25.8971 121.674 25.5781C120.723 25.2656 119.867 24.7871 119.105 24.1426C118.35 23.498 117.742 22.6973 117.279 21.7402C116.817 20.7767 116.586 19.6439 116.586 18.3418C116.586 17.2285 116.794 16.1478 117.211 15.0996C117.628 14.0514 118.223 13.1172 118.998 12.2969C119.747 11.4961 120.671 10.8516 121.771 10.3633C122.878 9.86849 124.083 9.62109 125.385 9.62109C126.511 9.62109 127.488 9.80339 128.314 10.168C129.141 10.526 129.818 11.0013 130.346 11.5938C130.873 12.1797 131.267 12.8535 131.527 13.6152C131.794 14.377 131.928 15.1712 131.928 15.998C131.928 17.5866 131.492 18.931 130.619 20.0312C129.747 21.125 128.643 21.6719 127.309 21.6719C126.755 21.6719 126.286 21.5352 125.902 21.2617C125.518 20.9818 125.303 20.5911 125.258 20.0898L125.189 20.0703C124.877 20.5456 124.519 20.9264 124.115 21.2129C123.718 21.4928 123.314 21.6328 122.904 21.6328C122.637 21.6328 122.364 21.5905 122.084 21.5059C121.811 21.4147 121.566 21.2682 121.352 21.0664C121.137 20.8516 120.964 20.5716 120.834 20.2266C120.71 19.8815 120.648 19.4551 120.648 18.9473C120.648 18.472 120.756 17.9414 120.971 17.3555C121.192 16.763 121.488 16.1999 121.859 15.666C122.23 15.1257 122.709 14.6569 123.295 14.2598C123.887 13.8626 124.525 13.6641 125.209 13.6641C125.574 13.6641 125.896 13.7682 126.176 13.9766C126.462 14.1784 126.638 14.4779 126.703 14.875H126.762L127.182 13.7812H128.637L126.791 19.0352C126.732 19.1979 126.684 19.3867 126.645 19.6016C126.612 19.8099 126.596 19.9759 126.596 20.0996C126.596 20.4316 126.68 20.6758 126.85 20.832C127.019 20.9818 127.237 21.0566 127.504 21.0566C128.513 21.0566 129.356 20.5846 130.033 19.6406C130.71 18.6901 131.049 17.4401 131.049 15.8906C131.049 15.1224 130.928 14.4128 130.688 13.7617C130.447 13.1042 130.079 12.5247 129.584 12.0234C129.109 11.5286 128.51 11.138 127.787 10.8516C127.064 10.5651 126.238 10.4219 125.307 10.4219C124.421 10.4219 123.559 10.5944 122.719 10.9395C121.879 11.2845 121.114 11.7923 120.424 12.4629C119.753 13.1139 119.21 13.9245 118.793 14.8945C118.376 15.8646 118.168 16.9616 118.168 18.1855C118.168 19.3639 118.331 20.4023 118.656 21.3008C118.982 22.1927 119.441 22.9414 120.033 23.5469C120.613 24.1328 121.296 24.5723 122.084 24.8652C122.872 25.1582 123.725 25.3047 124.643 25.3047C125.678 25.3047 126.599 25.1647 127.406 24.8848C128.214 24.6048 128.939 24.1979 129.584 23.6641L129.887 24.1621ZM126.488 15.7539C126.397 15.2266 126.251 14.8424 126.049 14.6016C125.847 14.3607 125.551 14.2402 125.16 14.2402C124.743 14.2402 124.359 14.4095 124.008 14.748C123.663 15.0801 123.37 15.4772 123.129 15.9395C122.875 16.4212 122.676 16.9486 122.533 17.5215C122.396 18.0879 122.328 18.612 122.328 19.0938C122.328 19.6471 122.393 20.0736 122.523 20.373C122.66 20.666 122.882 20.8125 123.188 20.8125C123.63 20.8125 124.027 20.6595 124.379 20.3535C124.73 20.0475 125.059 19.6146 125.365 19.0547L126.488 15.7539ZM141.78 18.2832C142.047 18.5176 142.252 18.7878 142.395 19.0938C142.539 19.3997 142.61 19.7741 142.61 20.2168C142.61 21.1087 142.275 21.8379 141.604 22.4043C140.94 22.9707 140.078 23.2539 139.016 23.2539C138.457 23.2539 137.939 23.153 137.464 22.9512C136.995 22.7493 136.66 22.5638 136.458 22.3945L136.262 23.0293H135.53L135.432 19.6797H136.106C136.158 19.9336 136.269 20.2298 136.438 20.5684C136.608 20.9069 136.813 21.2129 137.054 21.4863C137.307 21.7728 137.61 22.0137 137.962 22.209C138.32 22.4043 138.72 22.502 139.163 22.502C139.788 22.502 140.27 22.362 140.608 22.082C140.947 21.7956 141.116 21.3887 141.116 20.8613C141.116 20.5879 141.061 20.3535 140.95 20.1582C140.846 19.9564 140.69 19.7806 140.481 19.6309C140.266 19.4811 140.003 19.3477 139.69 19.2305C139.378 19.1068 139.029 18.9863 138.645 18.8691C138.339 18.778 137.998 18.6543 137.62 18.498C137.249 18.3353 136.93 18.1465 136.663 17.9316C136.376 17.7038 136.142 17.4238 135.96 17.0918C135.777 16.7598 135.686 16.3691 135.686 15.9199C135.686 15.1322 135.979 14.4648 136.565 13.918C137.151 13.3711 137.936 13.0977 138.919 13.0977C139.296 13.0977 139.68 13.1465 140.071 13.2441C140.468 13.3418 140.79 13.459 141.038 13.5957L141.262 13.0879H141.966L142.112 16.1836H141.438C141.302 15.4935 141.005 14.9336 140.55 14.5039C140.1 14.0677 139.55 13.8496 138.899 13.8496C138.365 13.8496 137.945 13.9831 137.639 14.25C137.333 14.5169 137.18 14.8392 137.18 15.2168C137.18 15.5098 137.229 15.7539 137.327 15.9492C137.431 16.1445 137.584 16.3105 137.786 16.4473C137.981 16.5775 138.225 16.7012 138.518 16.8184C138.818 16.929 139.186 17.056 139.622 17.1992C140.052 17.3359 140.455 17.4954 140.833 17.6777C141.217 17.86 141.533 18.0618 141.78 18.2832ZM155.734 23H151.007V22.3555C151.157 22.3424 151.323 22.3294 151.505 22.3164C151.688 22.3034 151.838 22.2773 151.955 22.2383C152.137 22.1797 152.27 22.0788 152.355 21.9355C152.446 21.7858 152.492 21.5938 152.492 21.3594V16.4082C152.492 15.7246 152.329 15.1973 152.004 14.8262C151.685 14.4551 151.294 14.2695 150.832 14.2695C150.493 14.2695 150.177 14.3249 149.884 14.4355C149.598 14.5397 149.341 14.6699 149.113 14.8262C148.892 14.9889 148.722 15.1517 148.605 15.3145C148.488 15.4772 148.397 15.6139 148.332 15.7246V21.2617C148.332 21.4831 148.374 21.6654 148.459 21.8086C148.55 21.9518 148.686 22.0625 148.869 22.1406C149.012 22.2057 149.158 22.2546 149.308 22.2871C149.464 22.3197 149.634 22.3424 149.816 22.3555V23H145.089V22.3555C145.239 22.3424 145.395 22.3294 145.558 22.3164C145.721 22.2969 145.858 22.2708 145.968 22.2383C146.151 22.1797 146.287 22.0788 146.379 21.9355C146.47 21.7858 146.515 21.5938 146.515 21.3594V10.1484C146.515 9.92708 146.463 9.70573 146.359 9.48438C146.261 9.26302 146.131 9.09701 145.968 8.98633C145.851 8.90169 145.643 8.8431 145.343 8.81055C145.05 8.77148 144.813 8.74544 144.63 8.73242V8.10742L148.195 7.88281L148.332 8.0293V14.748H148.371C148.586 14.5332 148.781 14.3444 148.957 14.1816C149.132 14.0124 149.364 13.8366 149.65 13.6543C149.897 13.498 150.187 13.3678 150.519 13.2637C150.858 13.1595 151.235 13.1074 151.652 13.1074C152.511 13.1074 153.172 13.3809 153.634 13.9277C154.097 14.4681 154.328 15.2493 154.328 16.2715V21.2812C154.328 21.5091 154.367 21.6947 154.445 21.8379C154.53 21.9746 154.666 22.082 154.855 22.1602C155.005 22.2188 155.138 22.2643 155.255 22.2969C155.379 22.3229 155.539 22.3424 155.734 22.3555V23ZM166.67 20.7344C166.267 21.5026 165.726 22.1146 165.049 22.5703C164.372 23.026 163.594 23.2539 162.715 23.2539C161.94 23.2539 161.26 23.1172 160.674 22.8438C160.095 22.5703 159.616 22.1992 159.239 21.7305C158.861 21.2617 158.578 20.7148 158.389 20.0898C158.207 19.4648 158.116 18.804 158.116 18.1074C158.116 17.4824 158.213 16.8704 158.409 16.2715C158.61 15.666 158.903 15.1224 159.287 14.6406C159.659 14.1784 160.118 13.8073 160.664 13.5273C161.218 13.2409 161.836 13.0977 162.52 13.0977C163.223 13.0977 163.825 13.2083 164.327 13.4297C164.828 13.651 165.235 13.9538 165.547 14.3379C165.847 14.7025 166.068 15.1322 166.211 15.627C166.361 16.1217 166.436 16.6589 166.436 17.2383V17.8828H160.059C160.059 18.5143 160.118 19.0872 160.235 19.6016C160.358 20.1159 160.551 20.5684 160.811 20.959C161.065 21.3366 161.397 21.6361 161.807 21.8574C162.217 22.0723 162.705 22.1797 163.272 22.1797C163.851 22.1797 164.349 22.0462 164.766 21.7793C165.189 21.5059 165.596 21.0176 165.987 20.3145L166.67 20.7344ZM164.512 17.0625C164.512 16.6979 164.48 16.3073 164.414 15.8906C164.356 15.474 164.258 15.1257 164.121 14.8457C163.972 14.5462 163.767 14.3021 163.506 14.1133C163.246 13.9245 162.911 13.8301 162.5 13.8301C161.817 13.8301 161.247 14.1165 160.791 14.6895C160.342 15.2559 160.098 16.0469 160.059 17.0625H164.512ZM173.495 23H168.798V22.3555C168.948 22.3424 169.107 22.3294 169.277 22.3164C169.446 22.2969 169.586 22.2708 169.696 22.2383C169.879 22.1797 170.015 22.0788 170.107 21.9355C170.198 21.7858 170.243 21.5938 170.243 21.3594V10.207C170.243 9.97266 170.191 9.75456 170.087 9.55273C169.989 9.3444 169.859 9.18164 169.696 9.06445C169.579 8.98633 169.364 8.91471 169.052 8.84961C168.739 8.78451 168.489 8.74544 168.3 8.73242V8.10742L171.923 7.88281L172.06 8.0293V21.2422C172.06 21.4701 172.102 21.6589 172.187 21.8086C172.271 21.9518 172.408 22.0625 172.597 22.1406C172.74 22.2057 172.88 22.2546 173.017 22.2871C173.16 22.3197 173.32 22.3424 173.495 22.3555V23ZM181.854 22.5801C181.43 22.7559 181.03 22.9023 180.652 23.0195C180.275 23.1432 179.812 23.2051 179.266 23.2051C178.458 23.2051 177.889 23.0033 177.557 22.5996C177.231 22.1895 177.068 21.6133 177.068 20.8711V14.3477H175.33V13.4102H177.107V10.4121H178.885V13.4102H181.648V14.3477H178.904V19.7285C178.904 20.1322 178.917 20.4707 178.943 20.7441C178.976 21.0111 179.048 21.2454 179.158 21.4473C179.262 21.6361 179.419 21.7793 179.627 21.877C179.835 21.9746 180.115 22.0234 180.467 22.0234C180.63 22.0234 180.867 22.0104 181.18 21.9844C181.499 21.9518 181.723 21.9128 181.854 21.8672V22.5801ZM192.575 20.7344C192.171 21.5026 191.631 22.1146 190.954 22.5703C190.277 23.026 189.499 23.2539 188.62 23.2539C187.845 23.2539 187.165 23.1172 186.579 22.8438C185.999 22.5703 185.521 22.1992 185.143 21.7305C184.766 21.2617 184.483 20.7148 184.294 20.0898C184.111 19.4648 184.02 18.804 184.02 18.1074C184.02 17.4824 184.118 16.8704 184.313 16.2715C184.515 15.666 184.808 15.1224 185.192 14.6406C185.563 14.1784 186.022 13.8073 186.569 13.5273C187.123 13.2409 187.741 13.0977 188.425 13.0977C189.128 13.0977 189.73 13.2083 190.231 13.4297C190.733 13.651 191.139 13.9538 191.452 14.3379C191.751 14.7025 191.973 15.1322 192.116 15.627C192.266 16.1217 192.341 16.6589 192.341 17.2383V17.8828H185.964C185.964 18.5143 186.022 19.0872 186.139 19.6016C186.263 20.1159 186.455 20.5684 186.716 20.959C186.97 21.3366 187.302 21.6361 187.712 21.8574C188.122 22.0723 188.61 22.1797 189.177 22.1797C189.756 22.1797 190.254 22.0462 190.671 21.7793C191.094 21.5059 191.501 21.0176 191.891 20.3145L192.575 20.7344ZM190.417 17.0625C190.417 16.6979 190.384 16.3073 190.319 15.8906C190.261 15.474 190.163 15.1257 190.026 14.8457C189.876 14.5462 189.671 14.3021 189.411 14.1133C189.151 13.9245 188.815 13.8301 188.405 13.8301C187.721 13.8301 187.152 14.1165 186.696 14.6895C186.247 15.2559 186.003 16.0469 185.964 17.0625H190.417ZM202.261 14.6113C202.261 14.9434 202.18 15.2396 202.017 15.5C201.854 15.7539 201.604 15.8809 201.265 15.8809C200.901 15.8809 200.621 15.7865 200.425 15.5977C200.237 15.4089 200.142 15.2005 200.142 14.9727C200.142 14.8294 200.152 14.6992 200.171 14.582C200.198 14.4648 200.22 14.3477 200.24 14.2305C199.934 14.2305 199.576 14.3542 199.166 14.6016C198.755 14.849 198.407 15.2005 198.121 15.6562V21.2617C198.121 21.4896 198.163 21.6751 198.248 21.8184C198.339 21.9616 198.479 22.069 198.668 22.1406C198.83 22.2057 199.039 22.2546 199.293 22.2871C199.553 22.3197 199.778 22.3424 199.966 22.3555V23H194.888V22.3555C195.038 22.3424 195.191 22.3294 195.347 22.3164C195.51 22.3034 195.65 22.2773 195.767 22.2383C195.949 22.1797 196.083 22.0788 196.168 21.9355C196.259 21.7858 196.304 21.5938 196.304 21.3594V15.4121C196.304 15.2103 196.255 15.0117 196.158 14.8164C196.067 14.6211 195.936 14.4648 195.767 14.3477C195.643 14.2695 195.497 14.2142 195.328 14.1816C195.158 14.1426 194.976 14.1165 194.781 14.1035V13.4688L197.984 13.2539L198.121 13.3906V14.748H198.17C198.573 14.2207 199.022 13.8203 199.517 13.5469C200.012 13.2734 200.464 13.1367 200.875 13.1367C201.285 13.1367 201.617 13.2702 201.871 13.5371C202.131 13.804 202.261 14.1621 202.261 14.6113ZM207.641 21.877C207.641 22.2415 207.508 22.554 207.241 22.8145C206.98 23.0684 206.668 23.1953 206.303 23.1953C205.939 23.1953 205.623 23.0684 205.356 22.8145C205.095 22.554 204.965 22.2415 204.965 21.877C204.965 21.5124 205.095 21.1999 205.356 20.9395C205.623 20.6725 205.939 20.5391 206.303 20.5391C206.668 20.5391 206.98 20.6725 207.241 20.9395C207.508 21.1999 207.641 21.5124 207.641 21.877ZM215.335 23.2539C213.942 23.2539 212.851 22.7917 212.064 21.8672C211.276 20.9427 210.882 19.7025 210.882 18.1465C210.882 17.4694 210.986 16.8379 211.195 16.252C211.409 15.6595 211.719 15.1224 212.122 14.6406C212.506 14.1784 212.988 13.8073 213.568 13.5273C214.147 13.2409 214.779 13.0977 215.462 13.0977C216.406 13.0977 217.174 13.3255 217.767 13.7812C218.359 14.2305 218.655 14.8457 218.655 15.627C218.655 15.9525 218.577 16.2422 218.421 16.4961C218.265 16.7435 218.008 16.8672 217.65 16.8672C217.265 16.8672 216.966 16.7695 216.751 16.5742C216.543 16.3789 216.439 16.1608 216.439 15.9199C216.439 15.627 216.478 15.3275 216.556 15.0215C216.634 14.709 216.68 14.4811 216.693 14.3379C216.575 14.1361 216.4 14.0026 216.165 13.9375C215.937 13.8659 215.69 13.8301 215.423 13.8301C215.111 13.8301 214.811 13.8984 214.525 14.0352C214.245 14.1654 213.971 14.4095 213.704 14.7676C213.463 15.0931 213.268 15.5326 213.118 16.0859C212.969 16.6393 212.894 17.3001 212.894 18.0684C212.894 19.2793 213.161 20.2689 213.695 21.0371C214.235 21.7988 214.941 22.1797 215.814 22.1797C216.445 22.1797 216.973 22.0267 217.396 21.7207C217.825 21.4147 218.223 20.9557 218.587 20.3438L219.212 20.7539C218.782 21.5221 218.216 22.1309 217.513 22.5801C216.81 23.0293 216.084 23.2539 215.335 23.2539ZM230.549 18.0879C230.549 18.765 230.441 19.4323 230.227 20.0898C230.012 20.7409 229.706 21.2943 229.309 21.75C228.859 22.2708 228.339 22.6582 227.746 22.9121C227.154 23.166 226.49 23.293 225.754 23.293C225.142 23.293 224.559 23.179 224.006 22.9512C223.452 22.7168 222.961 22.3783 222.531 21.9355C222.108 21.4993 221.77 20.9688 221.516 20.3438C221.268 19.7122 221.145 19.0059 221.145 18.2246C221.145 16.7207 221.581 15.4902 222.453 14.5332C223.332 13.5762 224.481 13.0977 225.9 13.0977C227.248 13.0977 228.358 13.5534 229.23 14.4648C230.109 15.3698 230.549 16.5775 230.549 18.0879ZM228.527 18.1074C228.527 17.6191 228.479 17.1048 228.381 16.5645C228.283 16.0176 228.137 15.5553 227.941 15.1777C227.733 14.7741 227.46 14.4518 227.121 14.2109C226.783 13.9635 226.369 13.8398 225.881 13.8398C225.38 13.8398 224.95 13.9635 224.592 14.2109C224.24 14.4583 223.954 14.7969 223.732 15.2266C223.524 15.6237 223.378 16.0762 223.293 16.584C223.208 17.0918 223.166 17.5833 223.166 18.0586C223.166 18.6836 223.215 19.263 223.312 19.7969C223.417 20.3242 223.579 20.7962 223.801 21.2129C224.022 21.6296 224.299 21.9583 224.631 22.1992C224.969 22.4336 225.386 22.5508 225.881 22.5508C226.695 22.5508 227.339 22.1569 227.814 21.3691C228.29 20.5814 228.527 19.4941 228.527 18.1074ZM249.639 23H244.942V22.3555C245.092 22.3424 245.242 22.3294 245.391 22.3164C245.548 22.3034 245.684 22.2773 245.802 22.2383C245.984 22.1797 246.117 22.0788 246.202 21.9355C246.293 21.7858 246.339 21.5938 246.339 21.3594V16.3887C246.339 15.7116 246.182 15.1908 245.87 14.8262C245.564 14.4551 245.18 14.2695 244.718 14.2695C244.399 14.2695 244.099 14.3184 243.819 14.416C243.539 14.5137 243.282 14.6504 243.048 14.8262C242.859 14.9694 242.699 15.1257 242.569 15.2949C242.445 15.4577 242.351 15.5944 242.286 15.7051V21.2617C242.286 21.4896 242.325 21.6784 242.403 21.8281C242.481 21.9714 242.615 22.082 242.804 22.1602C242.953 22.2188 243.087 22.2643 243.204 22.2969C243.328 22.3229 243.487 22.3424 243.682 22.3555V23H239.083V22.3555C239.233 22.3424 239.376 22.3294 239.512 22.3164C239.656 22.3034 239.786 22.2773 239.903 22.2383C240.085 22.1797 240.219 22.0788 240.304 21.9355C240.395 21.7858 240.44 21.5938 240.44 21.3594V16.3887C240.44 15.7116 240.284 15.1908 239.971 14.8262C239.665 14.4551 239.281 14.2695 238.819 14.2695C238.5 14.2695 238.201 14.3216 237.921 14.4258C237.641 14.5234 237.384 14.6602 237.149 14.8359C236.96 14.9792 236.801 15.1419 236.671 15.3242C236.54 15.5 236.443 15.6335 236.378 15.7246V21.2422C236.378 21.4635 236.423 21.6491 236.514 21.7988C236.606 21.9486 236.742 22.0625 236.925 22.1406C237.061 22.2057 237.201 22.2546 237.345 22.2871C237.488 22.3197 237.647 22.3424 237.823 22.3555V23H233.145V22.3555C233.295 22.3424 233.448 22.3294 233.604 22.3164C233.767 22.3034 233.907 22.2773 234.024 22.2383C234.207 22.1797 234.34 22.0788 234.425 21.9355C234.516 21.7858 234.561 21.5938 234.561 21.3594V15.373C234.561 15.1647 234.512 14.9792 234.415 14.8164C234.324 14.6471 234.193 14.5039 234.024 14.3867C233.901 14.3086 233.748 14.2467 233.565 14.2012C233.383 14.1491 233.194 14.1165 232.999 14.1035V13.4688L236.221 13.2539L236.358 13.3906V14.7676H236.427C236.589 14.6048 236.788 14.4128 237.022 14.1914C237.257 13.9701 237.475 13.791 237.677 13.6543C237.904 13.498 238.188 13.3678 238.526 13.2637C238.871 13.1595 239.242 13.1074 239.639 13.1074C240.264 13.1074 240.802 13.2767 241.251 13.6152C241.7 13.9473 242.022 14.3509 242.218 14.8262C242.452 14.5983 242.657 14.3997 242.833 14.2305C243.015 14.0547 243.253 13.8691 243.546 13.6738C243.793 13.5046 244.083 13.3678 244.415 13.2637C244.753 13.1595 245.128 13.1074 245.538 13.1074C246.352 13.1074 246.996 13.3743 247.471 13.9082C247.947 14.4421 248.184 15.2624 248.184 16.3691V21.2617C248.184 21.4896 248.223 21.6784 248.302 21.8281C248.38 21.9714 248.513 22.082 248.702 22.1602C248.852 22.2188 248.998 22.2643 249.141 22.2969C249.291 22.3229 249.457 22.3424 249.639 22.3555V23Z" fill="#F1CDB3"/>
<path d="M39.315 3H0.684964C0.5033 3 0.329077 3.07325 0.200621 3.20362C0.0721657 3.334 0 3.51084 0 3.69522V28.3048C0 28.4892 0.0721657 28.666 0.200621 28.7964C0.329077 28.9268 0.5033 29 0.684964 29H39.315C39.4967 29 39.6709 28.9268 39.7994 28.7964C39.9278 28.666 40 28.4892 40 28.3048V3.69522C40 3.51084 39.9278 3.334 39.7994 3.20362C39.6709 3.07325 39.4967 3 39.315 3ZM32.5774 18.0331C32.6846 18.5259 32.7954 19.0355 32.6513 19.2882C32.4966 19.5596 31.9966 19.7173 31.5131 19.8699C31.1316 19.9902 30.7373 20.1147 30.3857 20.3212C30.0461 20.5206 29.7523 20.8001 29.4683 21.0704C29.0772 21.4426 28.7079 21.794 28.374 21.794C28.04 21.794 27.6706 21.4425 27.2797 21.0704C26.9956 20.8001 26.7018 20.5205 26.3622 20.3212C26.0107 20.1147 25.6163 19.9903 25.2348 19.8699C24.7513 19.7173 24.2513 19.5596 24.0967 19.2882C23.9526 19.0355 24.0633 18.5259 24.1705 18.0331C24.2584 17.6285 24.3493 17.2103 24.3493 16.7821C24.3493 16.354 24.2584 15.9356 24.1705 15.5311C24.0633 15.0383 23.9526 14.5288 24.0967 14.2759C24.2513 14.0046 24.7513 13.8468 25.2348 13.6942C25.6163 13.5739 26.0107 13.4494 26.3622 13.243C26.7018 13.0435 26.9956 12.764 27.2797 12.4937C27.6706 12.1216 28.04 11.7701 28.374 11.7701C28.7079 11.7701 29.0773 12.1216 29.4683 12.4937C29.7523 12.764 30.0461 13.0435 30.3857 13.243C30.7373 13.4493 31.1316 13.5738 31.5131 13.6941C31.9966 13.8467 32.4966 14.0045 32.6512 14.2758C32.7954 14.5286 32.6846 15.0381 32.5774 15.5309C32.4895 15.9354 32.3986 16.3537 32.3986 16.7819C32.3986 17.2102 32.4895 17.6286 32.5774 18.0331ZM30.5975 11.6608C30.5345 11.6024 30.4705 11.5416 30.4053 11.4795C29.8904 10.9896 29.2497 10.3798 28.374 10.3798C27.4982 10.3798 26.8575 10.9896 26.3426 11.4795C26.1045 11.7061 25.8796 11.9201 25.6761 12.0396C25.4574 12.168 25.1518 12.2645 24.8281 12.3666C24.1276 12.5876 23.3336 12.8381 22.9109 13.5797C22.5001 14.3004 22.6768 15.1134 22.8328 15.8307C22.9081 16.1777 22.9794 16.5055 22.9794 16.7821C22.9794 17.0587 22.9081 17.3866 22.8328 17.7336C22.6975 18.3556 22.5473 19.0496 22.7775 19.693L19.9997 22.5464L2.32449 4.39044H37.6748L30.5975 11.6608ZM11.7007 16L1.36993 26.6116V5.38812L11.7007 16ZM12.6635 16.989L19.5124 24.0242C19.5761 24.0896 19.6519 24.1416 19.7356 24.177C19.8192 24.2125 19.9089 24.2308 19.9996 24.2308C20.0902 24.2308 20.18 24.2125 20.2636 24.177C20.3472 24.1416 20.4231 24.0896 20.4868 24.0242L23.6841 20.7398C24.044 20.9494 24.4495 21.0781 24.8281 21.1976C25.1518 21.2997 25.4575 21.3962 25.6761 21.5245C25.8796 21.644 26.1044 21.8581 26.3426 22.0846C26.8575 22.5746 27.4982 23.1844 28.374 23.1844C29.2496 23.1844 29.8904 22.5746 30.4053 22.0846C30.6434 21.858 30.8682 21.644 31.0718 21.5244C31.2043 21.4466 31.3691 21.3806 31.5502 21.3179L37.675 27.6094H2.32431L12.6635 16.989ZM32.9664 20.7946C33.3117 20.6108 33.6223 20.3612 33.8371 19.9846C34.2479 19.2639 34.0711 18.4508 33.9151 17.7336C33.8398 17.3866 33.7686 17.0587 33.7686 16.7821C33.7686 16.5055 33.8398 16.1777 33.9151 15.8307C34.0711 15.1134 34.2479 14.3005 33.837 13.5797C33.4142 12.8381 32.6203 12.5876 31.9197 12.3666L31.8559 12.3463L38.6301 5.38738V26.6122L32.9664 20.7946Z" fill="#F1CDB3"/>
<path d="M28.374 13.2424C26.451 13.2424 24.8865 14.8302 24.8865 16.782C24.8865 18.7337 26.451 20.3215 28.374 20.3215C30.297 20.3215 31.8614 18.7337 31.8614 16.782C31.8614 14.8302 30.2969 13.2424 28.374 13.2424ZM28.374 18.9311C27.2064 18.9311 26.2564 17.967 26.2564 16.782C26.2564 15.5969 27.2063 14.6328 28.374 14.6328C29.5416 14.6328 30.4915 15.5969 30.4915 16.782C30.4915 17.967 29.5415 18.9311 28.374 18.9311Z" fill="#F1CDB3"/>
</svg>
