<svg width="239" height="32" viewBox="0 0 239 32" fill="none" xmlns="http://www.w3.org/2000/svg">
<path d="M71.4551 18.1465H67.0508V22.5508H65.8105V18.1465H61.4062V16.9258H65.8105V12.5215H67.0508V16.9258H71.4551V18.1465ZM81.9715 23H75.3895V22.3066C75.5848 22.2936 75.8875 22.2676 76.2977 22.2285C76.7143 22.1829 77.0008 22.1374 77.157 22.0918C77.3589 22.0267 77.5118 21.9225 77.616 21.7793C77.7267 21.6296 77.782 21.4082 77.782 21.1152V14.2598H75.3504V13.4395H75.8875C76.5906 13.4395 77.2189 13.3092 77.7723 13.0488C78.3322 12.7884 78.7326 12.5085 78.9734 12.209H79.784C79.7645 12.6322 79.7449 13.127 79.7254 13.6934C79.7059 14.2598 79.6961 14.7676 79.6961 15.2168V21.0078C79.6961 21.2357 79.7449 21.4408 79.8426 21.623C79.9467 21.7988 80.0932 21.929 80.282 22.0137C80.4513 22.0853 80.728 22.1504 81.1121 22.209C81.4962 22.2676 81.7827 22.3001 81.9715 22.3066V23ZM88.6207 26.5645C88.0087 26.5645 87.4488 26.4863 86.941 26.3301C86.4332 26.1803 85.997 25.9753 85.6324 25.7148C85.2678 25.4544 84.9846 25.1549 84.7828 24.8164C84.5875 24.4779 84.4898 24.1296 84.4898 23.7715C84.4898 23.4525 84.568 23.166 84.7242 22.9121C84.8805 22.6517 85.1311 22.5215 85.4762 22.5215C85.8668 22.5215 86.163 22.6191 86.3648 22.8145C86.5732 23.0033 86.6773 23.2214 86.6773 23.4688C86.6773 23.6771 86.6415 23.9408 86.5699 24.2598C86.5048 24.5788 86.4527 24.8066 86.4137 24.9434C86.4592 25.002 86.5406 25.0801 86.6578 25.1777C86.7815 25.2754 86.9312 25.3633 87.107 25.4414C87.3154 25.5391 87.5335 25.6172 87.7613 25.6758C87.9892 25.7344 88.3115 25.7637 88.7281 25.7637C89.1187 25.7637 89.4931 25.6986 89.8512 25.5684C90.2158 25.4382 90.5348 25.2298 90.8082 24.9434C91.0947 24.6439 91.316 24.2923 91.4723 23.8887C91.635 23.4915 91.7164 22.9674 91.7164 22.3164C91.7164 21.9648 91.6773 21.6165 91.5992 21.2715C91.5276 20.9264 91.3909 20.627 91.1891 20.373C90.9872 20.1191 90.7105 19.9238 90.359 19.7871C90.0139 19.6439 89.5745 19.5723 89.0406 19.5723H87.7613V18.4492H88.6109C89.5094 18.4492 90.1572 18.2018 90.5543 17.707C90.9514 17.2122 91.15 16.4668 91.15 15.4707C91.15 14.6569 90.9579 14.0449 90.5738 13.6348C90.1897 13.2181 89.6461 13.0098 88.943 13.0098C88.6044 13.0098 88.3245 13.0521 88.1031 13.1367C87.8883 13.2148 87.7125 13.293 87.5758 13.3711C87.413 13.4622 87.2796 13.5632 87.1754 13.6738C87.0712 13.7845 86.9931 13.8659 86.941 13.918C86.9866 14.1263 87.0419 14.3835 87.107 14.6895C87.1721 14.9889 87.2047 15.2754 87.2047 15.5488C87.2047 15.7897 87.1005 16.0078 86.8922 16.2031C86.6904 16.3919 86.3909 16.4863 85.9937 16.4863C85.6487 16.4863 85.3948 16.3626 85.232 16.1152C85.0758 15.8678 84.9977 15.5814 84.9977 15.2559C84.9977 14.9173 85.0921 14.5723 85.2809 14.2207C85.4697 13.8691 85.7496 13.5404 86.1207 13.2344C86.4918 12.9284 86.9443 12.681 87.4781 12.4922C88.012 12.3034 88.6272 12.209 89.3238 12.209C90.1246 12.209 90.7854 12.3294 91.3062 12.5703C91.8336 12.8047 92.247 13.0911 92.5465 13.4297C92.8395 13.7617 93.0413 14.11 93.152 14.4746C93.2626 14.8392 93.318 15.1517 93.318 15.4121C93.318 15.7376 93.2724 16.0664 93.1812 16.3984C93.0901 16.724 92.9404 17.0267 92.732 17.3066C92.5042 17.6126 92.2014 17.8926 91.8238 18.1465C91.4527 18.3939 90.984 18.5957 90.4176 18.752V18.9082C90.7822 18.9408 91.1695 19.0221 91.5797 19.1523C91.9964 19.2826 92.3707 19.4746 92.7027 19.7285C93.0478 19.9954 93.331 20.3405 93.5523 20.7637C93.7737 21.1803 93.8844 21.7109 93.8844 22.3555C93.8844 23.6055 93.3831 24.6178 92.3805 25.3926C91.3779 26.1738 90.1246 26.5645 88.6207 26.5645ZM112.622 18.498C112.622 19.1751 112.499 19.8099 112.251 20.4023C112.01 20.9948 111.685 21.4993 111.275 21.916C110.799 22.3913 110.272 22.7428 109.693 22.9707C109.12 23.1986 108.521 23.3125 107.896 23.3125C107.173 23.3125 106.519 23.179 105.933 22.9121C105.347 22.6452 104.849 22.2676 104.439 21.7793C104.022 21.2845 103.7 20.679 103.472 19.9629C103.244 19.2467 103.13 18.4427 103.13 17.5508C103.13 15.2266 103.82 13.2669 105.2 11.6719C106.587 10.0768 108.443 9.11979 110.767 8.80078L110.943 9.67969L110.064 9.83594C108.651 10.2917 107.557 11.0013 106.782 11.9648C106.014 12.9284 105.516 14.097 105.288 15.4707C105.848 14.9824 106.402 14.6374 106.948 14.4355C107.495 14.2337 108.071 14.1328 108.677 14.1328C109.764 14.1328 110.692 14.5495 111.46 15.3828C112.235 16.2161 112.622 17.2546 112.622 18.498ZM110.503 18.7617C110.503 17.707 110.259 16.8607 109.771 16.2227C109.289 15.5846 108.641 15.2656 107.827 15.2656C107.339 15.2656 106.883 15.3568 106.46 15.5391C106.043 15.7214 105.64 16.0273 105.249 16.457C105.243 16.5352 105.233 16.7174 105.22 17.0039C105.207 17.2839 105.2 17.5052 105.2 17.668C105.2 19.1914 105.448 20.3861 105.943 21.252C106.444 22.1113 107.101 22.541 107.915 22.541C108.69 22.541 109.315 22.2057 109.79 21.5352C110.265 20.8581 110.503 19.9336 110.503 18.7617ZM124.701 13.1562L117.738 26.5645H116.518L123.07 14.1621H119.232C118.666 14.1621 118.223 14.1686 117.904 14.1816C117.585 14.1947 117.292 14.2565 117.025 14.3672C116.824 14.4518 116.641 14.6699 116.479 15.0215C116.322 15.3665 116.202 15.8092 116.117 16.3496H115.521V12.5215H124.701V13.1562ZM136.497 22.1211H134.514V26.5645H132.639V22.1211H126.389V20.6172L133.235 12.2676H134.514V20.8418H136.497V22.1211ZM132.639 20.8418V14.4453L127.366 20.8418H132.639ZM152.676 18.4199C153.106 18.7585 153.461 19.1947 153.741 19.7285C154.027 20.2624 154.17 20.9297 154.17 21.7305C154.17 23.1302 153.692 24.2858 152.735 25.1973C151.778 26.1087 150.564 26.5645 149.092 26.5645C147.953 26.5645 146.989 26.2943 146.202 25.7539C145.414 25.2135 145.02 24.5853 145.02 23.8691C145.02 23.5371 145.101 23.2474 145.264 23C145.427 22.7526 145.677 22.6289 146.016 22.6289C146.407 22.6289 146.703 22.7331 146.905 22.9414C147.113 23.1432 147.217 23.3646 147.217 23.6055C147.217 23.8138 147.181 24.0742 147.11 24.3867C147.038 24.6992 146.983 24.9303 146.944 25.0801C146.996 25.1257 147.08 25.1875 147.198 25.2656C147.315 25.3438 147.455 25.4186 147.618 25.4902C147.787 25.5618 147.992 25.6237 148.233 25.6758C148.48 25.7344 148.767 25.7637 149.092 25.7637C149.509 25.7637 149.903 25.679 150.274 25.5098C150.645 25.3405 150.957 25.0898 151.211 24.7578C151.491 24.3932 151.7 23.9766 151.836 23.5078C151.98 23.0456 152.051 22.4564 152.051 21.7402C152.051 20.8223 151.794 20.0638 151.28 19.4648C150.772 18.8594 150.101 18.5566 149.268 18.5566C148.747 18.5566 148.259 18.6543 147.803 18.8496C147.354 19.0449 146.95 19.3704 146.592 19.8262L145.938 19.5723L146.768 12.5215H153.76V14.2598H147.559L147.051 18.4004C147.344 18.1921 147.728 17.987 148.204 17.7852C148.685 17.5768 149.213 17.4727 149.786 17.4727C150.261 17.4727 150.752 17.5475 151.26 17.6973C151.774 17.8405 152.246 18.0814 152.676 18.4199ZM166.708 18.498C166.708 19.1751 166.585 19.8099 166.337 20.4023C166.096 20.9948 165.771 21.4993 165.361 21.916C164.885 22.3913 164.358 22.7428 163.779 22.9707C163.206 23.1986 162.607 23.3125 161.982 23.3125C161.259 23.3125 160.605 23.179 160.019 22.9121C159.433 22.6452 158.935 22.2676 158.525 21.7793C158.108 21.2845 157.786 20.679 157.558 19.9629C157.33 19.2467 157.216 18.4427 157.216 17.5508C157.216 15.2266 157.906 13.2669 159.286 11.6719C160.673 10.0768 162.529 9.11979 164.853 8.80078L165.029 9.67969L164.15 9.83594C162.737 10.2917 161.643 11.0013 160.868 11.9648C160.1 12.9284 159.602 14.097 159.374 15.4707C159.934 14.9824 160.488 14.6374 161.034 14.4355C161.581 14.2337 162.157 14.1328 162.763 14.1328C163.85 14.1328 164.778 14.5495 165.546 15.3828C166.321 16.2161 166.708 17.2546 166.708 18.498ZM164.589 18.7617C164.589 17.707 164.345 16.8607 163.857 16.2227C163.375 15.5846 162.727 15.2656 161.913 15.2656C161.425 15.2656 160.969 15.3568 160.546 15.5391C160.129 15.7214 159.726 16.0273 159.335 16.457C159.329 16.5352 159.319 16.7174 159.306 17.0039C159.293 17.2839 159.286 17.5052 159.286 17.668C159.286 19.1914 159.534 20.3861 160.029 21.252C160.53 22.1113 161.187 22.541 162.001 22.541C162.776 22.541 163.401 22.2057 163.876 21.5352C164.351 20.8581 164.589 19.9336 164.589 18.7617ZM178.787 13.1562L171.824 26.5645H170.604L177.156 14.1621H173.318C172.752 14.1621 172.309 14.1686 171.99 14.1816C171.671 14.1947 171.378 14.2565 171.111 14.3672C170.91 14.4518 170.727 14.6699 170.564 15.0215C170.408 15.3665 170.288 15.8092 170.203 16.3496H169.607V12.5215H178.787V13.1562ZM196.07 13.1562L189.107 26.5645H187.886L194.439 14.1621H190.601C190.035 14.1621 189.592 14.1686 189.273 14.1816C188.954 14.1947 188.661 14.2565 188.394 14.3672C188.192 14.4518 188.01 14.6699 187.847 15.0215C187.691 15.3665 187.571 15.8092 187.486 16.3496H186.89V12.5215H196.07V13.1562ZM205.512 18.4199C205.942 18.7585 206.297 19.1947 206.577 19.7285C206.863 20.2624 207.006 20.9297 207.006 21.7305C207.006 23.1302 206.528 24.2858 205.571 25.1973C204.614 26.1087 203.399 26.5645 201.928 26.5645C200.789 26.5645 199.825 26.2943 199.038 25.7539C198.25 25.2135 197.856 24.5853 197.856 23.8691C197.856 23.5371 197.937 23.2474 198.1 23C198.263 22.7526 198.513 22.6289 198.852 22.6289C199.243 22.6289 199.539 22.7331 199.741 22.9414C199.949 23.1432 200.053 23.3646 200.053 23.6055C200.053 23.8138 200.017 24.0742 199.946 24.3867C199.874 24.6992 199.819 24.9303 199.78 25.0801C199.832 25.1257 199.916 25.1875 200.034 25.2656C200.151 25.3438 200.291 25.4186 200.454 25.4902C200.623 25.5618 200.828 25.6237 201.069 25.6758C201.316 25.7344 201.603 25.7637 201.928 25.7637C202.345 25.7637 202.739 25.679 203.11 25.5098C203.481 25.3405 203.793 25.0898 204.047 24.7578C204.327 24.3932 204.536 23.9766 204.672 23.5078C204.816 23.0456 204.887 22.4564 204.887 21.7402C204.887 20.8223 204.63 20.0638 204.116 19.4648C203.608 18.8594 202.937 18.5566 202.104 18.5566C201.583 18.5566 201.095 18.6543 200.639 18.8496C200.19 19.0449 199.786 19.3704 199.428 19.8262L198.774 19.5723L199.604 12.5215H206.596V14.2598H200.395L199.887 18.4004C200.18 18.1921 200.564 17.987 201.039 17.7852C201.521 17.5768 202.049 17.4727 202.621 17.4727C203.097 17.4727 203.588 17.5475 204.096 17.6973C204.61 17.8405 205.082 18.0814 205.512 18.4199ZM223.303 18.4199C223.732 18.7585 224.087 19.1947 224.367 19.7285C224.654 20.2624 224.797 20.9297 224.797 21.7305C224.797 23.1302 224.318 24.2858 223.361 25.1973C222.404 26.1087 221.19 26.5645 219.719 26.5645C218.579 26.5645 217.616 26.2943 216.828 25.7539C216.04 25.2135 215.646 24.5853 215.646 23.8691C215.646 23.5371 215.728 23.2474 215.891 23C216.053 22.7526 216.304 22.6289 216.643 22.6289C217.033 22.6289 217.329 22.7331 217.531 22.9414C217.74 23.1432 217.844 23.3646 217.844 23.6055C217.844 23.8138 217.808 24.0742 217.736 24.3867C217.665 24.6992 217.609 24.9303 217.57 25.0801C217.622 25.1257 217.707 25.1875 217.824 25.2656C217.941 25.3438 218.081 25.4186 218.244 25.4902C218.413 25.5618 218.618 25.6237 218.859 25.6758C219.107 25.7344 219.393 25.7637 219.719 25.7637C220.135 25.7637 220.529 25.679 220.9 25.5098C221.271 25.3405 221.584 25.0898 221.838 24.7578C222.118 24.3932 222.326 23.9766 222.463 23.5078C222.606 23.0456 222.678 22.4564 222.678 21.7402C222.678 20.8223 222.421 20.0638 221.906 19.4648C221.398 18.8594 220.728 18.5566 219.895 18.5566C219.374 18.5566 218.885 18.6543 218.43 18.8496C217.98 19.0449 217.577 19.3704 217.219 19.8262L216.564 19.5723L217.395 12.5215H224.387V14.2598H218.186L217.678 18.4004C217.971 18.1921 218.355 17.987 218.83 17.7852C219.312 17.5768 219.839 17.4727 220.412 17.4727C220.887 17.4727 221.379 17.5475 221.887 17.6973C222.401 17.8405 222.873 18.0814 223.303 18.4199ZM237.423 22.1211H235.44V26.5645H233.565V22.1211H227.315V20.6172L234.161 12.2676H235.44V20.8418H237.423V22.1211ZM233.565 20.8418V14.4453L228.292 20.8418H233.565Z" fill="#F1CDB3"/>
<path d="M39.9461 8.89543L37.5102 2.9049C37.4685 2.80251 37.4043 2.71139 37.3226 2.63868C37.2408 2.56598 37.1437 2.51367 37.0389 2.48585L34.111 1.70799C25.5388 -0.569376 14.4609 -0.569281 5.88906 1.70799L2.96105 2.48585C2.85626 2.51367 2.75918 2.56598 2.67743 2.63868C2.59568 2.71139 2.53147 2.80251 2.48984 2.9049L0.0539764 8.89543C-0.0131281 9.06038 -0.0178273 9.24503 0.0407965 9.41333L1.01509 12.2089C1.07166 12.3713 1.18339 12.5075 1.32986 12.5925C1.47633 12.6775 1.64776 12.7056 1.8128 12.6717L11.0692 10.7747C11.2084 10.7462 11.3359 10.675 11.4348 10.5706C11.5337 10.4661 11.5993 10.3334 11.623 10.19L12.4245 5.32594C16.8365 4.18994 23.1635 4.18994 27.5753 5.32594L28.3769 10.19C28.4006 10.3335 28.4662 10.4663 28.5651 10.5707C28.664 10.6751 28.7915 10.7463 28.9307 10.7748L38.187 12.6718C38.3521 12.7056 38.5234 12.6774 38.6699 12.5924C38.8164 12.5075 38.9281 12.3714 38.9848 12.209L39.9592 9.41343C40.0178 9.2451 40.0131 9.06043 39.9461 8.89543ZM2.13193 11.1412L1.63183 9.70624L10.5973 7.78606L10.321 9.46295L2.13193 11.1412ZM11.6222 4.0568C11.4935 4.09314 11.3777 4.16636 11.2883 4.26784C11.1989 4.36933 11.1396 4.49486 11.1174 4.62969L10.848 6.26453L1.85991 8.1896L3.65015 3.78707L6.2409 3.09877C14.5991 0.878304 25.4007 0.878208 33.7593 3.09877L36.35 3.78707L38.1403 8.1896L29.1522 6.26453L28.8828 4.62969C28.8606 4.49487 28.8013 4.36936 28.7119 4.26788C28.6224 4.1664 28.5066 4.09318 28.378 4.0568C23.6016 2.70615 16.3984 2.70615 11.6222 4.0568ZM37.8681 11.1412L29.6792 9.46295L29.4028 7.78606L38.3682 9.70624L37.8681 11.1412Z" fill="#F1CDB3"/>
<path d="M33.2901 13.1186C33.261 12.9842 33.1948 12.8612 33.0995 12.7643C33.0041 12.6673 32.8836 12.6005 32.7522 12.5717L27.9776 11.526L27.3764 7.51395C27.351 7.34431 27.2672 7.18959 27.1401 7.07781C27.013 6.96603 26.851 6.90458 26.6835 6.90458H24.814V5.96398C24.814 5.56724 24.5002 5.2456 24.1129 5.2456C23.7257 5.2456 23.4119 5.56724 23.4119 5.96398V6.90458H16.5882V5.96398C16.5882 5.56724 16.2744 5.2456 15.8871 5.2456C15.4999 5.2456 15.1861 5.56724 15.1861 5.96398V6.90458H13.3166C13.1491 6.90458 12.9871 6.96603 12.86 7.07781C12.7329 7.18959 12.6491 7.34431 12.6237 7.51395L12.0224 11.526L7.24791 12.5717C7.11654 12.6005 6.996 12.6673 6.90063 12.7643C6.80527 12.8612 6.73908 12.9842 6.70996 13.1186L3.46796 28.0878C3.45692 28.1389 3.45134 28.1911 3.45132 28.2434V31.2816C3.45132 31.4721 3.52519 31.6549 3.65666 31.7896C3.78814 31.9243 3.96645 32 4.15239 32H35.8477C36.0336 32 36.212 31.9243 36.3434 31.7896C36.4749 31.6549 36.5488 31.4721 36.5488 31.2816V28.2434C36.5488 28.1911 36.5432 28.1389 36.5321 28.0878L33.2901 13.1186ZM7.98131 13.8802L12.7885 12.8273C12.9276 12.7968 13.0544 12.7238 13.152 12.6178C13.2496 12.5118 13.3134 12.3779 13.335 12.2338L13.9183 8.34134H26.0819L26.6651 12.2338C26.6867 12.3779 26.7505 12.5118 26.8481 12.6178C26.9457 12.7238 27.0725 12.7968 27.2115 12.8273L32.0189 13.8802L34.9741 27.5251H5.0261L7.98131 13.8802ZM11.7966 28.9618L10.8935 30.5632H9.82782L10.7309 28.9618H11.7966ZM13.416 28.9618H28.6721L27.769 30.5632H12.513L13.416 28.9618ZM4.85345 28.9618H9.11142L8.20836 30.5632H4.85345V28.9618ZM29.3885 30.5632L30.2916 28.9618H35.1466V30.5632H29.3885Z" fill="#F1CDB3"/>
<path d="M20 26.1606C24.1492 26.1606 27.5248 22.7016 27.5248 18.45C27.5248 14.1983 24.1492 10.7393 20 10.7393C15.8509 10.7393 12.4753 14.1983 12.4753 18.45C12.4753 22.7016 15.8509 26.1606 20 26.1606ZM20 12.1761C23.3761 12.1761 26.1227 14.9905 26.1227 18.45C26.1227 21.9094 23.3761 24.7238 20 24.7238C16.624 24.7238 13.8774 21.9094 13.8774 18.45C13.8774 14.9905 16.624 12.1761 20 12.1761Z" fill="#F1CDB3"/>
<path d="M20 21.1847C21.4717 21.1847 22.6691 19.9578 22.6691 18.4497C22.6691 16.9416 21.4717 15.7147 20 15.7147C18.5283 15.7147 17.3309 16.9416 17.3309 18.4497C17.3309 19.9578 18.5283 21.1847 20 21.1847ZM20 17.1514C20.6987 17.1514 21.267 17.7338 21.267 18.4497C21.267 19.1656 20.6987 19.7479 20 19.7479C19.3014 19.7479 18.733 19.1656 18.733 18.4497C18.733 17.7339 19.3014 17.1514 20 17.1514Z" fill="#F1CDB3"/>
</svg>
